<?xml version="1.0" encoding="UTF-8" standalone="no"?>
<!-- Generator: Adobe Illustrator 16.0.0, SVG Export Plug-In . SVG Version: 6.00 Build 0)  -->

<svg
   xmlns:dc="http://purl.org/dc/elements/1.1/"
   xmlns:cc="http://creativecommons.org/ns#"
   xmlns:rdf="http://www.w3.org/1999/02/22-rdf-syntax-ns#"
   xmlns:svg="http://www.w3.org/2000/svg"
   xmlns="http://www.w3.org/2000/svg"
   xmlns:sodipodi="http://sodipodi.sourceforge.net/DTD/sodipodi-0.dtd"
   xmlns:inkscape="http://www.inkscape.org/namespaces/inkscape"
   version="1.1"
   id="Capa_1"
   x="0px"
   y="0px"
   width="32.016px"
   height="27.143px"
   viewBox="0 0 32.016 27.143"
   enable-background="new 0 0 32.016 27.143"
   xml:space="preserve"
   sodipodi:docname="box.svg"
   inkscape:version="0.92.4 (5da689c313, 2019-01-14)"><metadata
   id="metadata6792"><rdf:RDF><cc:Work
       rdf:about=""><dc:format>image/svg+xml</dc:format><dc:type
         rdf:resource="http://purl.org/dc/dcmitype/StillImage" /><dc:title></dc:title></cc:Work></rdf:RDF></metadata><defs
   id="defs6790" /><sodipodi:namedview
   pagecolor="#ffffff"
   bordercolor="#666666"
   borderopacity="1"
   objecttolerance="10"
   gridtolerance="10"
   guidetolerance="10"
   inkscape:pageopacity="0"
   inkscape:pageshadow="2"
   inkscape:window-width="1920"
   inkscape:window-height="1017"
   id="namedview6788"
   showgrid="false"
   inkscape:zoom="8.6946912"
   inkscape:cx="16.007999"
   inkscape:cy="13.5715"
   inkscape:window-x="-8"
   inkscape:window-y="-8"
   inkscape:window-maximized="1"
   inkscape:current-layer="Capa_1" />
<path
   d="M15.784,18.521C16.156,18.7,31.656,14.595,32,14.054c0.344-0.541-5.232-6.831-5.232-6.831l-13.934,3.94  C12.834,11.163,15.412,18.343,15.784,18.521z"
   id="path6779" />
<path
   d="M0,8.535c0,0.384,7.967,8.157,8.499,8.146c0.531-0.012,4.335-5.519,4.335-5.519L4.248,4.068C4.248,4.068,0,8.151,0,8.535z"
   id="path6781" />
<path
   d="M19.338,0.309l-1.213,6.396L17.295,0c0,0-11.996,3.063-12.005,3.461c-0.01,0.396,7.229,6.3,7.892,6.395  c0.663,0.097,12.484-3.271,12.651-3.695C26,5.733,19.338,0.309,19.338,0.309z"
   id="path6783" />
<path
   d="M12.542,13.804c0,0-3.114,4.5-3.75,4.542c-0.637,0.042-4.979-4.542-4.979-4.542s-0.122,4.838,0,5.242  s7.979,7.925,9.021,8.092s14.428-4.086,14.656-4.324c0.228-0.236,0.779-6.509,0.779-6.509s-12.725,3.739-13.139,3.583  S12.542,13.804,12.542,13.804z"
   id="path6785" />
<path
   style="fill:#668000;stroke-width:0.11501271"
   d="M 11.867542,26.454445 C 11.393114,26.095038 10.590901,25.439077 10.084845,24.996754 8.5366705,23.643557 4.7517409,20.055857 4.2706391,19.485522 L 3.8166521,18.947331 V 16.448245 13.94916 l 1.7539439,1.719942 c 1.9839733,1.945511 2.8732119,2.686927 3.2226457,2.686927 0.3206224,0 1.0104732,-0.754545 2.4184893,-2.645293 0.63594,-0.853969 1.192185,-1.595103 1.236101,-1.646963 0.04392,-0.05186 0.43068,0.802108 0.859477,1.897709 0.986385,2.52027 1.607072,3.874481 1.811839,3.953057 0.216446,0.08306 3.260054,-0.708929 8.590817,-2.235445 2.433257,-0.696787 4.440942,-1.250046 4.461522,-1.229466 0.102049,0.102049 -0.589601,6.066341 -0.729788,6.293169 -0.133228,0.215567 -9.245847,3.072549 -12.411308,3.891183 -2.221004,0.574385 -2.163332,0.577659 -3.162849,-0.179535 z"
   id="path8659"
   inkscape:connector-curvature="0" /><path
   style="fill:#668000;stroke-width:0.11501271"
   d="m 15.41415,17.707749 c -0.59991,-1.31097 -2.501183,-6.419912 -2.417251,-6.495436 0.04305,-0.03874 3.156261,-0.938056 6.918243,-1.9984815 l 6.839966,-1.928047 0.389658,0.4458096 c 2.0349,2.3281349 4.321877,5.2212509 4.689867,5.9328649 0.170265,0.329256 0.170038,0.329638 -0.323546,0.546589 -1.493931,0.656644 -12.763073,3.756098 -15.303114,4.208954 l -0.432597,0.07713 z"
   id="path8661"
   inkscape:connector-curvature="0" /><path
   style="fill:#668000;stroke-width:0.11501271"
   d="M 12.350877,9.2782949 C 10.822908,8.2256933 6.4247293,4.6305117 5.6186788,3.7752269 L 5.2929704,3.4296238 6.3662615,3.079938 C 8.3855545,2.4220382 17.146026,0.01554191 17.223312,0.09751273 c 0.01504,0.01595069 0.211856,1.49803507 0.437372,3.29352067 0.225514,1.7954856 0.431208,3.2856999 0.457095,3.3115873 0.02589,0.025887 0.266086,-1.1067342 0.533776,-2.5169368 0.267689,-1.4102026 0.545795,-2.8354066 0.618014,-3.1671202 l 0.131305,-0.60311547 1.725191,1.45121707 c 2.378395,2.0006875 4.269765,3.6973792 4.481011,4.0197821 0.161699,0.2467823 0.1596,0.2793182 -0.02427,0.3762782 C 24.686487,6.735385 16.470241,9.117263 13.466309,9.7752812 13.23449,9.8260615 12.984031,9.7144681 12.350877,9.2782949 Z"
   id="path8663"
   inkscape:connector-curvature="0" /><path
   style="fill:#668000;stroke-width:0.11501271"
   d="M 7.3572013,15.739489 C 6.7699246,15.249248 4.8708195,13.442739 3.1369679,11.725025 L -0.01548943,8.601909 0.35522253,8.1338469 C 0.77616305,7.6023663 4.1568097,4.2090259 4.2640988,4.2102935 c 0.066928,7.913e-4 0.6730895,0.4964801 6.1263422,5.0098211 l 2.375825,1.9663324 -1.327006,1.830847 c -1.437703,1.983573 -2.7517244,3.613544 -2.9131027,3.613544 -0.055649,0 -0.5816792,-0.401107 -1.168956,-0.891349 z"
   id="path8665"
   inkscape:connector-curvature="0" /></svg>