<?xml version="1.0" encoding="UTF-8" standalone="no"?>
<!-- Generator: Adobe Illustrator 16.0.0, SVG Export Plug-In . SVG Version: 6.00 Build 0)  -->

<svg
   xmlns:dc="http://purl.org/dc/elements/1.1/"
   xmlns:cc="http://creativecommons.org/ns#"
   xmlns:rdf="http://www.w3.org/1999/02/22-rdf-syntax-ns#"
   xmlns:svg="http://www.w3.org/2000/svg"
   xmlns="http://www.w3.org/2000/svg"
   xmlns:sodipodi="http://sodipodi.sourceforge.net/DTD/sodipodi-0.dtd"
   xmlns:inkscape="http://www.inkscape.org/namespaces/inkscape"
   version="1.1"
   id="Capa_1"
   x="0px"
   y="0px"
   width="32px"
   height="32px"
   viewBox="0 -2.568 32 32"
   enable-background="new 0 -2.568 32 32"
   xml:space="preserve"
   sodipodi:docname="camera.svg"
   inkscape:version="0.92.4 (5da689c313, 2019-01-14)"><metadata
   id="metadata5094"><rdf:RDF><cc:Work
       rdf:about=""><dc:format>image/svg+xml</dc:format><dc:type
         rdf:resource="http://purl.org/dc/dcmitype/StillImage" /><dc:title></dc:title></cc:Work></rdf:RDF></metadata><defs
   id="defs5092" /><sodipodi:namedview
   pagecolor="#ffffff"
   bordercolor="#666666"
   borderopacity="1"
   objecttolerance="10"
   gridtolerance="10"
   guidetolerance="10"
   inkscape:pageopacity="0"
   inkscape:pageshadow="2"
   inkscape:window-width="1920"
   inkscape:window-height="1017"
   id="namedview5090"
   showgrid="false"
   inkscape:zoom="7.375"
   inkscape:cx="16"
   inkscape:cy="16"
   inkscape:window-x="-8"
   inkscape:window-y="-8"
   inkscape:window-maximized="1"
   inkscape:current-layer="Capa_1" />
<path
   d="M30.34,6.909c-0.885-0.969-4.643-1.617-9.171-1.911c-0.438-1.817-1.106-4.265-1.635-4.712  C18.678-0.439,9.673,0.359,8.961,1.101C8.438,1.646,7.49,4.028,7.025,5.251c-2.842,0.342-4.947,0.891-5.5,1.658  c-2.092,2.904-1.976,18.009,0,19.054C3.5,27.01,28.363,27.475,30.34,25.499C32.314,23.524,32.779,9.582,30.34,6.909z M20.012,22.268  c-3.786,1.714-8.124,0.295-9.692-3.168c-1.567-3.465,0.23-7.659,4.016-9.372c3.785-1.714,8.124-0.295,9.691,3.168  C25.594,16.359,23.796,20.555,20.012,22.268z"
   id="path5085" />
<ellipse
   transform="matrix(0.5341 0.8454 -0.8454 0.5341 21.5234 -7.0655)"
   cx="17.173"
   cy="15.997"
   rx="4.059"
   ry="4.437"
   id="ellipse5087" />
<path
   style="stroke-width:0.13559322;fill:#668000"
   d="M 8.6779661,29.221885 C 3.9249265,29.008736 1.7944015,28.724151 1.3456453,28.242466 0.44719778,27.278096 -0.08280918,22.353961 0.15212083,17.153787 0.33825193,13.033777 0.92343889,10.173566 1.7403761,9.3908906 2.3613086,8.7959995 4.2676465,8.2361493 6.7551359,7.9181645 7.0183557,7.8845161 7.1767031,7.6184137 7.7269418,6.2850466 8.546534,4.2989691 8.8781665,3.7577425 9.4105041,3.537462 10.957938,2.8971361 18.321563,2.3675637 19.254237,2.8295268 c 0.457085,0.2263988 0.872343,1.1441479 1.413522,3.1239796 l 0.451914,1.6532733 1.813046,0.169519 c 2.295701,0.2146473 4.659811,0.6129284 5.88084,0.9907444 1.617698,0.5005546 2.196895,1.3922319 2.727829,4.1995049 0.29336,1.551125 0.413203,7.421402 0.194763,9.540125 -0.338342,3.281681 -0.955499,5.289056 -1.75286,5.701387 -1.415149,0.731802 -7.100646,1.173704 -14.661257,1.139537 -2.349153,-0.01062 -5.3389832,-0.06719 -6.6440679,-0.125712 z m 9.9715119,-3.853566 c 3.845501,-0.973389 6.540259,-4.76799 5.906087,-8.316604 -0.830966,-4.649797 -5.978332,-6.897469 -10.577852,-4.618971 -3.831914,1.898243 -5.3753671,6.483327 -3.347015,9.942861 0.774281,1.320607 2.438451,2.535838 4.095819,2.990901 0.909334,0.249676 2.940039,0.250615 3.922961,0.0018 z"
   id="path8820"
   inkscape:connector-curvature="0"
   transform="translate(0,-2.568)" /><path
   style="fill:#668000;stroke-width:0.13559322"
   d="m 16.04661,22.584215 c -1.23024,-0.243394 -2.292601,-1.062713 -2.805768,-2.163876 -0.394514,-0.846558 -0.391125,-2.274451 0.0075,-3.148099 0.408216,-0.894727 1.382985,-1.886507 2.307269,-2.347533 0.67465,-0.336511 0.943389,-0.391451 1.93594,-0.395781 0.993506,-0.0043 1.247778,0.0451 1.842715,0.358214 1.265893,0.666245 1.960484,1.710854 2.055589,3.09144 0.149566,2.171164 -1.517478,4.177592 -3.821512,4.59951 -0.44251,0.08103 -0.83912,0.140648 -0.881356,0.132477 -0.04224,-0.0082 -0.330393,-0.06503 -0.640351,-0.126352 z"
   id="path8822"
   inkscape:connector-curvature="0"
   transform="translate(0,-2.568)" /></svg>