<?xml version="1.0" encoding="UTF-8" standalone="no"?>
<!-- Generator: Adobe Illustrator 16.0.0, SVG Export Plug-In . SVG Version: 6.00 Build 0)  -->

<svg
   xmlns:dc="http://purl.org/dc/elements/1.1/"
   xmlns:cc="http://creativecommons.org/ns#"
   xmlns:rdf="http://www.w3.org/1999/02/22-rdf-syntax-ns#"
   xmlns:svg="http://www.w3.org/2000/svg"
   xmlns="http://www.w3.org/2000/svg"
   xmlns:sodipodi="http://sodipodi.sourceforge.net/DTD/sodipodi-0.dtd"
   xmlns:inkscape="http://www.inkscape.org/namespaces/inkscape"
   version="1.1"
   id="Capa_1"
   x="0px"
   y="0px"
   width="28.246px"
   height="32px"
   viewBox="0 0 28.246 32"
   enable-background="new 0 0 28.246 32"
   xml:space="preserve"
   sodipodi:docname="cancel.svg"
   inkscape:version="0.92.4 (5da689c313, 2019-01-14)"><metadata
   id="metadata5686"><rdf:RDF><cc:Work
       rdf:about=""><dc:format>image/svg+xml</dc:format><dc:type
         rdf:resource="http://purl.org/dc/dcmitype/StillImage" /><dc:title></dc:title></cc:Work></rdf:RDF></metadata><defs
   id="defs5684" /><sodipodi:namedview
   pagecolor="#ffffff"
   bordercolor="#666666"
   borderopacity="1"
   objecttolerance="10"
   gridtolerance="10"
   guidetolerance="10"
   inkscape:pageopacity="0"
   inkscape:pageshadow="2"
   inkscape:window-width="1920"
   inkscape:window-height="1017"
   id="namedview5682"
   showgrid="false"
   inkscape:zoom="7.375"
   inkscape:cx="14.123"
   inkscape:cy="16"
   inkscape:window-x="-8"
   inkscape:window-y="-8"
   inkscape:window-maximized="1"
   inkscape:current-layer="Capa_1" />
<path
   d="M16.566,15.8c2.692-2.353,5.767-4.821,9.209-7.265L19.631,0c0,0-4.992,3.971-10.194,10.627  C5.085,7.202,2.724,4.801,2.724,4.801L0,7.437c1.59,3.168,3.512,6.068,5.562,8.681C3.392,19.555,1.406,23.434,0,27.654l3.072,2.22  c0,0,2.523-3.437,7.327-8.288C17.02,28.285,23.384,32,23.384,32l4.862-9.326C23.838,20.415,19.926,18.047,16.566,15.8z"
   id="path5679" />
<path
   style="fill:#aa0000;stroke-width:0.13559322"
   d="M 21.512831,30.703836 C 18.200648,28.454553 15.346333,26.165614 12.203042,23.238107 L 10.345521,21.508103 8.6586415,23.303204 C 6.6718037,25.417508 5.3019008,26.968658 4.0196807,28.555932 3.5076096,29.189831 3.0403904,29.693627 2.9814155,29.675481 2.6372446,29.569578 0.15689845,27.644785 0.15689845,27.483605 c 0,-0.302935 1.44113535,-3.836569 2.29999365,-5.639537 0.6334066,-1.329686 2.1914998,-4.165511 2.999732,-5.459696 0.1536224,-0.24599 0.077858,-0.403024 -0.711929,-1.475591 C 2.4889286,11.845344 0.03381791,7.8067139 0.18321494,7.4051958 0.206029,7.3438809 0.78671417,6.7657529 1.4736265,6.1204668 L 2.7225577,4.9472197 4.3888807,6.456986 c 1.5668312,1.4196223 4.8969289,4.200641 5.0300074,4.200641 0.033335,0 0.7815909,-0.8694914 1.6627909,-1.9322033 1.574259,-1.8985281 6.518354,-6.9711929 7.860513,-8.06492262 L 19.625791,0.10343413 22.64988,4.305611 c 1.663249,2.3111973 3.003088,4.2191581 2.977418,4.2399127 -0.02567,0.020755 -0.749503,0.5546751 -1.608522,1.1864897 -2.843235,2.0912236 -7.589265,5.9855486 -7.455098,6.1172336 0.557629,0.547318 6.825916,4.321562 9.73104,5.859228 0.986284,0.522033 1.778244,1.019136 1.759915,1.104671 -0.08195,0.382402 -4.65808,8.996412 -4.77909,8.996055 -0.07458,-2.71e-4 -0.867797,-0.497634 -1.762712,-1.105365 z"
   id="path8677"
   inkscape:connector-curvature="0" /></svg>