<?xml version="1.0" encoding="UTF-8" standalone="no"?>
<!-- Generator: Adobe Illustrator 16.0.0, SVG Export Plug-In . SVG Version: 6.00 Build 0)  -->

<svg
   xmlns:dc="http://purl.org/dc/elements/1.1/"
   xmlns:cc="http://creativecommons.org/ns#"
   xmlns:rdf="http://www.w3.org/1999/02/22-rdf-syntax-ns#"
   xmlns:svg="http://www.w3.org/2000/svg"
   xmlns="http://www.w3.org/2000/svg"
   xmlns:sodipodi="http://sodipodi.sourceforge.net/DTD/sodipodi-0.dtd"
   xmlns:inkscape="http://www.inkscape.org/namespaces/inkscape"
   version="1.1"
   id="Capa_1"
   x="0px"
   y="0px"
   width="31.244px"
   height="32px"
   viewBox="0 0 31.244 32"
   enable-background="new 0 0 31.244 32"
   xml:space="preserve"
   sodipodi:docname="comments.svg"
   inkscape:version="0.92.4 (5da689c313, 2019-01-14)"><metadata
   id="metadata4570"><rdf:RDF><cc:Work
       rdf:about=""><dc:format>image/svg+xml</dc:format><dc:type
         rdf:resource="http://purl.org/dc/dcmitype/StillImage" /><dc:title></dc:title></cc:Work></rdf:RDF></metadata><defs
   id="defs4568" /><sodipodi:namedview
   pagecolor="#ffffff"
   bordercolor="#666666"
   borderopacity="1"
   objecttolerance="10"
   gridtolerance="10"
   guidetolerance="10"
   inkscape:pageopacity="0"
   inkscape:pageshadow="2"
   inkscape:window-width="1920"
   inkscape:window-height="1017"
   id="namedview4566"
   showgrid="false"
   inkscape:zoom="7.375"
   inkscape:cx="15.622"
   inkscape:cy="16"
   inkscape:window-x="-8"
   inkscape:window-y="-8"
   inkscape:window-maximized="1"
   inkscape:current-layer="Capa_1" />
<path
   d="M29.511,0.397C21.369-2.011,1.774,7.249,1.145,8.509c-2.603,5.203-0.204,17.772,1.634,18.873  c0.396,0.235,2.928,0.089,6.813-0.321c0.952,2.043,3.56,4.938,4.252,4.939c1.601,0,4.12-3.396,5.321-5.789  c4.993-0.721,9.025-1.607,9.852-2.293C31.157,22.13,32.494,1.279,29.511,0.397z M26.497,22.127  c-0.725,0.604-4.756,1.383-9.146,2.018c-1.055,2.104-2.625,5.028-3.217,5.088c-0.607,0.062-1.929-2.545-2.764-4.342  c-3.416,0.359-6.707,0.526-7.029,0.28c-1.587-1.194-2.569-13.743-0.816-15.13c1.522-1.203,16.514-7.75,23.895-6.644  C28.979,3.633,28.381,20.557,26.497,22.127z"
   id="path4557" />
<polygon
   points="23.222,8.199 8.997,11.342 8.915,13.712 23.149,10.434 "
   id="polygon4559" />
<polygon
   points="5.704,18.84 25.245,14.342 25.321,12.128 5.786,16.444 "
   id="polygon4561" />
<polygon
   points="8.934,22.486 22.196,19.434 22.524,17.139 8.693,20.193 "
   id="polygon4563" />
<path
   style="fill:#88aa00;stroke-width:0.13559322"
   d="M 13.21026,31.544358 C 12.490738,31.023139 11.024355,29.299539 10.221567,28.031422 L 9.5881014,27.030774 8.5711523,27.113779 C 4.6697002,27.432221 3.3304327,27.489257 2.9779943,27.351978 1.7835744,26.886735 0.55753833,22.438489 0.14539445,17.074877 -0.09515957,13.944323 0.23413197,10.789571 0.98320415,9.0483055 1.3098956,8.2888907 1.8659532,7.8906199 4.3568136,6.6319915 8.516473,4.5301209 14.277908,2.3599653 18.740644,1.2140442 c 5.212112,-1.33834242 10.28387,-1.51084047 11.198219,-0.38086819 0.819553,1.01281939 1.182696,3.57026209 1.183233,8.33292569 6.78e-4,5.7830033 -0.677662,11.5707713 -1.620686,13.8286573 -0.329009,0.787747 -0.707657,1.067722 -2.006361,1.483516 -1.23282,0.394701 -5.132854,1.208221 -7.232402,1.508629 l -1.122066,0.160548 -0.561099,0.966952 c -1.205339,2.077182 -3.095763,4.212922 -4.100665,4.632797 -0.626645,0.261828 -0.627224,0.261736 -1.268557,-0.202843 z m 1.740829,-3.029489 c 0.270267,-0.358177 0.933532,-1.468017 1.473921,-2.466309 0.818704,-1.512435 1.042799,-1.827266 1.343996,-1.888182 0.198808,-0.04021 0.957204,-0.166199 1.685326,-0.279982 4.330537,-0.676725 6.847445,-1.348693 7.260739,-1.938481 C 27.552524,20.74683 28.174805,16.508597 28.322123,10.99661 28.435026,6.772254 28.1538,3.9118471 27.578759,3.435678 27.267524,3.1779576 23.591154,3.2380434 21.927084,3.5280477 17.056694,4.3768315 10.351579,6.5708075 5.5203048,8.8964994 3.4565901,9.8899359 3.2435988,10.063104 2.9543524,10.982694 2.0818998,13.756447 2.7909497,22.979858 4.0162922,24.79654 l 0.2949961,0.437358 h 1.8926439 c 1.040954,0 2.6248472,-0.05125 3.5197625,-0.113894 l 1.6271183,-0.113896 0.52181,1.063049 c 0.638535,1.300843 1.327176,2.449882 1.718516,2.867444 0.418199,0.446223 0.792642,0.330105 1.35995,-0.421732 z"
   id="path9043"
   inkscape:connector-curvature="0" /><path
   style="fill:#88aa00;stroke-width:0.13559322"
   d="m 8.9977044,12.572974 c 0.02698,-0.594121 0.079332,-1.109351 0.1163364,-1.144955 0.037005,-0.03561 3.2149022,-0.759539 7.0619942,-1.6087444 L 23.17075,8.2752657 23.10809,9.2969549 c -0.03446,0.561929 -0.07981,1.0414491 -0.100772,1.0656001 -0.02096,0.02415 -3.048862,0.738562 -6.728666,1.58758 -3.679804,0.849018 -6.8344294,1.579532 -7.0102788,1.623364 -0.3187069,0.07944 -0.3195698,0.07625 -0.2706708,-1.000525 z"
   id="path9045"
   inkscape:connector-curvature="0" /><path
   style="fill:#88aa00;stroke-width:0.13559322"
   d="m 5.8150955,17.668513 c 0.045087,-0.61192 0.097322,-1.131342 0.1160761,-1.154273 0.046654,-0.05704 18.9363414,-4.229291 19.1484554,-4.229404 0.120199,-6.4e-5 0.169491,0.28921 0.169491,0.994675 v 0.994765 l -9.59322,2.200097 c -5.276271,1.210053 -9.6673711,2.224087 -9.7579999,2.253408 -0.1246486,0.04033 -0.1448146,-0.21765 -0.082803,-1.059268 z"
   id="path9047"
   inkscape:connector-curvature="0" /><path
   style="fill:#88aa00;stroke-width:0.13559322"
   d="m 8.9075803,21.515281 c -0.047773,-0.490354 -0.09725,-0.976837 -0.1099491,-1.081073 -0.01742,-0.142985 1.6083088,-0.5506 6.6209788,-1.66006 3.654237,-0.808797 6.724729,-1.47097 6.823317,-1.471496 0.138961,-7.42e-4 0.157736,0.174271 0.08353,0.778704 -0.170214,1.386541 0.05882,1.248926 -3.400926,2.043474 -1.70453,0.391453 -4.636109,1.065044 -6.51462,1.496869 l -3.4154748,0.785134 z"
   id="path9049"
   inkscape:connector-curvature="0" /><path
   style="fill:#668000;stroke-width:0.13559322"
   d="M 12.447988,30.691525 C 11.844243,30.076271 10.958928,28.99322 10.48062,28.284746 10.002312,27.576271 9.6058237,26.992191 9.5995352,26.986789 c -0.00629,-0.0054 -0.9571965,0.06594 -2.1131287,0.158545 -1.1559322,0.0926 -2.6554656,0.173291 -3.3322964,0.179311 -1.1105285,0.0099 -1.257875,-0.01882 -1.5101219,-0.294137 C 1.2318539,25.489223 0.05285175,19.301113 0.20911756,14.250847 0.28584248,11.771218 0.37834941,11.112485 0.86012877,9.6150594 1.291373,8.2747025 1.780801,7.9283691 6.1982709,5.837635 9.8103959,4.1280607 15.220176,2.1748647 18.945342,1.2353168 c 3.856003,-0.97254728 8.25409,-1.33951249 9.990449,-0.8335779 0.955002,0.27826484 1.241616,0.64551 1.601268,2.0517369 0.99516,3.8910388 0.461246,15.9241742 -0.882836,19.8969352 -0.361242,1.067741 -0.595346,1.378099 -1.317536,1.746689 -0.856493,0.437136 -4.429693,1.22687 -8.85028,1.956055 -0.332188,0.05479 -0.504287,0.234473 -0.938518,0.979854 -1.473187,2.528793 -3.635609,4.77716 -4.59455,4.77716 -0.331471,0 -0.612731,-0.209007 -1.505351,-1.118644 z m 2.383785,-1.985966 c 0.248183,-0.290587 0.902864,-1.326787 1.454844,-2.302667 0.551979,-0.975879 1.101132,-1.862237 1.220339,-1.969684 0.123057,-0.110918 1.271677,-0.376038 2.657417,-0.613375 4.507479,-0.772001 6.289154,-1.332775 6.741478,-2.121848 C 27.722916,20.272626 28.366492,14.901529 28.36683,9.5050847 28.367101,5.1189873 28.075223,3.546016 27.21522,3.2989584 26.408967,3.0673417 22.733118,3.3093068 20.706746,3.7273836 15.698672,4.7606374 9.35756,6.9358404 5.0374933,9.1024353 3.5124406,9.867278 3.1059981,10.233009 2.8773603,11.0462 2.05493,13.971318 2.7758317,22.909504 3.9930307,24.878974 l 0.2870715,0.46449 3.1963725,-0.09109 c 1.7580049,-0.0501 3.3297113,-0.126602 3.4926813,-0.169999 0.255185,-0.06795 0.356274,0.04059 0.728391,0.782076 1.130319,2.252293 1.931319,3.369452 2.415887,3.369452 0.146902,0 0.470155,-0.237753 0.718339,-0.528339 z"
   id="path9051"
   inkscape:connector-curvature="0" /></svg>