<?xml version="1.0" encoding="UTF-8" standalone="no"?>
<!-- Generator: Adobe Illustrator 16.0.0, SVG Export Plug-In . SVG Version: 6.00 Build 0)  -->

<svg
   xmlns:dc="http://purl.org/dc/elements/1.1/"
   xmlns:cc="http://creativecommons.org/ns#"
   xmlns:rdf="http://www.w3.org/1999/02/22-rdf-syntax-ns#"
   xmlns:svg="http://www.w3.org/2000/svg"
   xmlns="http://www.w3.org/2000/svg"
   xmlns:sodipodi="http://sodipodi.sourceforge.net/DTD/sodipodi-0.dtd"
   xmlns:inkscape="http://www.inkscape.org/namespaces/inkscape"
   version="1.1"
   id="Capa_1"
   x="0px"
   y="0px"
   width="32px"
   height="32px"
   viewBox="-1.602 0.071 32 32"
   enable-background="new -1.602 0.071 32 32"
   xml:space="preserve"
   sodipodi:docname="configuration.svg"
   inkscape:version="0.92.4 (5da689c313, 2019-01-14)"><metadata
   id="metadata3917"><rdf:RDF><cc:Work
       rdf:about=""><dc:format>image/svg+xml</dc:format><dc:type
         rdf:resource="http://purl.org/dc/dcmitype/StillImage" /><dc:title></dc:title></cc:Work></rdf:RDF></metadata><defs
   id="defs3915" /><sodipodi:namedview
   pagecolor="#ffffff"
   bordercolor="#666666"
   borderopacity="1"
   objecttolerance="10"
   gridtolerance="10"
   guidetolerance="10"
   inkscape:pageopacity="0"
   inkscape:pageshadow="2"
   inkscape:window-width="1920"
   inkscape:window-height="1017"
   id="namedview3913"
   showgrid="false"
   inkscape:zoom="26.5"
   inkscape:cx="16"
   inkscape:cy="16"
   inkscape:window-x="-8"
   inkscape:window-y="-8"
   inkscape:window-maximized="1"
   inkscape:current-layer="Capa_1" />
<path
   d="M17.153,8.664v0.002c-0.146-0.78-0.405-1.524-0.771-2.211l0,0l1.396-2.167l-2.454-2.206l-2.012,1.39  c-0.666-0.329-1.362-0.539-2.065-0.644h0.004l-0.736-2.757L7.669,0.61L7.067,3.472H7.07c-0.592,0.275-1.155,0.63-1.673,1.057l0,0  L3.114,3.472L1.83,5.318l1.284,2.209l0.002-0.004c-0.312,0.691-0.521,1.401-0.636,2.11V9.632l-2.416,0.35v2.55l2.703,0.851v-0.002  c0.183,0.552,0.426,1.08,0.727,1.568l-0.001-0.002L1.83,16.998l2.03,1.864l2.029-1.551V17.31c0.15,0.093,0.302,0.179,0.461,0.253  c0.236,0.117,0.476,0.221,0.718,0.309l1.141,3.247h2.551l0.491-3.068l0,0c0.619-0.161,1.222-0.396,1.792-0.714l0,0l2.084,1.279  l1.68-1.766l-1.091-1.899c0.263-0.363,0.5-0.758,0.708-1.176c0.146-0.301,0.272-0.603,0.383-0.912l0,0l2.59-1.065V9.492  L17.153,8.664z M8.084,14.173c-1.838-0.716-2.618-3.124-1.741-5.376c0.876-2.255,3.077-3.505,4.915-2.791  C13.097,6.719,13.875,9.127,13,11.38C12.122,13.638,9.922,14.888,8.084,14.173z"
   id="path3908" />
<path
   d="M26.484,21.007v0.004c-0.243-0.571-0.567-1.1-0.967-1.561h0.002l0.699-1.896l-2.254-1.271l-1.306,1.402  c-0.564-0.139-1.134-0.183-1.69-0.143h0.004l-1.032-1.987l-2.089,0.896l0.025,2.294h0.002c-0.406,0.31-0.777,0.679-1.103,1.095l0,0  l-1.928-0.422l-0.67,1.635l1.359,1.473v-0.002c-0.121,0.579-0.161,1.159-0.129,1.722l0,0l-1.791,0.678l0.434,1.954l2.216,0.192  v-0.003c0.231,0.394,0.51,0.756,0.822,1.079l0,0l-0.927,1.85l1.871,1.083l1.292-1.53l0,0c0.13,0.043,0.26,0.082,0.396,0.114  c0.199,0.049,0.399,0.086,0.602,0.113l1.426,2.294l1.954-0.434l-0.146-2.436v0.001c0.445-0.227,0.869-0.513,1.252-0.85v0.002  l1.813,0.627l0.985-1.639l-1.159-1.268c0.142-0.326,0.256-0.665,0.344-1.022c0.063-0.255,0.107-0.509,0.14-0.763l0,0l1.804-1.259  l-0.394-1.763L26.484,21.007z M20.473,26.769c-1.528-0.232-2.535-1.947-2.245-3.823c0.287-1.877,1.762-3.209,3.29-2.972  c1.53,0.234,2.535,1.945,2.248,3.824C23.476,25.672,22.005,27.004,20.473,26.769z"
   id="path3910" />
<path
   style="stroke-width:0.03773585;fill:#668000"
   d="M 9.3617347,19.711321 C 9.1050328,18.979717 8.8463404,18.245151 8.786863,18.078952 L 8.6787226,17.776772 8.4431347,17.687453 C 8.3135615,17.638328 8.0440136,17.513626 7.8441396,17.410339 L 7.4807321,17.222544 6.5146675,17.963125 C 5.9833317,18.370444 5.5236679,18.713274 5.4931921,18.724969 5.4570343,18.738844 5.099491,18.434923 4.4641737,17.850276 3.9286895,17.357501 3.4862866,16.944119 3.4810562,16.93165 3.4758258,16.919181 3.8300453,16.467572 4.2682106,15.928074 4.706376,15.388577 5.0722427,14.928754 5.0812478,14.906246 5.090253,14.883737 4.9968542,14.671473 4.8736949,14.434548 4.7505356,14.197622 4.5940997,13.859434 4.5260596,13.683019 4.4580195,13.506604 4.3889783,13.344437 4.3726346,13.322648 4.3562909,13.300858 3.7480634,13.097085 3.0210178,12.869817 L 1.6991167,12.456604 1.698615,11.189969 1.6981132,9.923334 2.8207547,9.7626611 C 3.4382075,9.6742913 3.9777832,9.5938664 4.0198117,9.58394 4.0837175,9.568846 4.1098209,9.4993785 4.1792662,9.1595936 4.2562645,8.7828532 4.4340613,8.208966 4.6426349,7.6639472 L 4.7293598,7.4373287 4.116183,6.3850736 C 3.7789357,5.8063332 3.4943682,5.3103079 3.4838106,5.2827955 3.4732531,5.255283 3.7475388,4.8262268 4.0933345,4.329337 L 4.722054,3.4259013 4.9553666,3.5321512 C 5.0836886,3.5905888 5.5937683,3.8265857 6.0888774,4.0565887 6.5963872,4.2923528 7.0083358,4.4625819 7.0332279,4.4468223 7.0575117,4.4314472 7.2043091,4.3246072 7.3594445,4.2093996 7.7153751,3.9450766 8.059274,3.7301317 8.4039747,3.5565432 8.5522411,3.4818773 8.6824445,3.3906383 8.6933151,3.3537897 8.704186,3.3169412 8.8412136,2.6769896 8.9978211,1.9316751 9.1544283,1.1863605 9.2882619,0.57085762 9.2952287,0.56389087 9.314217,0.54490238 12.086938,0.02152907 12.099896,0.03448736 c 0.0061,0.0061486 0.174267,0.62143611 0.373595,1.36730554 0.199329,0.7458694 0.365374,1.3580266 0.368991,1.3603493 0.0036,0.00232 0.216314,0.050234 0.472662,0.1064699 0.491276,0.1077727 0.957313,0.2590947 1.362601,0.4424365 0.24001,0.1085739 0.245267,0.1092088 0.339623,0.041023 0.127363,-0.092037 1.879798,-1.2965548 1.897787,-1.3044232 0.0077,-0.00338 0.560078,0.4837446 1.227463,1.0824913 l 1.213426,1.0886307 -0.124572,0.1943883 c -0.06852,0.1069136 -0.370524,0.5764637 -0.67113,1.0434449 -0.300607,0.4669811 -0.55771,0.8679498 -0.57134,0.8910415 -0.01363,0.023092 0.03466,0.1626521 0.10732,0.3101347 0.215132,0.4366902 0.395781,0.9367574 0.527134,1.4592011 l 0.123338,0.4905661 1.117169,0.4124951 1.117169,0.4124947 v 1.1400722 c 0,0.876502 -0.0109,1.144578 -0.04717,1.159566 -0.02594,0.01072 -0.605135,0.249279 -1.287094,0.530125 -0.681958,0.280846 -1.243423,0.515872 -1.2477,0.522278 -0.0043,0.0064 -0.07243,0.172969 -0.151452,0.370139 -0.176448,0.440266 -0.44051,0.946681 -0.717596,1.3762 -0.115151,0.178498 -0.209365,0.339354 -0.209365,0.357457 0,0.0181 0.239673,0.450708 0.532607,0.961343 l 0.532606,0.928428 -0.620923,0.65055 c -0.341507,0.357803 -0.713775,0.750848 -0.827261,0.873433 l -0.206339,0.222883 -1.022604,-0.628543 c -0.562432,-0.345699 -1.038675,-0.628543 -1.058317,-0.628543 -0.01964,0 -0.229234,0.09182 -0.46576,0.204046 -0.407757,0.193471 -1.177612,0.475199 -1.298535,0.475199 -0.03082,0 -0.05604,0.01548 -0.05604,0.0344 0,0.0458 -0.448261,2.866252 -0.472829,2.975033 l -0.01918,0.08491 H 11.08332 9.8284607 Z m 1.9257753,-5.44218 c 0.83539,-0.146303 1.520297,-0.51834 2.185103,-1.186933 1.104754,-1.111047 1.674542,-2.797133 1.454761,-4.3048495 C 14.70792,7.2718823 13.847877,6.1916555 12.577037,5.8253038 12.153765,5.7032845 11.398073,5.7040758 10.945918,5.8270132 9.2899932,6.2772408 7.9591577,7.8729445 7.6402623,9.7905743 c -0.050456,0.3034087 -0.060568,0.5265797 -0.04531,0.9999997 0.021337,0.662052 0.077471,0.947368 0.2921302,1.484827 0.5768377,1.444275 1.9478569,2.248132 3.4004275,1.993741 z"
   id="path9053"
   inkscape:connector-curvature="0"
   transform="translate(-1.602,0.071)" /><path
   style="fill:#445500;stroke-width:0.03773585"
   d="m 22.785478,31.053207 c -0.320241,-0.514924 -0.640718,-1.033386 -0.71217,-1.152137 -0.07145,-0.118751 -0.155383,-0.216546 -0.186516,-0.217323 -0.06912,-0.0017 -0.826074,-0.173629 -0.907526,-0.2061 -0.04239,-0.0169 -0.233903,0.184914 -0.696247,0.733674 -0.457427,0.542922 -0.654312,0.7507 -0.696248,0.734764 -0.131282,-0.04989 -1.77545,-1.01794 -1.77545,-1.045347 0,-0.0163 0.201909,-0.433194 0.448688,-0.926422 l 0.448688,-0.896778 -0.225471,-0.263297 c -0.124008,-0.144814 -0.311144,-0.39213 -0.415856,-0.549593 l -0.190386,-0.286296 -1.071839,-0.08962 c -0.589512,-0.04929 -1.088273,-0.09978 -1.108358,-0.112192 -0.0269,-0.01663 -0.451504,-1.802602 -0.451504,-1.899122 0,-0.0084 0.396661,-0.165241 0.881468,-0.348529 l 0.881469,-0.333251 0.02356,-0.605366 c 0.01296,-0.332951 0.04584,-0.726786 0.07306,-0.875189 l 0.0495,-0.269824 -0.671513,-0.729757 c -0.369332,-0.401366 -0.671316,-0.738436 -0.671076,-0.749044 0.002,-0.08672 0.646663,-1.568411 0.685305,-1.574998 0.02756,-0.0047 0.457655,0.08185 0.955768,0.192319 l 0.905661,0.20086 0.40231,-0.418734 c 0.22127,-0.230304 0.477135,-0.47752 0.568589,-0.54937 l 0.166279,-0.130637 -0.0026,-1.15037 -0.0026,-1.15037 1.02108,-0.438811 1.02108,-0.43881 0.512122,0.983968 0.512123,0.983968 0.390609,0.0054 c 0.481327,0.0067 0.818215,0.03864 1.10165,0.104526 l 0.216882,0.05042 0.645976,-0.693387 c 0.355287,-0.381363 0.653813,-0.693387 0.66339,-0.693387 0.05843,0 2.197328,1.234156 2.197678,1.268072 2.26e-4,0.02291 -0.151831,0.453561 -0.337925,0.956999 l -0.338355,0.91534 0.145852,0.175077 c 0.217006,0.260491 0.556809,0.799321 0.701315,1.112086 l 0.127434,0.275813 0.927675,0.127451 c 0.850578,0.116859 0.929197,0.133889 0.945974,0.20491 0.0796,0.336974 0.356761,1.610715 0.356761,1.639577 0,0.02002 -0.399275,0.313524 -0.887277,0.652234 -0.567003,0.393543 -0.892682,0.643079 -0.902252,0.691309 -0.0082,0.04151 -0.05133,0.259538 -0.09576,0.484509 -0.04443,0.224971 -0.147068,0.597204 -0.228077,0.827184 -0.08101,0.22998 -0.136151,0.436479 -0.12254,0.458887 0.01361,0.02241 0.263298,0.300418 0.554858,0.617803 0.291559,0.317384 0.534968,0.590924 0.540907,0.607867 0.0059,0.01694 -0.203812,0.388751 -0.466114,0.826239 l -0.476912,0.795433 -0.869412,-0.299527 c -0.478176,-0.16474 -0.893072,-0.299528 -0.921992,-0.299528 -0.02892,0 -0.151755,0.07936 -0.272969,0.176355 -0.121215,0.09699 -0.379586,0.275091 -0.574159,0.395769 -0.194573,0.120678 -0.374064,0.232356 -0.398869,0.248174 -0.03477,0.02217 -0.02854,0.288156 0.02718,1.160835 0.03976,0.622641 0.07279,1.166933 0.0734,1.209537 0.001,0.0706 -0.08,0.09531 -0.913975,0.278816 -0.503302,0.110744 -0.934241,0.208508 -0.957642,0.217254 -0.0234,0.0087 -0.304563,-0.405401 -0.624805,-0.920325 z m 0.403201,-4.443813 c 1.376232,-0.461177 2.325971,-2.049891 2.233053,-3.735426 -0.07646,-1.386958 -0.84114,-2.539805 -1.918804,-2.892823 -0.236012,-0.07731 -0.348366,-0.09034 -0.767079,-0.08896 -0.454729,0.0015 -0.512916,0.01013 -0.796513,0.118045 -0.392031,0.149178 -0.6853,0.338008 -1.009581,0.650049 -0.487109,0.468722 -0.846997,1.097814 -1.027632,1.796321 -0.130612,0.505069 -0.163202,1.246804 -0.07659,1.743207 0.226682,1.299228 1.058503,2.265392 2.155601,2.503741 0.286737,0.0623 0.87832,0.01617 1.207547,-0.09416 z"
   id="path9055"
   inkscape:connector-curvature="0"
   transform="translate(-1.602,0.071)" /></svg>