<?xml version="1.0" encoding="UTF-8" standalone="no"?>
<!-- Generator: Adobe Illustrator 16.0.0, SVG Export Plug-In . SVG Version: 6.00 Build 0)  -->

<svg
   xmlns:dc="http://purl.org/dc/elements/1.1/"
   xmlns:cc="http://creativecommons.org/ns#"
   xmlns:rdf="http://www.w3.org/1999/02/22-rdf-syntax-ns#"
   xmlns:svg="http://www.w3.org/2000/svg"
   xmlns="http://www.w3.org/2000/svg"
   xmlns:sodipodi="http://sodipodi.sourceforge.net/DTD/sodipodi-0.dtd"
   xmlns:inkscape="http://www.inkscape.org/namespaces/inkscape"
   version="1.1"
   id="Capa_1"
   x="0px"
   y="0px"
   width="32px"
   height="32px"
   viewBox="0 -0.841 32 32"
   enable-background="new 0 -0.841 32 32"
   xml:space="preserve"
   sodipodi:docname="download.svg"
   inkscape:version="0.92.4 (5da689c313, 2019-01-14)"><metadata
   id="metadata4877"><rdf:RDF><cc:Work
       rdf:about=""><dc:format>image/svg+xml</dc:format><dc:type
         rdf:resource="http://purl.org/dc/dcmitype/StillImage" /><dc:title></dc:title></cc:Work></rdf:RDF></metadata><defs
   id="defs4875" /><sodipodi:namedview
   pagecolor="#ffffff"
   bordercolor="#666666"
   borderopacity="1"
   objecttolerance="10"
   gridtolerance="10"
   guidetolerance="10"
   inkscape:pageopacity="0"
   inkscape:pageshadow="2"
   inkscape:window-width="1920"
   inkscape:window-height="1017"
   id="namedview4873"
   showgrid="false"
   inkscape:zoom="45.254834"
   inkscape:cx="27.079891"
   inkscape:cy="25.511771"
   inkscape:window-x="-8"
   inkscape:window-y="-8"
   inkscape:window-maximized="1"
   inkscape:current-layer="Capa_1" />
<path
   d="M31.934,15.945h0.002c0,0-0.004-0.013-0.008-0.02c-0.023-0.085-0.052-0.157-0.089-0.21  c-0.754-1.762-5.821-13.521-6.979-13.983c-0.514-0.206-3.816,0.201-7.6,0.812L17.566,0l-5.197,0.73l0.42,2.593  C8.795,4.066,5.253,4.861,4.822,5.239c-0.907,0.794-4.128,13.59-4.726,15.988c-0.011,0.015-0.027,0.027-0.033,0.041  c-0.036,0.079-0.054,0.192-0.06,0.331C0.001,21.607,0,21.613,0,21.613l0.003-0.002c-0.064,1.812,2.253,8.084,3.065,8.55  c0.876,0.501,25.045-0.251,25.922-1.254C29.803,27.979,32.454,17.903,31.934,15.945z M22.455,16.167c0,0-0.801,3.75-1.354,4.226  C20.225,21.144,9.956,23.146,9.08,22.58c-0.542-0.352-1.273-2.487-1.755-4.07c-2.282,0.681-3.214,1.337-4.512,1.854  C3.897,15.31,5.86,7.53,6.526,6.948c0.401-0.352,2.686-1.09,6.4-1.782l0.731,3.51c-1.978,0.368-3.621,0.831-3.725,1.071  c-0.243,0.567,4.589,7.959,5.523,7.879c0.934-0.082,5.682-8.653,5.115-9.099c-0.566-0.443-2.188-0.46-4.002-0.276l0.584-3.82  c3.548-0.575,5.646-0.956,6.13-0.765c0.792,0.316,5.872,11.442,5.872,11.442L22.455,16.167z"
   id="path4870" />
<path
   style="fill:#668000;stroke:#668000;stroke-width:0.08838835"
   d="M 3.2377831,30.990947 C 2.9110641,30.888221 2.5644592,30.342337 1.9461773,28.956738 1.3348242,27.586667 0.4150658,24.775913 0.18923167,23.587566 L 2.927938e-4,22.593364 0.76078957,19.624219 C 2.507754,12.80369 3.846248,8.2117378 4.5274255,6.7020761 4.7497514,6.2093457 4.8254414,6.1255615 5.1965416,5.9614062 5.7862902,5.7005324 7.9872823,5.159823 10.57409,4.6403245 11.788502,4.3964386 12.79434,4.1846681 12.809284,4.1697233 12.824229,4.1547785 12.741094,3.5772036 12.624538,2.8862237 12.476737,2.0100114 12.442284,1.6202668 12.510664,1.5980693 c 0.220899,-0.071708 4.917874,-0.68698001 4.955693,-0.64916172 0.02254,0.0225434 -0.02219,0.56780122 -0.09941,1.21168412 -0.07722,0.6438829 -0.121183,1.1899105 -0.0977,1.2133946 0.02348,0.023484 0.833997,-0.076002 1.801137,-0.2210794 3.41221,-0.5118546 5.440088,-0.6928847 5.78011,-0.5159944 0.706358,0.3674707 3.103776,5.1090187 6.327878,12.5151055 l 0.743189,1.70718 v 0.814949 c 0,2.187833 -1.609687,9.102072 -2.67229,11.478536 -0.261969,0.585883 -0.281311,0.605478 -0.720897,0.730276 -1.246527,0.35389 -5.592354,0.710603 -12.472521,1.023766 -2.788129,0.126907 -12.4797769,0.190587 -12.8180699,0.08422 z M 12.69852,23.256972 c 3.883686,-0.562988 7.930543,-1.555437 8.446528,-2.071422 0.299841,-0.299839 0.545394,-0.97125 0.988407,-2.702577 0.19903,-0.777817 0.365038,-1.421112 0.368909,-1.429544 0.0039,-0.0084 1.478434,-0.24397 3.276807,-0.523416 1.798373,-0.279447 3.300946,-0.534419 3.339052,-0.566604 C 29.23988,15.860651 25.625702,8.30685 24.403111,6.1086046 23.746208,4.9274757 23.488371,4.5772379 23.193112,4.464981 22.90541,4.3555968 21.904443,4.4648929 19.193639,4.9016855 l -2.077126,0.334688 -0.294648,1.9239659 c -0.162056,1.0581812 -0.281381,1.9342807 -0.265165,1.9468878 0.01622,0.012607 0.467005,-0.00353 1.001755,-0.035863 1.163198,-0.070328 2.414671,0.028113 2.783748,0.2189696 0.228288,0.1180524 0.259187,0.1737102 0.210231,0.3786811 -0.419494,1.7563731 -3.576941,7.3780291 -4.797795,8.5422061 -0.253504,0.241735 -0.2864,0.250425 -0.505038,0.133413 -0.893954,-0.47843 -4.600256,-5.755913 -5.169329,-7.360719 -0.1099895,-0.310174 -0.1060023,-0.350147 0.04601,-0.461304 0.243215,-0.177844 0.819899,-0.354217 2.261451,-0.6916474 C 13.281664,9.6217187 13.666538,9.4946089 13.660014,9.4107763 13.647174,9.2457641 12.98491,6.027354 12.95632,5.991029 12.88213,5.8967638 9.0203243,6.7960286 7.8357366,7.1834145 6.4415195,7.6393537 6.3809603,7.7001009 5.8672562,9.1580025 5.292747,10.788471 4.1469352,15.13073 3.2433698,19.101692 3.022136,20.073963 2.820825,20.958182 2.796012,21.066622 c -0.054784,0.239419 -0.059896,0.241043 1.468656,-0.466336 1.0614145,-0.491198 2.3972352,-1.025309 2.8226702,-1.12861 0.2161566,-0.05248 0.2337467,-0.02324 0.5103173,0.848489 0.5804204,1.829435 1.1469547,2.988158 1.5459662,3.161937 0.2838945,0.123644 1.8200203,0.02636 3.5548983,-0.22513 z"
   id="path8943"
   inkscape:connector-curvature="0"
   transform="translate(0,-0.841)" /><path
   style="fill:#668000;stroke:#668000"
   id="path8947"
   d="m 15.575443,2.8032256 c 0.05853,0.1155752 0.09681,0.2390096 0.123925,0.3652497 0.01876,0.093855 0.02235,0.1895387 0.02327,0.2849372 1.72e-4,0.049625 -1.96e-4,0.099249 -3.75e-4,0.1488729 -1.45e-4,0.043545 -1.69e-4,0.08709 -1.86e-4,0.1306355 -6e-6,0.029278 -4e-6,0.014631 -6e-6,0.043941 -8.9e-5,0.921875 -1.303817,0.9217496 -1.303729,-1.254e-4 v 0 c 3e-6,-0.029535 10e-7,-0.014762 7e-6,-0.044321 1.8e-5,-0.044947 4.4e-5,-0.089893 1.94e-4,-0.1348397 1.61e-4,-0.044384 4.63e-4,-0.088768 4.13e-4,-0.1331532 -1.3e-5,-0.00206 -0.0037,-0.056056 0.0022,-0.039201 0.0046,0.00802 -0.0078,-0.037507 -0.01182,-0.038951 -0.412275,-0.8245501 0.753815,-1.407595 1.16609,-0.583045 z"
   inkscape:connector-curvature="0" /><path
   style="fill:#668000;stroke:#668000"
   id="path8949"
   d="m 14.29126,2.4024192 c 0.03656,0.070866 0.134842,0.2199267 0.129561,0.2972483 -0.0076,0.1114673 -0.0364,0.2215138 -0.07251,0.3272447 -0.01088,0.03186 -0.07409,0.1094288 -0.06551,0.076873 0.0097,-0.036845 0.04615,-0.060644 0.06922,-0.090965 0.05675,-0.3075145 0.05143,-0.025767 0.05011,0.047086 -0.0024,0.1011207 0.0024,-0.00427 -0.02739,-0.1220028 -0.0045,-0.01779 -0.01539,-0.033499 -0.02569,-0.048683 -0.01314,-0.019369 -0.05852,-0.073081 -0.04431,-0.054481 0.110987,0.1452642 0.06161,0.058683 0.127285,0.1955016 0.03916,0.096894 0.04605,0.1960389 0.03658,0.2988032 -0.0013,0.01423 -0.0046,0.056404 -0.0069,0.042305 C 14.418162,3.108351 14.396257,3.0751398 14.44,3.1442059 c 0.01276,0.033913 0.06166,0.129419 0.03828,0.1017377 -0.03196,-0.056649 -0.06393,-0.1132976 -0.09589,-0.1699464 0.01689,0.019962 0.07261,0.074094 0.05066,0.059886 -0.05602,-0.036261 -0.2066,-0.085333 -0.154613,-0.1271703 0.05243,-0.042191 0.120989,0.067955 0.160556,0.1223876 0.04965,0.068307 0.06545,0.155696 0.09817,0.233544 -0.004,-0.020202 -0.01894,-0.041276 -0.01186,-0.060606 0.0061,-0.016573 0.01157,0.033422 0.01551,0.050626 0.0067,0.029075 0.01304,0.05834 0.01623,0.087997 0.0031,0.028655 0.01132,0.1138571 0.0025,0.086422 -0.02293,-0.1526512 -0.04222,-0.1931999 -0.01607,-0.1337428 -0.323191,-0.3096097 -0.08027,-0.1529933 -0.02423,-0.066786 0.02943,0.04528 0.06103,0.09031 0.08003,0.1408604 0.01317,0.035026 0.048,0.2742741 0.01739,0.070868 0.003,0.00935 0.01322,0.03688 0.009,0.028045 -0.0124,-0.025656 -0.02559,-0.051285 -0.03342,-0.078681 -0.0031,-0.010948 0.01353,0.018403 0.01903,0.028371 0.017,0.030777 0.03651,0.06063 0.04841,0.093717 0.04971,0.138273 0.03604,0.1412912 0.03076,0.2847533 -0.01935,-0.0956 -0.01458,-0.1994871 -0.05806,-0.2867988 -0.0308,-0.061852 -0.123166,-0.076976 -0.153909,-0.1388572 -0.02417,-0.048659 0.09758,0.053444 0.132257,0.095273 0.04957,0.059794 0.08898,0.1295075 0.114802,0.2027562 0.01822,0.05169 0.05533,0.2002693 0.01442,0.163792 -0.04448,-0.039667 -0.01911,-0.117661 -0.02866,-0.1764914 -0.10708,-0.080696 -0.204885,-0.1754579 -0.321238,-0.2420887 -0.02851,-0.016328 -0.06573,0.00313 -0.09856,0.00169 -0.0075,-3.29e-4 0.01445,-0.00529 0.02195,-0.00505 0.07731,0.00243 0.161703,-0.019955 0.231669,0.013015 0.102479,0.04829 0.196921,0.1247087 0.260122,0.218728 0.0463,0.068882 0.03385,0.1625096 0.05077,0.2437644 -0.006,0.03719 -0.0099,0.1483377 -0.01813,0.1115709 -0.145619,-0.6500839 0.233009,0.3354089 -0.170017,-0.4277121 -0.01598,-0.03026 0.06036,0.035312 0.0819,0.061905 0.149016,0.1839736 0.119611,0.1635915 0.145608,0.374075 -0.0039,0.027771 -0.0077,0.055563 -0.01174,0.083312 -8.56e-4,0.00585 -0.0033,0.011571 -0.003,0.017477 2.47e-4,0.00538 0.0039,-0.010524 0.0031,-0.015854 -0.0094,-0.06527 -0.05155,-0.2577729 -0.02965,-0.1955789 0.01829,0.051941 0.03534,0.1043106 0.05301,0.1564659 0.01478,0.074535 0.0075,0.1469209 -0.0012,0.2209662 -0.0087,0.074378 -0.02924,-0.1469437 -0.04034,-0.2209996 -0.0011,-0.00747 0.0075,0.013142 0.0112,0.019713 0.01482,0.037675 0.02826,0.075922 0.04446,0.1130253 0.007,0.016078 -0.02608,-0.064787 -0.01688,-0.049849 0.02744,0.044569 0.04736,0.1414135 0.05239,0.1839806 0.0039,0.033134 0.013,0.1310965 6.8e-4,0.1000903 -0.01765,-0.04442 -0.01164,-0.094884 -0.01746,-0.1423259 -0.0052,-0.012492 -0.02049,-0.050127 -0.01566,-0.037478 0.0097,0.025499 0.08915,0.2014083 0.05593,0.2259421 -0.03409,0.025175 -0.01751,-0.08312 -0.02139,-0.1253185 -0.0011,-0.01218 0.0096,0.022551 0.01302,0.034308 0.0089,0.031077 0.01587,0.062684 0.0238,0.094026 0.0075,0.1116155 0.0093,0.071285 0.0023,0.1613777 -5.62e-4,0.00717 1.84e-4,0.028279 -0.0022,0.02148 -0.03589,-0.103423 -0.04982,-0.2153468 -0.09903,-0.3131323 -0.0188,-0.037348 -0.06532,-0.052207 -0.09799,-0.07831 0,0 -0.365116,0.7426588 -0.365116,0.7426588 v 0 C 14.386191,5.0686824 14.321232,5.0516584 14.29137,5.0019751 14.2304,4.9005361 14.20922,4.7799222 14.172392,4.6674472 c -0.0023,-0.00701 -0.0016,-0.015678 0.0022,-0.022002 0.01232,-0.020582 -0.03672,0.181311 0.007,0.071628 0.0051,0.015675 0.01033,0.031287 0.01519,0.047026 0.0013,0.00431 -0.0035,-0.00835 -0.0046,-0.012734 -0.01361,-0.056418 -0.02343,-0.1137972 -0.0394,-0.1695954 -0.0084,-0.02922 0.008,0.060508 0.01653,0.089665 0.0067,0.022638 0.04405,0.082698 0.02886,0.064643 -0.01672,-0.019869 -0.0224,-0.046854 -0.0336,-0.070282 -0.01128,-0.062063 -0.02164,-0.1242979 -0.03383,-0.186189 -0.0022,-0.011118 0.0014,0.022718 0.0038,0.033778 0.0054,0.024321 0.01203,0.048406 0.01978,0.072089 0.0025,0.0076 0.01373,0.02888 0.01081,0.021431 -0.02992,-0.076293 -0.06869,-0.1578112 -0.0079,-0.026451 -0.0542,-0.095377 -0.02946,-0.047249 -0.07526,-0.2793468 -0.0027,-0.013452 0.0025,-0.027307 0.004,-0.040936 2.94e-4,-0.00268 8.89e-4,-0.010633 0.0013,-0.00798 0.0011,0.00657 4.87e-4,0.013335 7.3e-4,0.020003 0.0025,0.014287 0.0051,0.028574 0.0076,0.042861 0.01329,0.03036 0.02862,0.059905 0.03986,0.091081 0.0045,0.012514 -0.01606,-0.02195 -0.01956,-0.034784 -0.02222,-0.081505 -0.04356,-0.1635274 -0.05723,-0.2468929 -0.0033,-0.020167 0.004,-0.04068 0.0067,-0.060938 0.0014,-0.010183 -0.0017,-0.037734 0.0054,-0.030343 0.0078,0.00809 -0.0015,0.022431 -0.0022,0.033647 0.03086,0.167646 0.0051,0.1361308 0.133336,0.2855544 0.0126,0.014679 0.05972,0.047795 0.04827,0.032211 C 13.970615,4.0042421 14.067472,4.2992078 14.033,3.9051431 c -0.0015,-0.017699 -0.0028,0.035427 -0.0041,0.05314 0.05969,0.2102998 0.03122,0.2536249 0.288796,0.3611466 0.05526,0.023068 0.119806,-0.00426 0.179642,-0.00185 0.01161,4.662e-4 -0.02245,0.00642 -0.034,0.0077 -0.05007,0.00554 -0.104788,0.033714 -0.150587,0.012737 -0.131455,-0.060209 -0.238403,-0.1636662 -0.357604,-0.2454994 -0.01384,-0.068469 -0.0238,-0.1378377 -0.04152,-0.2054061 -0.0096,-0.036787 0.0019,0.077964 0.01723,0.1127842 0.02527,0.057535 0.0597,0.1120624 0.101956,0.1585699 0.02688,0.029581 0.129023,0.093164 0.100941,0.064722 -0.0577,-0.058435 -0.150391,-0.08432 -0.190848,-0.155781 -0.05116,-0.090371 -0.04621,-0.2024922 -0.06931,-0.3037383 0.002,0.1022232 -0.008,0.09316 0.03063,0.1859554 0.0045,0.01069 0.02573,0.03852 0.01939,0.02883 -0.03655,-0.055846 -0.0749,-0.1128596 -0.09253,-0.1780337 -0.06879,-0.3122773 -0.01374,-0.054384 -0.0023,-0.029004 0.0061,0.013525 0.0428,0.082094 0.0741,0.107005 0.01632,0.012987 0.06249,0.054471 0.04974,0.03796 -0.05193,-0.067268 -0.112188,-0.1276728 -0.168281,-0.1915092 -0.04018,-0.093164 0.0044,0.015271 -0.05205,-0.2188336 -0.0032,-0.013266 0.0014,0.027317 0.0038,0.040762 0.0023,0.012997 0.0064,0.025607 0.0099,0.038307 1.5e-4,5.354e-4 2.41e-4,-0.00109 3.62e-4,-0.00163 -0.0099,-0.036643 -0.0197,-0.073286 -0.02955,-0.1099297 0.03103,0.06507 0.04824,0.1387651 0.09308,0.1952113 0.03596,0.045265 0.183403,0.1400783 0.141572,0.1001759 -0.05533,-0.05278 -0.119435,-0.095735 -0.182401,-0.1391225 -0.01346,-0.00927 0.04094,0.050521 0.03305,0.036211 -0.03661,-0.066392 -0.07652,-0.1310924 -0.119733,-0.1933922 -0.01206,-0.01739 0.01722,0.038668 0.02582,0.058002 -0.06054,-0.1173444 -0.01585,-0.021344 -0.06105,-0.3056057 -1.84e-4,-0.00115 2.4e-5,0.00234 2.9e-5,0.00351 6.5e-5,0.015367 -0.0014,0.030815 1.82e-4,0.0461 0.0017,0.016264 0.005,0.0324 0.0096,0.048107 0.0031,0.010627 0.0088,0.020316 0.01314,0.030474 0.02196,0.033659 0.106564,0.1199559 0.07688,0.092871 -0.114847,-0.1047754 -0.180692,-0.2474452 -0.172135,-0.4071219 0.0019,-0.036371 -0.0028,-0.072505 -0.0046,-0.1088179 -0.0071,-0.1496469 -0.0061,-0.075441 0.04154,-0.2874189 0.0286,-0.04137 0.05869,-0.08175 0.0858,-0.1241111 0.01117,-0.017446 -0.03273,0.029192 -0.03789,0.049252 -0.131126,0.509889 -0.06603,0.149686 -0.02029,0.3703765 0.01271,0.061305 -0.14905,-0.3885266 -0.08839,-0.1657281 0,0 0.74019,-0.370095 0.74019,-0.370095 z"
   inkscape:connector-curvature="0" /><path
   style="fill:#668000;stroke:#668000"
   id="path8951"
   d="m 14.584077,2.7685782 c -0.0046,0.047726 0.0092,0.090396 0.02413,0.1348901 0.0272,0.065932 0.04378,0.1367822 0.07531,0.2009502 0.02155,0.058547 0.04524,0.1155317 0.06589,0.1606272 0.01744,0.044774 0.02379,0.051844 0.05738,0.1316604 -6.6e-4,-0.00195 -0.0029,-0.00772 -0.002,-0.00585 0.02214,0.047363 0.03792,0.095744 0.05399,0.1453986 0.0075,0.023175 -0.01623,-0.045967 -0.02571,-0.068406 0.04663,0.081021 0.07136,0.1711582 0.09316,0.261263 0.0033,0.01662 0.0066,0.033239 0.0099,0.049859 -7.86e-4,-0.00495 -0.0073,-0.015837 -0.0024,-0.014854 3.04e-4,6.07e-5 0.01404,0.049359 -0.0012,-0.00496 0.277536,0.7302916 -0.755253,1.1227856 -1.032788,0.392494 v 0 c -0.01986,-0.056809 -0.04089,-0.1143977 -0.05014,-0.1741882 -4.65e-4,-0.011636 -0.0085,-0.022203 -0.0087,-0.033848 -1.74e-4,-0.017099 0.01143,0.032303 0.01881,0.047726 0.0018,0.00386 0.0081,0.015078 0.0062,0.011235 -0.003,-0.00605 -0.0063,-0.011916 -0.0094,-0.017874 -0.04259,-0.090291 -0.03083,-0.058253 -0.05948,-0.142663 -0.0031,-0.00918 0.0062,0.018503 0.01115,0.026855 0.0012,0.00203 -0.0018,-0.00437 -0.0027,-0.00656 -0.0069,-0.015083 -0.01371,-0.030167 -0.02057,-0.04525 -0.0083,-0.0194 -0.0304,-0.06356 -0.01028,-0.025966 0.0023,0.0043 -0.0043,-0.00877 -0.0063,-0.013201 -0.0095,-0.020606 -0.01893,-0.04121 -0.02817,-0.061915 -0.0011,-0.0024 0.0024,0.00466 0.0037,0.00699 -0.02597,-0.057707 -0.05219,-0.1153089 -0.07245,-0.1753202 -0.04492,-0.1051638 -0.08332,-0.212855 -0.119851,-0.3212027 -0.0441,-0.1489203 -0.07773,-0.3014465 -0.0724,-0.4578843 0,-0.78125 1.104854,-0.78125 1.104854,0 z"
   inkscape:connector-curvature="0" /><path
   style="fill:#668000;stroke:#668000"
   id="path8953"
   d="m 14.742285,1.3106581 c 0.04423,0.1059149 0.0995,0.2063641 0.149137,0.3096964 0.06095,0.1369243 0.107173,0.2796134 0.15824,0.4203542 0.05387,0.1449734 0.103475,0.2914086 0.149495,0.4390456 0.04216,0.1452471 0.07774,0.2922786 0.117436,0.4382366 0.03268,0.1154878 0.06083,0.2321937 0.0794,0.3507934 0.0079,0.06401 0.01192,0.1278133 0.02364,0.1911879 0.01,0.052039 0.01304,0.1049491 0.01461,0.1577983 9.52e-4,0.04569 7.75e-4,0.091394 7.2e-4,0.1370917 -0.0013,0.040277 -0.0099,0.079629 -0.01575,0.1193307 -0.04415,0.2935738 -0.459326,0.2311376 -0.415177,-0.062436 v 0 c 9.7e-5,-6.397e-4 0.0086,-0.067641 0.01109,-0.0574 5e-5,-0.041518 2.15e-4,-0.08304 -5.48e-4,-0.1245528 -8.44e-4,-0.031299 -0.0019,-0.062713 -0.0078,-0.093555 -0.01247,-0.067511 -0.01918,-0.1353241 -0.02574,-0.203616 C 14.965568,3.229543 14.939338,3.1285317 14.911468,3.0281743 14.873104,2.887124 14.8385,2.7451017 14.798303,2.6045958 14.754277,2.4630996 14.706607,2.3228277 14.654993,2.1839059 14.60861,2.0560629 14.566459,1.9265626 14.512688,1.8015463 14.461751,1.6945256 14.404184,1.5907709 14.358626,1.4811731 14.238054,1.2098853 14.621713,1.0393703 14.742285,1.3106581 Z"
   inkscape:connector-curvature="0" /><path
   style="fill:#222b00;stroke:#668000"
   id="path8961"
   d="m 15.338414,2.2994412 c 0.09454,0.0224 0.182043,0.061966 0.261586,0.1172782 0.05246,0.039723 0.09696,0.086348 0.135224,0.1395395 0.02929,0.063631 0.02662,0.051289 0.06004,0.1072997 0.03315,0.059104 0.05565,0.1219184 0.06985,0.1880054 0.0045,0.047583 0.01513,0.093816 0.02273,0.140954 0.0081,0.026666 0.01984,0.049717 0.03304,0.090647 0.01783,0.060959 0.02063,0.124415 0.02204,0.1874597 7.05e-4,0.050501 4.45e-4,0.1010094 3.23e-4,0.1515136 0.0032,0.065685 -0.0047,0.1300595 -0.01894,0.1940375 -0.01447,0.058769 -0.02968,0.1167275 -0.05167,0.173176 -0.01487,0.029059 -0.02055,0.060963 -0.0295,0.092164 -0.01344,0.04317 -0.02438,0.08699 -0.03652,0.1305264 -0.01152,0.055071 -0.03285,0.106955 -0.05125,0.1599217 -0.0093,0.039745 -0.01293,0.080401 -0.02155,0.1204759 -0.0081,0.043046 -0.01286,0.086227 -0.02371,0.1288058 -0.0066,0.036054 -0.01985,0.07054 -0.02656,0.1065526 -0.0046,0.030612 -0.005,0.061646 -0.0056,0.092535 -4.88e-4,0.042748 -2.96e-4,0.085501 -2.17e-4,0.128251 5.9e-5,0.029541 9e-5,0.059082 1.16e-4,0.088622 2.58e-4,0.2968749 -0.419586,0.2972405 -0.419845,3.656e-4 v 0 c -2.5e-5,-0.029405 -5.7e-5,-0.05881 -1.15e-4,-0.088215 -8.4e-5,-0.045734 -2.92e-4,-0.091472 2.97e-4,-0.1372034 0.0011,-0.056718 0.0033,-0.1136404 0.01424,-0.169478 0.0092,-0.042999 0.02234,-0.084427 0.03142,-0.127339 0.0052,-0.01901 0.01075,-0.075336 0.01976,-0.1122789 0.01264,-0.05678 0.01424,-0.11603 0.03589,-0.1709108 0.01626,-0.04557 0.03519,-0.089482 0.04401,-0.1374253 0.01421,-0.042168 0.02228,-0.086767 0.03612,-0.1291277 0.01367,-0.047532 0.02458,-0.096155 0.04675,-0.1407444 0.0014,0.015344 0.0095,-0.026347 0.01047,-0.030298 0.02479,-0.097618 -0.0096,0.030277 0.01424,-0.058738 0.0018,-0.00674 0.0037,-0.013443 0.0056,-0.020165 0.01338,-0.028964 0.0035,-0.063863 0.0067,-0.094526 1.15e-4,-0.047192 3.56e-4,-0.094387 -2.29e-4,-0.1415767 -4.84e-4,-0.024469 -7.99e-4,-0.048989 -0.0037,-0.073323 -0.0028,-0.01377 -0.0099,-0.025892 -0.01486,-0.038978 -0.01369,-0.035786 -0.0248,-0.071401 -0.03147,-0.1091903 -0.0063,-0.041345 -0.01699,-0.082064 -0.01967,-0.1239123 -0.0028,-0.020916 -0.01087,-0.040104 -0.02062,-0.058628 -0.0091,-0.016668 -0.062,-0.098012 -0.05932,-0.1053677 0.0019,-0.00521 0.006,0.00931 0.0091,0.013965 0.0037,0.00409 0.01543,0.015684 0.01158,0.01176 -0.0083,-0.00844 -0.02884,-0.028228 -0.0349,-0.035181 -0.0062,-0.00438 -0.01123,-0.010312 -0.01756,-0.014502 -0.02798,-0.018516 -0.06322,-0.025701 -0.09437,-0.036899 -0.289805,-0.064401 -0.198728,-0.4742482 0.09108,-0.409847 z"
   inkscape:connector-curvature="0" /><path
   style="fill:#22280b;stroke:#22280b"
   id="path9006"
   d="m 15.68227,1.658548 c 0.01992,0.09134 0.03611,0.1836066 0.03993,0.2771203 3.11e-4,0.043172 -0.002,0.086298 -0.0026,0.1294597 -4.17e-4,0.043513 -2.01e-4,0.08703 -1.22e-4,0.1305442 7.5e-5,0.044323 6.8e-5,0.088646 6.4e-5,0.1329697 -6e-6,0.044182 -8e-6,0.088363 -9e-6,0.1325452 0,0.051369 0,0.1027391 10e-7,0.1541086 0,0.044534 0,0.089067 0,0.1336004 0.0036,0.064003 -0.0084,0.106602 -0.05464,0.1522381 -0.01865,0.017638 -0.01516,0.042893 -0.01517,0.066739 0.0018,0.048592 0.0057,0.096422 -0.0023,0.1444961 -0.01518,0.036096 -0.01561,0.074884 -0.02439,0.1124076 -0.01351,0.031373 -0.01496,0.064358 -0.01546,0.097932 0.0028,0.065383 0.0029,0.094108 -0.03336,0.152763 -0.0094,0.015779 -0.01059,0.033237 -0.01182,0.051081 -0.0085,0.093364 -0.140537,0.081343 -0.132036,-0.012021 v 0 c 0.0039,-0.038242 0.01046,-0.075587 0.03116,-0.1088955 0.0031,-0.00506 0.0055,-0.010752 0.0094,-0.015175 0.0014,-0.0015 0.004,0.00838 0.0048,-8.457e-4 0.0019,-0.022885 -0.0026,-0.046275 -7.33e-4,-0.069198 8.58e-4,-0.044615 0.0036,-0.089521 0.02037,-0.1314699 0.0097,-0.015243 0.0058,-0.084392 0.02267,-0.1055668 0.0086,-0.0075 -0.0033,-0.099237 -9.49e-4,-0.1166875 8.92e-4,-0.06123 0.01052,-0.1201455 0.05835,-0.1634679 0.0018,-0.00106 0.0034,-0.00406 0.0053,-0.00317 0.0017,8.12e-4 -0.0013,0.00714 -1.69e-4,0.00563 0.0119,-0.016261 0.0043,-0.038045 0.0063,-0.056781 0,-0.044533 0,-0.089067 0,-0.1335998 0,-0.05137 -1e-6,-0.1027405 -1e-6,-0.1541108 1e-6,-0.044185 3e-6,-0.08837 1e-5,-0.1325555 4e-6,-0.04424 10e-6,-0.088479 -6.5e-5,-0.1327188 -8e-5,-0.04428 -3e-4,-0.088563 1.39e-4,-0.1328417 6.38e-4,-0.04076 0.0026,-0.081484 0.0027,-0.1222472 -0.0031,-0.085584 -0.01904,-0.169912 -0.03688,-0.253513 -0.02034,-0.091518 0.109088,-0.1202787 0.129426,-0.028761 z"
   inkscape:connector-curvature="0" /><path
   style="fill:#22280b;stroke:#22280b;stroke-width:0.71810389"
   id="path9008"
   d="m 13.125164,2.2051403 c 0.0086,0.1160776 0.0081,0.239871 0.01713,0.3550408 0.0054,0.060468 0.0053,0.1241472 0.005,0.1872059 -4.15e-4,0.062388 -5.28e-4,0.1247912 -5.28e-4,0.1871967 0.0013,0.027234 -0.0028,0.1459042 9.05e-4,0.1598225 4.53e-4,0.00507 6.42e-4,0.010857 0.0014,0.015213 4.15e-4,0.00216 -6.41e-4,-0.00958 -6.9e-5,-0.00803 0.0085,0.023549 0.01205,0.093126 0.01383,0.1294409 -5.66e-4,0.061313 0.0046,0.1169921 0.0069,0.1771767 -8.3e-4,0.057378 0.0031,0.098048 0.0094,0.1468225 0.0064,0.065496 0.01491,0.1272413 0.02074,0.1935683 0.0018,0.062949 0.005,0.096501 0.01183,0.150352 0.0054,0.039485 0.01181,0.077457 0.01634,0.1186014 0.0072,0.065192 10e-4,0.021486 0.0061,0.055834 0.0073,0.058314 0.0192,0.1032886 0.02741,0.1600344 0.0042,0.053744 0.01023,0.1006249 0.0196,0.1429258 0.01032,0.048266 0.01686,0.1045229 0.01916,0.1666422 0.0022,0.059661 -6.79e-4,0.025051 0.0019,0.052669 0.005,0.051302 0.01271,0.098014 0.01788,0.1497424 0.0097,0.061813 0.0092,0.1346527 0.01377,0.2017743 0.0042,0.056308 0.0058,0.1143169 0.0066,0.1726613 0.0016,0.1325607 -0.04669,0.1411384 -0.04825,0.00858 v 0 c -4.91e-4,-0.047564 -0.0019,-0.094572 -0.0055,-0.1403684 -0.0032,-0.060402 -0.0038,-0.1219674 -0.01189,-0.1771323 -0.0053,-0.059672 -0.01626,-0.1099205 -0.01966,-0.1725989 -0.0026,-0.050311 -0.0015,-0.10057 -0.01095,-0.1412544 -0.01106,-0.051947 -0.02078,-0.1089084 -0.02519,-0.1749946 -0.0073,-0.05922 -0.02214,-0.099929 -0.02785,-0.1633503 -0.0074,-0.059469 -0.01346,-0.1215851 -0.02282,-0.1775165 -0.007,-0.055803 -0.01321,-0.1107725 -0.01427,-0.1736523 -0.0047,-0.058313 -0.01308,-0.1108448 -0.01811,-0.168731 -0.0084,-0.06532 -0.01446,-0.1296462 -0.014,-0.2040175 -0.002,-0.058129 -0.0075,-0.1139006 -0.0067,-0.1732972 -0.0011,-0.047619 -0.01243,-0.075164 -0.0145,-0.1232639 -0.0032,-0.067542 -0.0022,-0.1354992 -0.0023,-0.2040645 3.5e-5,-0.063224 1.65e-4,-0.1264488 5.66e-4,-0.1896566 1.78e-4,-0.043895 8.3e-4,-0.088375 -0.003,-0.1304827 -0.0091,-0.1201825 -0.0099,-0.2468458 -0.01802,-0.3681902 -0.0074,-0.1295401 0.03974,-0.1702497 0.04715,-0.04071 z"
   inkscape:connector-curvature="0" /><path
   style="fill:#22280b;stroke:#22280b;stroke-width:0.9736681"
   id="path9008-2"
   d="m 16.7422,2.6288871 c -0.01581,0.1160776 -0.01489,0.239871 -0.03149,0.3550408 -0.0099,0.060468 -0.0097,0.1241472 -0.0092,0.1872059 7.63e-4,0.062388 9.71e-4,0.1247912 9.71e-4,0.1871967 -0.0024,0.027234 0.0051,0.1459042 -0.0017,0.1598225 -8.32e-4,0.00507 -0.0012,0.010857 -0.0026,0.015213 -7.63e-4,0.00216 0.0012,-0.00958 1.26e-4,-0.00803 -0.01563,0.023549 -0.02215,0.093126 -0.02543,0.1294409 0.001,0.061313 -0.0085,0.1169921 -0.01268,0.1771767 0.0015,0.057378 -0.0057,0.098048 -0.01728,0.1468225 -0.01177,0.065496 -0.02741,0.1272413 -0.03813,0.1935683 -0.0033,0.062949 -0.0092,0.096501 -0.02175,0.150352 -0.0099,0.039485 -0.02171,0.077457 -0.03004,0.1186014 -0.01324,0.065192 -0.0018,0.021486 -0.01121,0.055834 -0.01342,0.058314 -0.0353,0.1032886 -0.05039,0.1600344 -0.0077,0.053744 -0.01881,0.1006249 -0.03603,0.1429258 -0.01897,0.048266 -0.031,0.1045229 -0.03522,0.1666422 -0.004,0.059661 0.0012,0.025051 -0.0035,0.052669 -0.0092,0.051302 -0.02337,0.098014 -0.03287,0.1497424 -0.01783,0.061813 -0.01691,0.1346527 -0.02531,0.2017743 -0.0077,0.056308 -0.01066,0.1143169 -0.01213,0.1726613 -0.0029,0.1325607 0.08584,0.1411384 0.08871,0.00858 v 0 c 9.02e-4,-0.047564 0.0035,-0.094572 0.01011,-0.1403684 0.0059,-0.060402 0.007,-0.1219674 0.02186,-0.1771323 0.0097,-0.059672 0.02989,-0.1099205 0.03614,-0.1725989 0.0048,-0.050311 0.0028,-0.10057 0.02013,-0.1412544 0.02033,-0.051947 0.0382,-0.1089084 0.04631,-0.1749946 0.01342,-0.05922 0.0407,-0.099929 0.0512,-0.1633503 0.0136,-0.059469 0.02474,-0.1215851 0.04195,-0.1775165 0.01287,-0.055803 0.02428,-0.1107725 0.02623,-0.1736523 0.0086,-0.058313 0.02405,-0.1108448 0.03329,-0.168731 0.01544,-0.06532 0.02658,-0.1296462 0.02574,-0.2040175 0.0037,-0.058129 0.01379,-0.1139006 0.01232,-0.1732972 0.002,-0.047619 0.02285,-0.075164 0.02666,-0.1232639 0.0059,-0.067542 0.004,-0.1354992 0.0042,-0.2040645 -6.4e-5,-0.063224 -3.03e-4,-0.1264488 -0.001,-0.1896566 -3.27e-4,-0.043895 -0.0015,-0.088375 0.0055,-0.1304827 0.01673,-0.1201825 0.0182,-0.2468458 0.03313,-0.3681902 0.0136,-0.1295401 -0.07306,-0.1702497 -0.08668,-0.04071 z"
   inkscape:connector-curvature="0" /><path
   style="fill:#22280b;stroke:#22280b;stroke-width:0.02209709"
   d="m 15.255955,18.385609 c -0.497239,-0.247162 -2.012206,-2.146574 -3.477579,-4.360063 -0.928908,-1.403142 -1.550595,-2.495425 -1.744008,-3.064158 -0.080248,-0.235972 -0.077152,-0.335965 0.01301,-0.420191 0.183475,-0.171392 0.658606,-0.333665 1.797387,-0.6138691 1.431157,-0.3521452 1.697678,-0.4278228 1.756558,-0.4987691 0.02598,-0.031309 -0.09953,-0.6925372 -0.436078,-2.2973041 -0.200723,-0.957115 -0.19265,-0.914381 -0.165407,-0.8755368 0.02112,0.030117 0.322298,0.1571434 0.372954,0.1573003 0.01443,4.42e-5 0.08148,-0.037208 0.148991,-0.082783 0.107768,-0.072752 0.127119,-0.097414 0.15856,-0.2020896 0.03159,-0.1051777 0.03276,-0.1611552 0.0099,-0.4750874 -0.01426,-0.1957241 -0.04009,-0.4453551 -0.05741,-0.5547356 -0.06426,-0.4059416 -0.09777,-0.8128657 -0.119906,-1.4560465 -0.0125,-0.3633033 -0.03246,-0.6966726 -0.04435,-0.7408208 -0.01189,-0.044148 -0.06068,-0.118419 -0.108434,-0.1650465 l -0.08682,-0.084777 -0.184352,0.015611 c -0.101394,0.00859 -0.205589,0.029075 -0.231545,0.04553 -0.02596,0.016455 -0.06962,0.076256 -0.09704,0.1328917 -0.04792,0.098987 -0.04938,0.119347 -0.03782,0.5259514 0.0066,0.2326379 0.0074,0.398119 0.0017,0.3677355 -0.03374,-0.1807595 -0.211398,-1.3115439 -0.239321,-1.523294 -0.04145,-0.3143017 -0.04394,-0.6058988 -0.0055,-0.6378354 0.04668,-0.038744 1.604871,-0.261252 3.430333,-0.4898494 1.333546,-0.16699629 1.55483,-0.18930144 1.584423,-0.15970812 0.02924,0.0292438 -0.002,0.43480072 -0.104974,1.36332772 -0.04179,0.3767554 -0.0762,0.7347282 -0.07647,0.7954952 -6.49e-4,0.1464305 -0.02839,0.1904813 -0.06472,0.10277 -0.01502,-0.036268 -0.07422,-0.1054891 -0.13154,-0.1538257 -0.09815,-0.082764 -0.115177,-0.088797 -0.292181,-0.1035415 l -0.187955,-0.015656 -0.13127,0.091831 c -0.150155,0.1050419 -0.224428,0.2263677 -0.248508,0.4059394 -0.01027,0.076563 -0.01911,-0.042776 -0.02672,-0.360662 -0.0099,-0.414252 -0.0195,-0.512289 -0.07481,-0.76561 L 16.09164,1.9982095 15.923387,1.9840023 c -0.09254,-0.00781 -0.22668,-0.019723 -0.298091,-0.026464 -0.156025,-0.014729 -0.270151,0.027013 -0.396634,0.1450694 -0.152991,0.1427978 -0.156628,0.1618619 -0.158406,0.8302 -9.83e-4,0.3694145 -0.01137,0.6386967 -0.02727,0.7071068 -0.05741,0.2469425 -0.105036,0.5833728 -0.102885,0.7267222 0.0028,0.1877594 0.08013,0.3473346 0.215831,0.4454885 0.181475,0.1312616 0.368061,0.1523033 0.565367,0.063758 0.235032,-0.1054762 0.34699,-0.3088753 0.410178,-0.7451873 0.05033,-0.3475052 0.07357,-0.381093 0.07525,-0.1087354 0.0021,0.3347316 -0.06387,0.8878435 -0.139203,1.1677652 -0.144067,0.535334 -0.18726,0.7584224 -0.205818,1.0630308 -0.0151,0.2479036 0.0045,0.3369284 0.108978,0.4941452 0.05557,0.083643 0.09525,0.1136815 0.22266,0.1685477 l 0.15504,0.066765 0.168543,-0.047014 c 0.140855,-0.03929 0.181952,-0.061953 0.250165,-0.1379535 0.105747,-0.1178181 0.143197,-0.2109622 0.159954,-0.3978289 0.02276,-0.253751 0.134176,-0.7978723 0.158418,-0.7736305 0.0048,0.00485 -0.06102,0.4648885 -0.146375,1.0223076 -0.166657,1.0883587 -0.326477,2.1960227 -0.337482,2.3389943 l -0.0068,0.088068 0.243068,-0.00655 c 0.133688,-0.0036 0.402167,-0.015798 0.596622,-0.027103 0.194454,-0.011306 0.603187,-0.020644 0.908295,-0.020753 1.455163,-5.181e-4 2.262636,0.1839662 2.262636,0.5169472 0,0.039497 -0.02925,0.1754595 -0.065,0.3021395 -0.466734,1.6538999 -2.978897,6.2239449 -4.377098,7.9626739 -0.231804,0.288259 -0.540896,0.597834 -0.631171,0.632156 -0.08714,0.03313 -0.124066,0.02657 -0.276221,-0.04906 z"
   id="path9025"
   inkscape:connector-curvature="0"
   transform="translate(0,-0.841)" /><path
   style="fill:#22280b;stroke:#22280b"
   id="path9029"
   d="m 15.238653,2.5756997 c 0.01929,0.1804239 0.01983,0.3620981 0.02075,0.5433307 0.0094,0.2245325 -0.02606,0.4456249 -0.07797,0.6631144 -0.05867,0.1787733 -0.133654,0.3515599 -0.188634,0.5315918 -0.03887,0.1201151 -0.06618,0.2434629 -0.102298,0.3643231 -0.06488,0.2127878 -0.04115,0.1687744 -0.497243,0.093409 -0.02131,-0.00352 -0.03701,-0.1349823 -0.03989,-0.1539865 -0.0078,-0.1068106 -0.0032,-0.2140326 -0.002,-0.3210026 0.0011,-0.1319094 8.8e-4,-0.263826 8.02e-4,-0.3957388 -1.03e-4,-0.1316967 -1.36e-4,-0.2633934 -1.41e-4,-0.39509 8.37e-4,-0.1316443 -0.0032,-0.2632965 0.0049,-0.3947298 0.0078,-0.1293437 0.03903,-0.2546881 0.0751,-0.3785096 0.02886,-0.090038 0.0447,-0.1828411 0.06187,-0.2754786 0.01329,-0.066237 0.03281,-0.1304753 0.04658,-0.195425 0.0099,-0.056863 0.03043,-0.1107756 0.0529,-0.1635903 0.01007,-0.023673 0.0082,-0.013486 0.01,-0.025446 1.57e-4,-0.00404 -0.005,0.011907 -0.0044,0.00871 0.01121,-0.059486 0.01028,-0.053343 0.03573,-0.116369 0.01493,-0.036965 0.0087,-0.013574 0.01276,-0.029757 0.009,-0.017668 0.01781,-0.03539 0.02688,-0.053004 0.02035,-0.039537 0.05086,-0.07757 0.08589,-0.1053999 0.04132,-0.032831 0.08028,-0.049246 0.05265,-0.037339 -7.39e-4,1.804e-4 -0.0028,0.00101 -0.0022,5.412e-4 0.04161,-0.033083 0.03724,-0.028771 0.09001,-0.057936 0.0061,-0.00336 0.02456,-0.013039 0.01861,-0.00945 -0.02448,0.012778 -0.01487,0.00715 -0.02934,0.015971 0.04854,-0.044282 0.09127,-0.071611 0.138016,-0.1079014 0.03335,-0.025829 0.07052,-0.045009 0.106599,-0.066399 0.0016,-9.292e-4 -0.0035,0.00112 -0.0052,0.00167 0.009,-0.0057 0.01723,-0.01284 0.027,-0.017091 0.0085,-0.00368 -0.01534,0.010234 -0.023,0.015352 0.0085,-0.00694 0.01476,-0.018722 0.02554,-0.02083 0.01022,-0.002 -0.0155,0.013915 -0.0236,0.02045 -7.55e-4,6.088e-4 7.44e-4,-0.00184 0.0014,-0.00255 0.01325,-0.014179 0.02539,-0.029592 0.04027,-0.042048 0.03724,-0.031163 0.05259,-0.038486 0.08751,-0.057809 -0.02719,0.013213 -0.03745,0.027187 0.01047,-0.016477 0.0018,-0.00163 -0.0078,0.00571 -0.006,0.00403 0.04032,-0.038955 0.03482,-0.030935 0.09114,-0.067961 -0.02575,0.013065 -0.007,0.00265 -0.05202,0.041822 -0.0011,9.773e-4 -0.0041,0.00431 -0.0033,0.00305 0.01811,-0.028684 0.04228,-0.051794 0.06347,-0.078176 0.0046,-0.00533 0.0095,-0.010344 0.01372,-0.015992 0.0062,-0.00838 -0.02282,0.034577 -0.01889,0.024923 0.0075,-0.018449 0.03089,-0.058989 0.04128,-0.077481 0.0023,-0.00835 -0.0061,0.00964 -0.0049,0.00702 0.009,-0.020814 0.01764,-0.041911 0.02859,-0.061784 0.02241,-0.04066 0.01664,-0.022848 0.02188,-0.039774 -0.0018,0.00304 -0.0069,0.01234 -0.0054,0.00912 0.02567,-0.056796 0.03296,-0.063439 0.06898,-0.1189108 0.0044,-0.00677 -0.01561,0.011398 -0.01452,0.019402 0.01532,0.1122915 0.04183,0.2227695 0.06274,0.3341543 0.165968,0.062889 0.1084,0.041277 0.04079,0.045521 -0.0373,0.00234 -0.07484,0.01396 -0.111105,0.021891 -0.09683,0.023824 -0.187441,0.067148 -0.276239,0.1117505 -0.07018,0.038717 -0.128538,0.094838 -0.190792,0.1446233 -0.0026,0.00198 -0.04521,0.034727 -0.05148,0.040483 -0.002,0.00187 0.0052,-0.00218 0.0072,-0.00413 0.08402,-0.084329 -0.04514,0.042038 0.04163,-0.062749 0.0049,-0.00592 -0.0044,0.014717 -0.0066,0.022076 0.0019,0.015458 -0.04315,0.1374138 -0.02385,0.086031 -0.0061,0.057378 -0.03822,0.1083243 -0.04463,0.1652496 -0.0058,0.077747 -0.02996,0.1523718 -0.05915,0.224129 -0.01112,0.018874 -0.0083,0.029927 -0.0078,0.048901 0.0016,0.043117 0.0025,0.086244 0.0029,0.129388 1.73e-4,0.044993 -1.2e-5,0.089987 -7.6e-5,0.1349802 -5.1e-5,0.047353 -3.5e-5,0.094706 -3e-5,0.1420595 10e-7,0.00908 0.0085,0.023957 3e-6,0.027251 -0.0084,0.00327 -0.0023,-0.018236 -4.76e-4,-0.027067 9.39e-4,-0.00446 8.19e-4,0.00948 0.0034,0.013257 0.0019,0.00284 -0.0031,-0.01313 -0.0013,-0.010214 0.01139,0.018341 0.01516,0.040441 0.02216,0.060864 0.0076,0.029396 0.0112,0.0453 0.0209,0.071601 0.0015,0.00396 -0.005,-0.015852 -0.0025,-0.012416 0.0061,0.00851 0.01052,0.018077 0.01578,0.027115 0.0072,0.014965 0.03333,0.056728 0.02166,0.044894 -0.02292,-0.023251 -0.02733,-0.06518 -0.05637,-0.080099 -0.147139,-0.075585 -0.248341,-0.07989 -0.32772,0.00689 -0.01626,0.015617 -0.02283,0.061687 -0.02344,0.021514 -7.02e-4,-0.046413 7.5e-5,-0.00756 -0.0011,-0.058411 -0.009,-0.086784 0.02193,-0.1673759 0.0413,-0.2499369 0.0048,-0.026201 0.0028,-0.053019 0.0021,-0.079486 -0.0015,-0.045607 -0.0018,-0.091238 -0.0018,-0.1368654 3.02e-4,-0.060909 -0.0027,-0.1241622 0.01564,-0.1831226 0.0078,-0.024972 0.01811,-0.049072 0.02717,-0.073608 0.02189,-0.029226 0.04259,-0.059375 0.06566,-0.087679 0.07045,-0.086454 0.215399,-0.1160238 0.316646,-0.082987 0.05214,0.017012 0.08949,0.063424 0.134233,0.095136 0.07776,0.099547 0.115914,0.2219193 0.16143,0.3381099 0.02734,0.087287 0.06992,0.1680047 0.09996,0.2541338 0.06637,0.267308 0.02731,0.1169726 -0.461559,0.1238409 -0.0011,0.0036 4.99e-4,0.01166 -0.0032,0.010801 -4.83e-4,-1.136e-4 -3.82e-4,-0.036393 -6.94e-4,-0.053982 -0.006,-0.3593244 0.502131,-0.3678524 0.508161,-0.00853 v 0 c 8.57e-4,0.053443 0.0021,0.1071034 -0.0077,0.159967 -0.409034,0.032707 -0.464997,0.1956227 -0.509355,-0.018749 -0.02326,-0.1124017 -0.0077,-0.02283 -0.0079,-0.052898 -0.0091,-0.0332 -0.02576,-0.06149 -0.03965,-0.093201 -0.01947,-0.044416 -0.03446,-0.090666 -0.05132,-0.1360799 -0.02453,-0.062672 -0.05195,-0.1260971 -0.07158,-0.1897831 0.03384,0.019183 0.06349,0.049365 0.101524,0.057549 0.08477,0.01824 0.13559,0.00142 0.192608,-0.045354 0.0013,-0.00105 -0.0026,0.00204 -0.0039,0.00306 0.01269,-0.020115 0.02538,-0.040229 0.03807,-0.060344 0.0028,-0.010915 0.0055,-0.02184 0.0083,-0.032744 10e-4,-0.00408 0.0012,0.011906 -0.003,0.012263 -0.004,3.382e-4 -8.92e-4,-0.015878 -0.0012,-0.011902 -0.002,0.025055 0.0014,0.050526 -9e-5,0.075621 3.7e-5,0.041374 2.31e-4,0.082752 0.0016,0.1241076 0.0018,0.07203 6.22e-4,0.144364 -0.0168,0.2147842 -0.0042,0.01658 -0.01454,0.059657 -0.02104,0.077129 -4.96e-4,0.00133 -7.44e-4,-0.00546 -0.0012,-0.0041 -0.0019,0.00624 -5.8e-4,0.013403 -0.0035,0.019249 -0.0013,0.00265 -0.0016,-0.01166 -0.0017,-0.0087 -3.95e-4,0.011083 5.76e-4,0.022173 8.65e-4,0.033259 0.0024,0.1117733 0.0016,0.2215172 -0.05568,0.3221223 -0.04576,0.064589 -0.103373,0.1479716 -0.192231,0.1566216 -0.21481,0.020911 -0.2224,-0.031209 -0.313114,-0.1478507 -0.0331,-0.057653 -0.06427,-0.1167709 -0.07702,-0.1818191 -0.02037,-0.074929 -0.05837,-0.1412254 -0.0493,-0.2231657 -5e-6,-0.047609 -2.1e-5,-0.095217 3.1e-5,-0.1428253 6.1e-5,-0.043406 2.34e-4,-0.086812 9.1e-5,-0.1302173 -3.4e-4,-0.044352 -0.0017,-0.08867 -0.0029,-0.1330052 6.2e-4,-0.084397 0.01216,-0.1676851 0.04711,-0.2454142 0.0045,-0.00996 0.007,-0.020863 0.01223,-0.030449 6.26e-4,-0.00114 8.63e-4,0.005 0.0012,0.00373 0.0067,-0.029296 0.0105,-0.059447 0.01407,-0.089196 0.01068,-0.056255 0.02568,-0.1109035 0.04389,-0.1609228 0.004,-0.019124 0.0072,-0.038447 0.01212,-0.057373 0.003,-0.011685 0.0075,-0.022934 0.01153,-0.034317 0.0011,-0.00324 0.0042,-0.012949 0.0039,-0.00953 -6.84e-4,0.00896 -0.0067,0.035314 -0.0052,0.026448 0.0064,-0.039251 0.0068,-0.037497 0.0162,-0.074368 0.03459,-0.1147366 0.08485,-0.1797132 0.180468,-0.2475014 0.09036,-0.070266 0.174286,-0.1504451 0.278751,-0.2006176 0.126734,-0.063269 0.257005,-0.1218126 0.395594,-0.1538741 0.08879,-0.01927 0.17516,-0.034561 0.266349,-0.034196 0.01889,7.56e-5 0.03829,-0.00323 0.05667,0.00116 0.05122,0.012242 0.100272,0.032223 0.150408,0.048335 0.02549,0.1146434 0.06073,0.2275453 0.07646,0.34393 0.002,0.014671 -0.0123,0.029137 -0.02504,0.036684 -0.01107,0.00656 0.01178,-0.023006 0.01942,-0.033356 0.0012,-0.00162 -0.02345,0.041184 -0.02538,0.054812 -0.006,0.011214 -0.01195,0.022428 -0.01792,0.033642 1.05e-4,-7.97e-4 6.96e-4,-0.0031 3.15e-4,-0.00239 -0.0038,0.00706 -0.0046,0.016303 -0.01063,0.021562 -0.0047,0.00406 0.0084,-0.023287 0.006,-0.017562 -0.03118,0.07582 -0.0054,0.02245 -0.03677,0.083766 -0.02288,0.042783 -0.04813,0.099733 -0.09193,0.1462267 -0.0078,0.00873 -0.01425,0.018788 -0.0233,0.026177 -0.0049,0.00399 0.0079,-0.00999 0.01053,-0.015751 0.0023,-0.00514 -0.0065,0.00924 -0.0097,0.013865 -0.008,0.011404 -0.01455,0.023887 -0.02386,0.034215 -0.05341,0.059248 -0.04783,0.052174 -0.09909,0.08556 0.009,-0.00706 0.0183,-0.013811 0.02708,-0.021176 0.0012,-9.94e-4 0.0038,-0.00485 0.0027,-0.00379 -0.04011,0.037768 -0.07786,0.078145 -0.126427,0.1059792 -0.0045,0.00241 -0.01678,0.01097 -0.01336,0.00724 0.0086,-0.00938 0.0201,-0.015687 0.02924,-0.024547 0.005,-0.00481 0.01722,-0.021622 0.01285,-0.016272 -0.01708,0.020889 -0.04567,0.057411 -0.06429,0.068448 -0.04278,0.033859 -0.08659,0.065715 -0.134865,0.091074 -0.03669,0.028261 -0.06909,0.051422 -0.093,0.068687 -0.04795,0.043731 -0.03645,0.036937 -0.09653,0.07435 -0.07625,0.047475 0.07423,-0.060499 -0.03825,0.025238 -0.01195,0.00817 -0.02248,0.018963 -0.03586,0.02452 -0.0092,0.00384 0.01575,-0.012365 0.02305,-0.019196 0.01043,-0.00976 0.02315,-0.03508 0.02853,-0.042103 0.0011,-0.00143 -0.02628,0.049495 -0.0046,0.00277 -0.0052,0.012842 -0.01006,0.025784 -0.01546,0.038525 -0.0027,0.00645 -0.0043,0.024302 -0.0089,0.019044 -0.0052,-0.00588 0.0041,-0.01514 0.0056,-0.022845 4.4e-4,-0.00236 4.61e-4,-0.00957 3.3e-5,-0.0072 -0.01532,0.084556 0.0024,0.010433 -0.02,0.095489 -0.01627,0.044101 -0.03834,0.083611 -0.04619,0.1299974 -0.0085,0.036572 -0.0032,0.012848 -0.01477,0.071407 -0.0085,0.036931 -0.02579,0.070997 -0.0288,0.109218 -0.02072,0.1088775 -0.03975,0.218054 -0.07346,0.3239994 -0.02593,0.088979 -0.05084,0.1784265 -0.05603,0.2715719 -0.01,0.1193953 -1.43e-4,0.2397889 -0.0037,0.3594676 5e-6,0.1316024 3.8e-5,0.2632048 1.41e-4,0.3948071 7.9e-5,0.1339757 3.42e-4,0.267955 -8.36e-4,0.401927 -9.85e-4,0.084838 -0.0035,0.1697056 -0.0016,0.2545436 -0.0083,0.017334 0.0139,-0.026663 -0.01697,-0.025899 -0.149995,0.00371 -0.299738,0.019636 -0.448257,0.04096 -0.0084,0.00121 -0.0091,0.032865 -0.0075,0.02448 0.0031,-0.016374 0.0141,-0.050394 0.01933,-0.06726 0.03869,-0.1202868 0.06125,-0.2456779 0.102601,-0.3653073 0.05274,-0.1695439 0.117316,-0.3348001 0.180179,-0.500786 0.04329,-0.1775857 0.07277,-0.3579284 0.06384,-0.541539 -7.97e-4,-0.1633283 -7.33e-4,-0.3270895 -0.01765,-0.4897341 -0.03969,-0.357177 0.465439,-0.4133019 0.505125,-0.056125 z"
   inkscape:connector-curvature="0" /><path
   style="fill:#22280b;stroke:#22280b"
   id="path9031"
   d="m 16.208213,1.1980803 c 0,0.1692195 0,0.3384389 0,0.5076583 0,0.1419156 0,0.2838312 0,0.4257468 0,0.1146708 0,0.2293416 0,0.3440124 0,0.078699 0,0.157399 0,0.2360985 0,0.065172 0,0.1303438 0,0.1955157 0.0023,0.044519 -0.0029,0.089527 0,0.134006 8.4e-5,0.00129 0.0014,-0.00454 0.0019,-0.00336 0.0021,0.00451 0.0022,0.00969 0.0032,0.014541 0.01055,0.04169 0.01287,0.084532 0.01725,0.1270637 6.05e-4,0.00586 -0.0037,-0.012528 -7.91e-4,-0.017662 0.0022,-0.00387 0.0023,0.00857 0.0035,0.012849 -0.0041,-0.01259 -0.0092,-0.024894 -0.01226,-0.037769 -8.43e-4,-0.00353 0.0039,0.00616 0.0055,0.00941 0.0065,0.01299 0.01347,0.025784 0.01883,0.03928 0.01957,0.049319 0.01698,0.051768 0.02706,0.1024667 0.0018,0.00901 -0.0034,-0.018055 -0.005,-0.027083 0.0014,0.00366 0.0052,0.0147 0.004,0.010982 -0.0017,-0.00541 -0.0089,-0.020741 -0.0057,-0.016074 0.03308,0.047608 0.04308,0.1129718 0.05176,0.1685908 0.0062,0.074649 0.0026,0.1496426 0.0015,0.22443 -6.99e-4,0.052563 -5.59e-4,0.1051313 -4.9e-4,0.1576972 0.0077,0.089379 -0.01932,0.1733516 -0.04603,0.257139 -0.0091,0.069344 -0.03697,0.1312705 -0.07072,0.1919438 -0.02795,0.044962 -0.03217,0.049347 -0.04464,0.087584 -0.02561,0.059657 -0.05105,0.121113 -0.0967,0.169027 -0.0146,0.015328 -0.03007,0.029817 -0.0451,0.044725 -0.113416,-0.00355 -0.23653,0.035373 -0.340249,-0.010649 -0.127278,-0.056475 -0.08668,-0.3612992 -0.06963,-0.4654243 0.0279,-0.1472671 0.106405,-0.2765354 0.168864,-0.4108175 0.04474,-0.1004861 0.08128,-0.203966 0.113479,-0.3090028 0.02951,-0.095171 0.05765,-0.1907185 0.08637,-0.2861997 0.02106,-0.089716 0.05038,-0.1772186 0.08004,-0.2643791 0.02108,-0.063308 0.05085,-0.1228089 0.08195,-0.1816087 0.01534,-0.029007 0.01589,-0.017701 0.01414,-0.032357 0.0017,-0.00269 -0.0031,-0.00253 -0.0029,-0.00423 0.0049,-0.040873 0.01373,-0.080585 0.01656,-0.1217338 -0.0017,-0.044262 0.02457,-0.084647 0.02378,-0.1283256 -2.46e-4,-0.038109 -0.0011,-0.076211 -0.0015,-0.1143192 9.72e-4,0.013338 0.0019,0.026676 0.0029,0.040014 1.71e-4,0.00149 0.001,0.00589 5.15e-4,0.00447 -0.01602,-0.045497 -0.02213,-0.092488 -0.02598,-0.1402853 -0.0015,-0.028632 -0.0011,-0.057304 -7.82e-4,-0.085956 0.0044,-0.3593485 0.512564,-0.3531702 0.508195,0.00618 v 0 c -2e-4,0.015343 -4.41e-4,0.030687 -3.02e-4,0.046032 -7.2e-5,0.00152 3.14e-4,0.00313 -2.16e-4,0.00455 -2.96e-4,7.945e-4 -0.0026,-0.00458 -0.0023,-0.00315 0.0079,0.041994 0.0335,0.076555 0.02619,0.1228153 5.05e-4,0.048756 0.0022,0.097523 8.48e-4,0.1462768 -0.0023,0.036422 -0.0069,0.113161 -0.02334,0.1453275 -4.62e-4,9.015e-4 -9.27e-4,-0.0018 -0.0014,-0.0027 -0.0077,0.088377 -0.02021,0.1773862 -0.04407,0.2628054 -0.0084,0.020525 -0.01596,0.04137 -0.02506,0.061576 -0.02095,0.046527 -0.05179,0.088707 -0.06603,0.1383923 -0.02774,0.081466 -0.05492,0.1631806 -0.0745,0.2470966 -0.02902,0.096296 -0.05796,0.1924738 -0.08712,0.2886858 -0.03907,0.1273942 -0.08398,0.2527967 -0.13861,0.3744669 -0.01912,0.041058 -0.03744,0.080965 -0.05748,0.1216312 -0.01879,0.038124 -0.04555,0.077786 -0.05968,0.1182499 -0.0051,0.014593 -0.008,0.029866 -0.01197,0.0448 -0.0026,0.012638 -0.0058,0.025167 -0.0078,0.037913 -0.0062,0.039798 -0.0033,0.037844 -0.0042,0.078915 -8.7e-5,0.00369 0.001,0.014069 -10e-4,0.011011 -0.02813,-0.041759 -0.03046,-0.1139008 -0.07847,-0.1290585 -0.104046,-0.032848 -0.218216,6.304e-4 -0.327323,9.456e-4 -0.0084,0.0093 -0.01593,0.019452 -0.02519,0.027889 -0.0056,0.00507 0.01404,-0.025257 0.01403,-0.017722 -2e-5,0.031592 -0.03161,0.043864 0.0055,-0.014855 0.02374,-0.061085 0.05075,-0.1205406 0.0875,-0.1750188 -0.0024,0.007 -0.0084,0.028344 -0.0058,0.021401 0.01079,-0.029506 0.01307,-0.065623 0.0255,-0.1024442 0.0058,-0.018069 0.008,-0.037967 0.01816,-0.053996 0.0013,-0.00212 0.0034,0.00916 0.0036,0.00665 1.4e-5,-1.85e-4 -6e-5,-0.051636 -6.3e-5,-0.053618 -7.2e-5,-0.055172 -2.05e-4,-0.1103472 5.4e-4,-0.1655161 7.17e-4,-0.050814 0.0014,-0.1017014 0.0026,-0.1524706 0.02761,0.053058 -0.02514,-0.050084 -0.02728,-0.064848 -0.04164,-0.1541727 -0.01784,-0.062009 -0.01244,-0.048425 0.0026,0.00662 0.02424,0.055777 -0.0017,-10e-4 -0.01087,-0.023803 -0.02038,-0.048202 -0.03057,-0.072303 -0.01291,-0.050609 -0.0175,-0.101984 -0.02698,-0.1531184 -0.01489,-0.080383 -0.01676,-0.1607966 -0.01453,-0.2423449 0,-0.065172 0,-0.1303438 0,-0.1955157 0,-0.078699 0,-0.157399 0,-0.2360985 0,-0.1146708 0,-0.2293416 0,-0.3440124 0,-0.1419156 0,-0.2838312 0,-0.4257468 0,-0.1692194 0,-0.3384388 0,-0.5076583 0,-0.359375 0.508233,-0.359375 0.508233,0 z"
   inkscape:connector-curvature="0" /><path
   style="fill:#22280b;stroke:#22280b"
   id="path9039"
   d="m 13.799631,1.7726046 c 0,0.1230083 0,0.2460167 0,0.369025 0,0.087044 0,0.1740884 0,0.2611326 0,0.068268 0,0.1365362 0,0.2048043 0,0.048543 0,0.097085 0,0.1456277 0,0.046753 0,0.093506 0,0.1402583 0,0.059253 0,0.1185061 0,0.1777591 0,0.063195 0,0.1263908 0,0.1895862 0,0.052148 0,0.1042966 0,0.1564449 0.0049,0.012386 -0.0067,0.082342 -6.37e-4,0.014097 2.42e-4,-0.00274 0.0018,0.00522 0.0024,0.00789 0.0073,0.028885 0.0071,0.030514 0.01314,0.062345 0.0077,0.034567 0.0055,0.070136 0.0084,0.1050849 2.28e-4,0.00266 3.9e-4,-0.010523 0.0011,-0.00794 0.0018,0.00654 0.01024,0.065463 0.0107,0.068608 0.0093,0.053427 0.0068,0.1077932 0.0103,0.1615928 2.77e-4,0.00425 -0.0019,-0.00942 7.59e-4,-0.012769 0.0019,-0.00237 0.0016,0.00581 0.0024,0.00871 -0.0012,-0.0061 -0.0099,-0.017721 -0.0037,-0.018287 0.01223,-0.00112 0.0417,0.1548295 0.04392,0.168611 0.0022,0.010868 0.0039,0.021865 0.0067,0.032604 10e-4,0.00398 -0.005,-0.014251 -0.0014,-0.012252 0.0047,0.00261 0.0043,0.00985 0.0061,0.014884 0.0042,0.011177 0.0085,0.022315 0.01192,0.033723 0.01228,0.040453 0.0104,0.059368 0.0119,0.041017 0.01333,0.047122 0.02462,0.076109 0.03842,0.123765 0.0022,0.00748 -0.0043,-0.01498 -0.0064,-0.022471 0.02398,0.062364 0.02733,0.053485 0.05856,0.1212637 0.01955,0.040991 0.02036,0.086414 0.0334,0.1256817 9.27e-4,0.00279 -0.0026,-0.011323 -0.0012,-0.00874 0.004,0.00729 0.0061,0.015462 0.0091,0.023193 0.0054,0.018174 0.01167,0.036116 0.01623,0.054522 0.0041,0.016357 0.006,0.033168 0.0096,0.04964 5.39e-4,0.0025 0.0014,0.00938 0.0027,0.00718 0.0017,-0.00285 -0.0031,-0.012536 -0.0011,-0.00987 0.0045,0.00615 0.0064,0.013877 0.0093,0.020958 0.0051,0.012442 0.0097,0.025064 0.0145,0.037596 0.02317,0.065566 0.02894,0.1347887 0.02669,0.2038127 -2.65e-4,0.00808 1.9e-4,-0.016171 2.85e-4,-0.024256 7.13e-4,0.00256 0.0025,0.01033 0.0021,0.00769 -7.86e-4,-0.00595 -0.0061,-0.02303 -0.0035,-0.017656 0.006,0.012027 0.0085,0.025477 0.0135,0.037934 9.42e-4,0.00235 -0.0024,-0.00975 -0.0013,-0.00748 0.01812,0.037008 0.02135,0.051231 0.03472,0.091079 0.02899,0.066528 0.03936,0.1380342 0.04242,0.209911 0.0023,0.029449 -0.0029,0.059245 -0.0012,0.08866 9.3e-5,0.00158 0.0015,-0.00579 0.002,-0.0043 0.0066,0.018914 0.0064,0.039562 0.0093,0.05939 0.0011,0.061651 0.0166,0.1200989 0.02657,0.180474 0.0087,0.06493 0.0069,0.1305162 0.0059,0.1958208 -7.34e-4,0.010879 -1.29e-4,0.084191 -8.13e-4,0.014885 0.0667,0.353132 -0.432709,0.4474526 -0.499404,0.094321 v 0 c -0.0048,-0.040216 -0.01094,-0.077568 -0.0079,-0.1176337 5.97e-4,-0.035951 0.0013,-0.071909 3.24e-4,-0.1078595 -0.0088,-0.06253 -0.02679,-0.1238587 -0.02763,-0.187506 -0.0095,-0.06662 -0.02055,-0.1332552 -0.01506,-0.2008118 9.18e-4,-0.026205 -0.0089,-0.048659 -0.0196,-0.074036 -8.99e-4,-0.020141 -0.02715,-0.065365 -0.02832,-0.068103 -0.01062,-0.024716 -0.01839,-0.050599 -0.026,-0.076402 -0.0035,-0.011824 -0.0051,-0.024121 -0.0076,-0.036182 -0.0017,-0.017095 -0.0106,-0.062742 -0.0061,-0.089003 2.75e-4,-0.00162 0.0029,0.00439 0.0045,0.00472 -0.0096,-0.030038 -0.06174,-0.1307816 -0.04999,-0.1527513 4.31e-4,-8.054e-4 0.0015,0.00108 0.0022,0.00162 -0.01864,-0.0473 -0.03403,-0.093765 -0.04383,-0.1436651 -0.0011,-0.0058 0.0089,0.026364 0.0076,0.016011 0.0058,0.00641 0.0047,0.00578 -0.0031,-0.00807 -0.02797,-0.04963 -0.02433,-0.038287 -0.04346,-0.085552 -8.26e-4,-0.00204 0.0042,0.00774 0.0033,0.00571 -0.0026,-0.00621 -0.0058,-0.012189 -0.0086,-0.018283 -0.01953,-0.049403 -0.03756,-0.099281 -0.05178,-0.1504822 -0.016,-0.050899 -0.0359,-0.1054447 -0.05081,-0.1655844 -0.0033,-0.017139 -0.007,-0.034209 -0.0099,-0.051417 -6e-4,-0.00352 -0.0031,-0.010464 4.39e-4,-0.010708 0.0014,-9.76e-5 0.0033,0.00455 0.0029,0.00321 -0.0031,-0.00851 -0.0071,-0.01663 -0.0107,-0.024946 -0.0073,-0.020779 -0.01461,-0.041558 -0.02191,-0.062338 -0.01416,-0.065308 -0.01685,-0.1307997 -0.02092,-0.1972071 -0.0072,-0.049641 -0.01772,-0.099184 -0.0176,-0.1495207 -0.0078,-0.057834 -0.02956,-0.1146123 -0.02294,-0.1741365 0,-0.052148 0,-0.1042966 0,-0.1564449 0,-0.063195 0,-0.1263908 0,-0.1895862 0,-0.059253 0,-0.1185061 0,-0.1777591 0,-0.046753 0,-0.093506 0,-0.1402583 0,-0.048542 0,-0.097085 0,-0.1456277 0,-0.068268 0,-0.1365362 0,-0.2048043 0,-0.087044 0,-0.1740884 0,-0.2611326 0,-0.1230083 0,-0.2460167 0,-0.369025 0,-0.359375 0.508233,-0.359375 0.508233,0 z"
   inkscape:connector-curvature="0" /><path
   style="fill:#22280b;stroke:#22280b"
   id="path9041"
   d="m 16.125054,2.7069687 c -0.038,0.125149 -0.08466,0.2486032 -0.113147,0.3763941 -0.02856,0.1184653 -0.06462,0.2345141 -0.08504,0.3549083 -0.01323,0.1124194 -0.0321,0.2240906 -0.05345,0.3352334 -0.017,0.075826 -0.02176,0.1528849 -0.02146,0.2302778 0.0014,0.077095 0.0025,0.1541887 0.0028,0.2312963 1.58e-4,0.05162 -1.4e-5,0.1032399 -8.7e-5,0.1548598 -6e-6,0.00695 6.09e-4,0.027772 -1.9e-5,0.02085 -8.81e-4,-0.00971 6.38e-4,-0.019596 -7.43e-4,-0.029251 -0.0017,-0.011736 -0.0079,-0.02272 -0.0084,-0.034565 -2.35e-4,-0.00561 0.0053,0.00993 0.0076,0.015042 0.02242,0.049556 0.01576,0.036242 0.03453,0.099674 0.02509,0.056011 0.03233,0.1199787 0.03522,0.1816416 4.1e-5,0.010223 -6e-6,0.020446 1.23e-4,0.030668 9.6e-5,0.00759 -0.0076,-0.022269 -2.3e-5,-0.022765 0.0076,-4.994e-4 0.003,0.014969 0.0044,0.022481 0.0064,0.03539 0.01076,0.070647 0.01419,0.1064295 0.0044,0.061245 0.0027,0.1227002 0.0019,0.1840377 -5.18e-4,0.043166 -4.8e-4,0.086337 -4.51e-4,0.1295054 4.8e-5,0.044102 6.4e-5,0.088203 6.8e-5,0.1323052 -0.0025,0.017098 0.0048,0.1833779 -0.0027,0.069298 -2.64e-4,-0.00187 -0.0014,-0.00739 -7.93e-4,-0.00561 0.0095,0.026378 0.0084,0.031964 0.01663,0.06232 9.4e-4,0.00346 -4.02e-4,-0.00728 -0.0017,-0.010628 -0.0056,-0.014592 -0.01405,-0.028052 -0.01882,-0.042929 -0.0016,-0.00507 0.0062,0.0087 0.0092,0.013047 0.05645,0.081118 0.0683,0.1755579 0.06691,0.2715183 -2.58e-4,0.00852 0.0038,0.018382 -7.75e-4,0.025555 -0.0045,0.00707 0.0014,-0.016849 5.51e-4,-0.025207 -0.0012,-0.011795 -0.0065,-0.023056 -0.0069,-0.034909 -1.63e-4,-0.00469 0.0043,0.00838 0.0061,0.012691 0.005,0.011527 0.01034,0.02291 0.01429,0.034818 0.0066,0.019928 0.01155,0.040369 0.01733,0.060553 0.01357,0.064203 0.01528,0.1300079 0.01286,0.1953552 -2.94e-4,0.00792 3.35e-4,-0.015843 5.02e-4,-0.023765 0.01029,0.032112 0.01224,0.066058 0.01752,0.099115 6.88e-4,0.0043 -0.0039,-0.016089 -8.01e-4,-0.013036 0.0042,0.00412 0.0032,0.011308 0.0048,0.016962 0.0202,0.069051 0.02212,0.1407626 0.02183,0.2120987 -0.0019,0.3593698 -0.510151,0.3566471 -0.508226,-0.00272 v 0 c 1.68e-4,-0.024112 0.0024,-0.048965 -0.0031,-0.072624 -0.01459,-0.052604 -0.02177,-0.1062835 -0.03387,-0.1594346 -0.0042,-0.043338 -0.0094,-0.088108 -0.0054,-0.1318382 0.0015,0.00256 0.0031,0.010327 0.0045,0.00769 0.0016,-0.00304 -0.0021,-0.00652 -0.0035,-0.00966 -0.0046,-0.010745 -0.01061,-0.020941 -0.01456,-0.031964 -0.02777,-0.07758 -0.02686,-0.072634 -0.032,-0.1499097 -4.28e-4,-0.00644 4.13e-4,-0.012894 6.2e-4,-0.019341 0.0014,-0.048397 0.0059,0.014858 0.02589,0.030951 -0.04573,-0.064991 -0.06466,-0.1212533 -0.08351,-0.1908695 -0.0093,-0.063718 -0.01433,-0.1233287 -0.01123,-0.1874803 -4e-6,-0.044003 -1.9e-5,-0.088006 -6.8e-5,-0.1320084 -3e-5,-0.045316 -6e-5,-0.090634 4.88e-4,-0.1359481 5.29e-4,-0.044115 0.0017,-0.088275 7.1e-5,-0.132375 -0.0042,-0.055318 -0.02095,-0.1090676 -0.0204,-0.1648407 7.88e-4,-0.020863 0.0017,-0.00184 0.0024,-0.00509 0.0051,-0.024048 -0.03784,-0.047381 -0.02289,-0.071558 0.0018,0.00334 0.0028,0.00732 0.0055,0.010029 0.0017,0.00168 -0.0012,-0.00458 -0.0022,-0.00673 -0.0044,-0.00955 -0.01002,-0.018532 -0.01389,-0.028298 -0.03064,-0.077172 -0.02946,-0.070144 -0.03731,-0.1488972 -6.97e-4,-0.007 1.3e-5,-0.014067 2e-5,-0.021101 7.1e-5,-0.050641 2.4e-4,-0.101282 9.1e-5,-0.1519229 -3.36e-4,-0.077598 -0.0015,-0.1551797 -0.0028,-0.2327669 2.5e-5,-0.1100444 0.0076,-0.2197875 0.03074,-0.3276826 0.02118,-0.1081984 0.03829,-0.2170903 0.05184,-0.3265084 0.01235,-0.068723 0.02607,-0.1369966 0.04342,-0.2046766 0.0058,-0.022734 0.01267,-0.045196 0.019,-0.067794 0.0046,-0.014554 0.01006,-0.028872 0.01386,-0.043662 0.0057,-0.022133 0.0097,-0.044661 0.01455,-0.066992 0.03823,-0.158101 0.08952,-0.3133276 0.143501,-0.466661 0.145956,-0.328401 0.610385,-0.121988 0.464429,0.206413 z"
   inkscape:connector-curvature="0" /></svg>