<?xml version="1.0" encoding="UTF-8" standalone="no"?>
<!-- Generator: Adobe Illustrator 16.0.0, SVG Export Plug-In . SVG Version: 6.00 Build 0)  -->

<svg
   xmlns:dc="http://purl.org/dc/elements/1.1/"
   xmlns:cc="http://creativecommons.org/ns#"
   xmlns:rdf="http://www.w3.org/1999/02/22-rdf-syntax-ns#"
   xmlns:svg="http://www.w3.org/2000/svg"
   xmlns="http://www.w3.org/2000/svg"
   xmlns:sodipodi="http://sodipodi.sourceforge.net/DTD/sodipodi-0.dtd"
   xmlns:inkscape="http://www.inkscape.org/namespaces/inkscape"
   version="1.1"
   id="Capa_1"
   x="0px"
   y="0px"
   width="31.311px"
   height="31.92px"
   viewBox="0 0 31.311 31.92"
   enable-background="new 0 0 31.311 31.92"
   xml:space="preserve"
   sodipodi:docname="pencil.svg"
   inkscape:version="0.92.4 (5da689c313, 2019-01-14)"><metadata
   id="metadata5787"><rdf:RDF><cc:Work
       rdf:about=""><dc:format>image/svg+xml</dc:format><dc:type
         rdf:resource="http://purl.org/dc/dcmitype/StillImage" /><dc:title></dc:title></cc:Work></rdf:RDF></metadata><defs
   id="defs5785" /><sodipodi:namedview
   pagecolor="#ffffff"
   bordercolor="#666666"
   borderopacity="1"
   objecttolerance="10"
   gridtolerance="10"
   guidetolerance="10"
   inkscape:pageopacity="0"
   inkscape:pageshadow="2"
   inkscape:window-width="1920"
   inkscape:window-height="1017"
   id="namedview5783"
   showgrid="false"
   inkscape:zoom="7.3934837"
   inkscape:cx="15.6555"
   inkscape:cy="15.96"
   inkscape:window-x="-8"
   inkscape:window-y="-8"
   inkscape:window-maximized="1"
   inkscape:current-layer="Capa_1" />
<path
   d="M2.209,26.569c0,0-1.078,3.32-2.209,4.479c0,0,0.338,0.357,1.209,0.869c0,0,2.237-2.312,3.438-3.133  C4.648,28.787,4.301,26.084,2.209,26.569z"
   id="path5774" />
<path
   d="M30.305,4.062C26.391-3.411,19.98,1.715,19.98,1.715c8.543,2.505,7.371,13.036,7.371,13.036  C33.951,10.838,30.305,4.062,30.305,4.062z"
   id="path5776" />
<path
   d="M14.096,19.202c2.027-2.604,12.12-8.984,12.133-8.992c-0.438-1.187-0.944-2.162-1.488-2.966  c-2.797,1.178-13.249,9.877-13.249,9.877c3.717-4.964,12.103-11.259,12.116-11.27c-2.716-2.761-5.761-2.262-5.761-2.262  C12.734,8.257,6.18,16.194,3.714,19.244c-0.312,0.356-0.645,0.771-1.001,1.247c0,0,2.854-2.358,3.785-1.207  c0.934,1.152,0.657,3.457,0.657,3.457s1.865-2.358,2.964-1.152c1.097,1.206,0.383,2.854,0,3.291c0,0,1.59-1.591,1.92-0.986  c0.328,0.604,0.054,1.976-0.935,3.235c0,0,0.183-0.21,0.437-0.537c7.552-9.265,15.812-11.841,15.812-11.841  c-0.166-1.094-0.377-2.079-0.621-2.972C22.965,13.326,14.096,19.202,14.096,19.202z"
   id="path5778" />
<path
   d="M11.408,24.88c-0.057-0.438-1.289,0-1.289,0c0.19-0.438-0.083-1.617-0.604-2.275c-0.521-0.657-2.359,0.139-2.359,0.139  c0-0.551-0.739-1.947-1.562-2.524c-0.821-0.573-2.88,0.274-2.88,0.274c0.356,3.1-0.504,6.076-0.504,6.076  c4.367-1.647,2.438,2.22,2.438,2.22c2.881-1.698,6.457-1.658,6.457-1.658C11.929,25.729,11.408,24.88,11.408,24.88z"
   id="path5780" />
<path
   style="stroke-width:0.13525423;fill:#668000"
   d="m 11.930748,25.847085 c 0.259434,-0.662585 0.349985,-1.385231 0.217304,-1.734208 -0.177675,-0.46732 -0.583841,-0.471827 -1.185193,-0.01316 l -0.457667,0.349079 0.106764,-0.382892 c 0.20524,-0.736061 0.106203,-1.734745 -0.217048,-2.18871 -0.6278689,-0.881762 -1.3383251,-0.885228 -2.4431404,-0.01192 l -0.6820299,0.539115 -0.00331,-0.577976 C 7.2646129,21.508529 7.2005975,20.97711 7.1241757,20.645484 6.6955768,18.785613 5.8528776,18.470354 4.0671784,19.501846 3.066199,20.080051 2.8987921,20.328028 6.1751952,16.379288 9.1766869,12.761873 12.418203,9.1428725 15.182111,6.3234894 l 2.705084,-2.7593796 0.966378,0.081527 c 1.273665,0.1074508 2.521835,0.5748693 3.611524,1.3524556 0.487545,0.3479052 0.916184,0.6806712 0.952529,0.73948 0.03635,0.058809 -0.736649,0.7498263 -1.717767,1.5355946 -3.061003,2.4515297 -4.817123,4.012317 -7.126392,6.333727 -1.961581,1.971893 -3.298352,3.516292 -3.043565,3.516292 0.04625,0 0.582596,-0.415022 1.191879,-0.922271 4.657673,-3.877675 11.347081,-8.8160335 11.942033,-8.8160335 0.160911,0 1.406263,2.3561189 1.406263,2.6605485 0,0.08595 -1.232505,0.978729 -2.738899,1.983957 -4.765515,3.180063 -8.757322,6.228457 -9.172926,7.00502 -0.123695,0.231125 -0.118026,0.264302 0.02977,0.174219 0.100409,-0.0612 1.095528,-0.697634 2.211376,-1.414297 3.090512,-1.984911 6.709294,-4.133459 8.588644,-5.099261 l 1.690678,-0.868843 0.233789,0.991616 c 0.454641,1.928355 0.526909,1.774848 -1.184877,2.516892 -4.453493,1.93055 -9.529325,5.784433 -13.311084,10.106589 -0.325445,0.371949 -0.544055,0.554542 -0.485801,0.405763 z"
   id="path8667"
   inkscape:connector-curvature="0" /><path
   style="fill:#668000;stroke-width:0.13525423"
   d="M 27.384791,12.625983 C 27.174124,7.3908829 24.849196,3.4937614 21.06567,2.0336597 20.730916,1.9044746 20.404413,1.7522749 20.340109,1.6954382 20.160901,1.5370413 21.54933,0.79475437 22.729516,0.41800413 c 3.144778,-1.00390529 5.87287,0.36895351 7.528167,3.78840267 0.709984,1.4666577 1.000098,2.8640016 0.921654,4.4391778 -0.106483,2.1382164 -0.893987,3.6894254 -2.604383,5.1300594 -0.507837,0.427742 -0.965925,0.777712 -1.017972,0.777712 -0.05205,0 -0.129533,-0.867318 -0.172191,-1.927373 z"
   id="path8669"
   inkscape:connector-curvature="0" /><path
   style="fill:#668000;stroke-width:0.13525423"
   d="m 4.9086709,28.37274 c 0.051974,-0.124483 0.1252098,-0.514449 0.1627457,-0.866591 0.1219778,-1.144331 -0.4916681,-1.612267 -1.7457484,-1.331222 -0.3347124,0.07501 -0.7004733,0.17165 -0.8128019,0.214755 -0.1811754,0.06952 -0.1827046,-0.01777 -0.013544,-0.77313 0.1048792,-0.468325 0.2248914,-1.810141 0.2666939,-2.981812 l 0.076004,-2.130311 0.6829839,-0.202825 c 0.375641,-0.111553 0.9567891,-0.202824 1.29144,-0.202824 0.5482811,0 0.6653233,0.06106 1.1834616,0.617459 0.3162531,0.339603 0.7129009,0.950157 0.8814397,1.356788 0.2145757,0.517702 0.364483,0.717052 0.5000817,0.665018 0.5803378,-0.222697 1.4137305,-0.359826 1.7198622,-0.282991 0.4284815,0.107542 1.0054837,1.249999 1.0074657,1.994772 l 0.0013,0.496301 0.482615,-0.133256 c 0.347231,-0.09587 0.53694,-0.08817 0.676271,0.02746 0.252584,0.209627 0.251302,1.215609 -0.0023,1.82262 -0.187619,0.449036 -0.22566,0.469046 -0.89172,0.469046 -1.0735749,0 -3.328579,0.506675 -4.5020318,1.011557 -0.8320683,0.358001 -1.038485,0.407064 -0.9642163,0.229183 z"
   id="path8671"
   inkscape:connector-curvature="0" /><path
   style="fill:#484537;stroke-width:0.13525423"
   d="M 0.5412112,31.381497 0.10200677,31.035349 0.42485894,30.605285 c 0.41542387,-0.553377 1.02512846,-1.791433 1.49400916,-3.033709 0.3588298,-0.950701 0.3840384,-0.980593 0.8269708,-0.980593 0.6047357,0 1.3221216,0.632013 1.6287567,1.434925 0.2248225,0.58869 0.2239165,0.619599 -0.025034,0.854068 C 3.1284852,30.030021 1.185653,31.730353 1.0940476,31.729144 1.03155,31.728319 0.78277363,31.571878 0.5412112,31.381497 Z"
   id="path8673"
   inkscape:connector-curvature="0" /><path
   style="fill:#aa4400;stroke-width:0.13525423"
   d="m 5.0788003,27.547189 c 0.052804,-0.730008 0.025187,-0.83493 -0.307271,-1.167388 -0.3309218,-0.330922 -0.4310073,-0.357726 -1.0637947,-0.284893 -0.384178,0.04422 -0.84238,0.12197 -1.0182268,0.172783 -0.2701716,0.07807 -0.3074018,0.05264 -0.2402288,-0.164109 0.1437581,-0.463861 0.3548279,-2.67109 0.3559591,-3.722387 0.00177,-1.64699 0.074569,-1.849561 0.7279615,-2.025676 0.3069349,-0.08273 0.8460254,-0.159126 1.1979789,-0.169766 0.5642613,-0.01706 0.6952996,0.03662 1.1083776,0.454044 0.2576543,0.260364 0.6740663,0.838576 0.92536,1.284915 0.340233,0.604309 0.5234542,0.802031 0.7175546,0.774341 0.1433612,-0.02045 0.6066029,-0.07419 1.0294258,-0.119415 0.761636,-0.08147 0.771366,-0.07798 1.0486574,0.37532 0.1539386,0.251653 0.352488,0.806332 0.4412211,1.232621 l 0.161333,0.77507 0.511461,-0.08179 c 0.464317,-0.07425 0.524222,-0.04823 0.64989,0.282308 0.181824,0.478234 0.0266,1.404122 -0.28818,1.718898 -0.178588,0.178588 -0.452625,0.250767 -0.960016,0.252858 -0.8918685,0.0037 -2.7241367,0.40552 -3.938476,0.863766 -0.5109882,0.192827 -0.971355,0.350595 -1.0230374,0.350595 -0.051682,0 -0.06786,-0.360944 -0.035949,-0.802099 z"
   id="path8675"
   inkscape:connector-curvature="0" /></svg>