<?xml version="1.0" encoding="UTF-8" standalone="no"?>
<!-- Generator: Adobe Illustrator 16.0.0, SVG Export Plug-In . SVG Version: 6.00 Build 0)  -->

<svg
   xmlns:osb="http://www.openswatchbook.org/uri/2009/osb"
   xmlns:dc="http://purl.org/dc/elements/1.1/"
   xmlns:cc="http://creativecommons.org/ns#"
   xmlns:rdf="http://www.w3.org/1999/02/22-rdf-syntax-ns#"
   xmlns:svg="http://www.w3.org/2000/svg"
   xmlns="http://www.w3.org/2000/svg"
   xmlns:xlink="http://www.w3.org/1999/xlink"
   xmlns:sodipodi="http://sodipodi.sourceforge.net/DTD/sodipodi-0.dtd"
   xmlns:inkscape="http://www.inkscape.org/namespaces/inkscape"
   version="1.1"
   id="Capa_1"
   x="0px"
   y="0px"
   width="30.843px"
   height="32px"
   viewBox="0 0 30.843 32"
   enable-background="new 0 0 30.843 32"
   xml:space="preserve"
   sodipodi:docname="save.svg"
   inkscape:version="0.92.4 (5da689c313, 2019-01-14)"><metadata
   id="metadata7568"><rdf:RDF><cc:Work
       rdf:about=""><dc:format>image/svg+xml</dc:format><dc:type
         rdf:resource="http://purl.org/dc/dcmitype/StillImage" /><dc:title></dc:title></cc:Work></rdf:RDF></metadata><defs
   id="defs7566"><linearGradient
     inkscape:collect="always"
     id="linearGradient13586"><stop
       style="stop-color:#000000;stop-opacity:1;"
       offset="0"
       id="stop13582" /><stop
       style="stop-color:#000000;stop-opacity:0;"
       offset="1"
       id="stop13584" /></linearGradient><linearGradient
     inkscape:collect="always"
     id="linearGradient13550"
     osb:paint="gradient"><stop
       style="stop-color:#668000;stop-opacity:1;"
       offset="0"
       id="stop13546" /><stop
       style="stop-color:#668000;stop-opacity:0;"
       offset="1"
       id="stop13548" /></linearGradient><radialGradient
     inkscape:collect="always"
     xlink:href="#linearGradient13586"
     id="radialGradient13588"
     cx="14.401309"
     cy="24.715883"
     fx="14.401309"
     fy="24.715883"
     r="8.4351618"
     gradientTransform="matrix(1,0,0,0.84599063,0,3.8064776)"
     gradientUnits="userSpaceOnUse" /></defs><sodipodi:namedview
   pagecolor="#ffffff"
   bordercolor="#666666"
   borderopacity="1"
   objecttolerance="10"
   gridtolerance="10"
   guidetolerance="10"
   inkscape:pageopacity="0"
   inkscape:pageshadow="2"
   inkscape:window-width="1920"
   inkscape:window-height="1017"
   id="namedview7564"
   showgrid="false"
   inkscape:zoom="7.375"
   inkscape:cx="-6.6123981"
   inkscape:cy="16"
   inkscape:window-x="-8"
   inkscape:window-y="-8"
   inkscape:window-maximized="1"
   inkscape:current-layer="Capa_1" />
<path
   d="M5.792,20.867c-0.307,0.578,0.426,8.26,0.71,11.109c4.091,0.133,11-0.319,15.703-1.312  c0.342-3.479,1.209-12.771,0.75-13.294C22.389,16.73,6.17,20.156,5.792,20.867z"
   id="path7557" />
<path
   d="M30.562,1.771c-1.35-1.268-4.061-1.776-7.33-1.771c-0.268,3.303-1.113,12.924-1.908,13.596  c-0.959,0.813-14.41,3.177-15,2.404C5.814,15.334,6.182,5.712,6.293,3.049C3.356,4.066,1.138,5.196,0.411,6.206  c-1.617,2.245,2.006,24.879,2.882,25.349c0.323,0.172,1.053,0.295,2.066,0.367c-0.287-2.51-1.264-11.336-0.884-11.971  c0.443-0.738,19.51-4.296,20.175-3.631c0.549,0.549-0.512,10.51-0.898,13.977c1.475-0.4,2.593-0.867,3.117-1.402  C28.076,27.662,31.9,3.029,30.562,1.771z"
   id="path7559" />
<path
   d="M12.826,11.231c0.287-0.401,0.751-7.165,0.945-10.176c-1.468,0.293-2.912,0.635-4.279,1.009  c-0.181,2.852-0.579,9.615-0.288,9.906C9.575,12.34,12.456,11.748,12.826,11.231z"
   id="path7561" />
<path
   style="fill:#668000;stroke:none;stroke-width:0.13559322"
   d="M 6.5463536,31.640678 C 6.4196529,31.061619 5.9187184,24.957191 5.8369384,22.995686 5.7704812,21.401702 5.7908129,21.000115 5.9441464,20.878142 6.76181,20.227708 16.752825,18.008368 21.434904,17.437125 c 1.568772,-0.1914 1.580153,-0.18126 1.578626,1.406596 -0.0024,2.467984 -0.767178,11.629182 -0.982198,11.765242 -0.207167,0.131093 -3.58085,0.636411 -5.728476,0.858025 -2.441636,0.251953 -6.3339261,0.478775 -8.215848,0.478775 -1.4183149,0 -1.476418,-0.0115 -1.5406544,-0.305085 z"
   id="path7570"
   inkscape:connector-curvature="0" /><path
   style="fill:#668000;stroke:none;stroke-width:0.13559322"
   d="M 3.9520372,31.682335 C 3.7217985,31.627292 3.4632921,31.538915 3.3775783,31.485942 2.8206582,31.141746 1.4001844,23.413702 0.55855916,16.149153 0.27681553,13.717262 0.19395057,12.343755 0.18225774,9.9118644 0.16446869,6.2120748 0.14915867,6.2610066 1.63563,5.266794 2.4950888,4.6919528 4.8868537,3.5742053 5.9169188,3.2660119 L 6.242846,3.1684952 6.1511889,5.1842476 c -0.1181225,2.5977896 -0.1216422,9.8826564 -0.00505,10.4581894 0.065018,0.320956 0.1824945,0.465745 0.4278499,0.527326 1.4776061,0.370855 13.3477992,-1.631492 14.6387552,-2.469367 0.414277,-0.26888 0.652208,-1.165631 1.054315,-3.9736634 0.268695,-1.8763711 1.01885,-8.91191916 1.01885,-9.55558952 0,-0.21333039 2.979711,0.005134 4.299816,0.31525074 1.337068,0.31410198 2.728253,1.01303048 2.996962,1.50566788 0.69662,1.2771421 -0.965578,15.3828803 -2.770736,23.5130233 -0.615322,2.771308 -0.859321,3.349052 -1.59698,3.781349 -0.561911,0.329302 -2.240551,0.952361 -2.328605,0.864305 -0.02522,-0.02522 0.129601,-1.782506 0.344049,-3.905078 0.4734,-4.685635 0.73343,-8.997932 0.576112,-9.554136 -0.105346,-0.372452 -0.171499,-0.410448 -0.783939,-0.450265 -0.952232,-0.06191 -2.862085,0.175974 -6.906171,0.860195 -5.621897,0.951174 -11.6519511,2.236946 -12.4209039,2.648477 -0.1396228,0.07472 -0.2929697,0.29169 -0.3407711,0.482145 -0.1325327,0.528053 0.3204598,6.307778 0.8516532,10.866228 l 0.082953,0.711864 -0.4593467,-0.01388 C 4.577361,31.788689 4.1822779,31.737379 3.9520394,31.682334 Z"
   id="path7572"
   inkscape:connector-curvature="0" /><path
   style="fill:#668000;stroke:none;stroke-width:0.13559322"
   d="M 9.2342008,11.812657 C 9.0652189,11.372297 9.4290873,2.3675542 9.6237286,2.1729128 9.7146208,2.0820206 12.275931,1.4103799 13.150314,1.2481525 c 0.506903,-0.094048 0.508474,-0.092905 0.508474,0.3697377 0,0.7437433 -0.528183,7.2407547 -0.685292,8.4295678 -0.09595,0.726018 -0.218554,1.142157 -0.370744,1.258351 -0.34233,0.261362 -1.483491,0.573301 -2.432334,0.664884 -0.7275243,0.07022 -0.8570149,0.04836 -0.9362172,-0.158036 z"
   id="path7574"
   inkscape:connector-curvature="0" /><path
   style="fill:#a0a0a0;stroke:none;stroke-width:0.13559322"
   d="m 6.9235844,31.854066 c -0.3561579,-0.07254 -0.3771563,-0.185453 -0.651196,-3.501524 -0.3525948,-4.26664 -0.4776506,-6.83074 -0.3495768,-7.1676 0.1607354,-0.422766 0.6853779,-0.61925 3.6097475,-1.351886 4.6743379,-1.171051 11.6312499,-2.464463 12.7511499,-2.370661 0.436694,0.03658 0.525315,0.100938 0.61889,0.449469 0.166627,0.620628 -0.284312,7.821672 -0.704532,11.250681 -0.07288,0.594653 -0.132499,1.152445 -0.132499,1.239537 0,0.208736 -0.195771,0.251485 -2.983051,0.651393 -3.484382,0.499924 -11.1553344,1.00501 -12.1589326,0.800591 z"
   id="path12084"
   inkscape:connector-curvature="0" /><path
   style="fill:#668000;stroke:url(#radialGradient13588);stroke-width:0.13559322;fill-opacity:1"
   d="m 6.6948293,31.521402 c -0.2666999,-0.701474 -0.87077,-9.483205 -0.6981657,-10.149656 0.047965,-0.1852 0.267828,-0.442215 0.4885842,-0.571144 0.7881765,-0.460319 7.5833522,-2.033832 12.1602342,-2.815863 2.583046,-0.441353 3.946124,-0.521548 4.119521,-0.242366 0.316142,0.509013 -0.49679,12.360066 -0.873702,12.73698 -0.361926,0.361924 -7.986265,1.155739 -12.3974171,1.290768 l -2.6733789,0.08183 z"
   id="path12086"
   inkscape:connector-curvature="0" /></svg>