<?xml version="1.0" encoding="UTF-8" standalone="no"?>
<!-- Generator: Adobe Illustrator 16.0.0, SVG Export Plug-In . SVG Version: 6.00 Build 0)  -->

<svg
   xmlns:dc="http://purl.org/dc/elements/1.1/"
   xmlns:cc="http://creativecommons.org/ns#"
   xmlns:rdf="http://www.w3.org/1999/02/22-rdf-syntax-ns#"
   xmlns:svg="http://www.w3.org/2000/svg"
   xmlns="http://www.w3.org/2000/svg"
   xmlns:sodipodi="http://sodipodi.sourceforge.net/DTD/sodipodi-0.dtd"
   xmlns:inkscape="http://www.inkscape.org/namespaces/inkscape"
   version="1.1"
   id="Capa_1"
   x="0px"
   y="0px"
   width="32px"
   height="32px"
   viewBox="-3.377 0 32 32"
   enable-background="new -3.377 0 32 32"
   xml:space="preserve"
   sodipodi:docname="trash.svg"
   inkscape:version="0.92.4 (5da689c313, 2019-01-14)"><metadata
   id="metadata5220"><rdf:RDF><cc:Work
       rdf:about=""><dc:format>image/svg+xml</dc:format><dc:type
         rdf:resource="http://purl.org/dc/dcmitype/StillImage" /><dc:title></dc:title></cc:Work></rdf:RDF></metadata><defs
   id="defs5218" /><sodipodi:namedview
   pagecolor="#ffffff"
   bordercolor="#666666"
   borderopacity="1"
   objecttolerance="10"
   gridtolerance="10"
   guidetolerance="10"
   inkscape:pageopacity="0"
   inkscape:pageshadow="2"
   inkscape:window-width="1920"
   inkscape:window-height="1017"
   id="namedview5216"
   showgrid="false"
   inkscape:zoom="7.375"
   inkscape:cx="16"
   inkscape:cy="16"
   inkscape:window-x="-8"
   inkscape:window-y="-8"
   inkscape:window-maximized="1"
   inkscape:current-layer="Capa_1" />
<path
   d="M24.752,3.076C24.296,2.43,20.25,2.283,15.58,2.424c0.092-0.661,0.243-2.061-0.051-2.333  c-0.389-0.36-5.514,0.436-5.812,0.908C9.52,1.317,9.589,2.192,9.655,2.733c-4.782,0.351-8.934,0.91-9.284,1.455  c-0.834,1.298,0,3.894,0,3.894s6.984-0.495,11.774-0.464c4.789,0.031,12.606,0.464,12.606,0.464S25.863,4.652,24.752,3.076z"
   id="path5211" />
<path
   d="M22.744,10.06c-0.495-0.556-19.405-0.494-19.9,0c-0.446,0.446-0.59,16.514,0.021,20.258c0,0,0.037,1.002,0.586,1.471  C4,32.255,22.803,31.91,23.201,31.164c0.142-0.264,0.229-0.535,0.291-0.789c0.031-0.062,0.057-0.195,0.076-0.393  c0.054-0.361,0.045-0.621,0.045-0.621C23.805,25.257,23.178,10.549,22.744,10.06z M4.92,30.425  c-0.066-4.071-0.229-15.387,0.024-15.792c0.31-0.494,2.658-0.371,2.968,0c0.243,0.293,0.449,11.279,0.524,15.871  C7.045,30.494,5.846,30.46,4.92,30.425z M11.454,30.496c-0.1-4.01-0.354-15.456,0.036-15.863c0.474-0.494,3.162-0.371,3.636,0  c0.367,0.289,0.679,10.938,0.799,15.65C14.023,30.412,13.107,30.475,11.454,30.496z M18.271,30.091  c-0.069-4.325-0.217-15.063,0.029-15.458c0.311-0.494,2.657-0.371,2.969,0c0.229,0.276,0.426,10.068,0.51,15.031  C20.611,29.837,19.438,29.979,18.271,30.091z"
   id="path5213" />
<path
   style="fill:#668000;stroke-width:0.13559322"
   d="M 7.5934652,31.844837 C 7.2580066,31.815384 6.87956,31.697186 6.7524727,31.582175 6.1653042,31.050795 5.964269,28.012921 5.9644721,19.674576 5.9646198,13.615715 6.0786554,10.364282 6.298725,10.144213 6.487718,9.9552198 8.4895003,9.8534688 13.694915,9.7682628 c 5.089604,-0.08331 11.669617,0.067113 12.222888,0.2794232 0.25271,0.09697 0.32463,0.542016 0.514902,3.186212 0.275195,3.824358 0.446016,8.492229 0.463954,12.677966 0.02161,5.042705 -0.01536,5.250815 -0.959658,5.401815 -2.737549,0.43775 -15.273045,0.80073 -18.3435358,0.531158 z m 4.2398138,-3.458396 c -0.09372,-4.993465 -0.319928,-12.420833 -0.39884,-13.095689 -0.101126,-0.864843 -0.312257,-0.991144 -1.6754667,-1.00229 -1.1901273,-0.0097 -1.4378911,0.08579 -1.5394359,0.593517 -0.1115318,0.557659 -0.1080291,11.827496 0.00433,13.917056 l 0.088269,1.64161 0.5557992,0.0509 c 0.3056895,0.028 1.1072528,0.06156 1.7812514,0.07459 l 1.225453,0.02369 z m 6.850137,1.985982 0.717315,-0.07465 -0.07552,-1.853969 c -0.04154,-1.019682 -0.137572,-3.62346 -0.21341,-5.786172 -0.139204,-3.969695 -0.35092,-7.38737 -0.485561,-7.838276 -0.109921,-0.36812 -0.669802,-0.520887 -1.948274,-0.531598 -1.389086,-0.01164 -1.738338,0.08472 -1.906072,0.525897 -0.145665,0.383127 -0.174353,10.872999 -0.03789,13.856002 l 0.08894,1.944227 1.571581,-0.0834 c 0.86437,-0.04587 1.894373,-0.116996 2.288896,-0.158056 z m 5.09354,-0.474754 1.471871,-0.16423 -0.0887,-3.809093 C 25.039174,20.730025 24.821908,14.977759 24.736213,14.700949 24.648703,14.418277 24.08072,14.286937 22.97343,14.293325 c -1.3678,0.0079 -1.357642,-0.0066 -1.458328,2.086508 -0.04771,0.99177 -0.04729,4.505873 9.49e-4,7.809119 l 0.08766,6.005901 0.350697,-0.06648 c 0.192884,-0.03656 1.013038,-0.140381 1.822568,-0.230708 z"
   id="path8816"
   inkscape:connector-curvature="0"
   transform="translate(-3.377)" /><path
   style="fill:#668000;stroke-width:0.13559322"
   d="M 3.7624576,7.8632399 C 3.6078659,7.6102445 3.3801501,5.6564858 3.4618904,5.2844305 3.6986832,4.206627 3.8523573,4.0618987 5.0847458,3.7560456 6.1387048,3.494475 11.87175,2.7916856 12.937032,2.7934674 c 0.09506,1.627e-4 0.131529,-0.2860449 0.10231,-0.8028945 -0.04081,-0.7218507 -0.01275,-0.8245381 0.277222,-1.01453442 0.502271,-0.32910081 2.886534,-0.77206896 4.310555,-0.80085067 l 1.288135,-0.0260353 V 1.3016949 2.4542373 l 3.254238,0.014518 c 3.09922,0.013826 5.111153,0.1858212 5.672496,0.4849266 0.649086,0.3458586 0.881019,2.4320601 0.464548,4.1785215 L 28.128696,7.8779661 26.64062,7.8776678 C 25.822176,7.8775052 22.772881,7.7912431 19.864407,7.6859753 14.62617,7.4963851 12.697638,7.5252925 5.4096818,7.9026423 4.5345862,7.9479523 3.8035353,7.9304652 3.7624576,7.8632399 Z"
   id="path8818"
   inkscape:connector-curvature="0"
   transform="translate(-3.377)" /></svg>