<?xml version="1.0" encoding="UTF-8" standalone="no"?>
<!-- Generator: Adobe Illustrator 16.0.0, SVG Export Plug-In . SVG Version: 6.00 Build 0)  -->

<svg
   xmlns:dc="http://purl.org/dc/elements/1.1/"
   xmlns:cc="http://creativecommons.org/ns#"
   xmlns:rdf="http://www.w3.org/1999/02/22-rdf-syntax-ns#"
   xmlns:svg="http://www.w3.org/2000/svg"
   xmlns="http://www.w3.org/2000/svg"
   xmlns:sodipodi="http://sodipodi.sourceforge.net/DTD/sodipodi-0.dtd"
   xmlns:inkscape="http://www.inkscape.org/namespaces/inkscape"
   version="1.1"
   id="Capa_1"
   x="0px"
   y="0px"
   viewBox="0 -0.84 32 32"
   enable-background="new 0 -0.84 32 32"
   xml:space="preserve"
   sodipodi:docname="upload.svg"
   inkscape:version="0.92.4 (5da689c313, 2019-01-14)"><metadata
   id="metadata4895"><rdf:RDF><cc:Work
       rdf:about=""><dc:format>image/svg+xml</dc:format><dc:type
         rdf:resource="http://purl.org/dc/dcmitype/StillImage" /><dc:title></dc:title></cc:Work></rdf:RDF></metadata><defs
   id="defs4893" /><sodipodi:namedview
   pagecolor="#ffffff"
   bordercolor="#666666"
   borderopacity="1"
   objecttolerance="10"
   gridtolerance="10"
   guidetolerance="10"
   inkscape:pageopacity="0"
   inkscape:pageshadow="2"
   inkscape:window-width="1920"
   inkscape:window-height="1017"
   id="namedview4891"
   showgrid="false"
   inkscape:zoom="59"
   inkscape:cx="17.616275"
   inkscape:cy="25.090306"
   inkscape:window-x="-8"
   inkscape:window-y="-8"
   inkscape:window-maximized="1"
   inkscape:current-layer="Capa_1" />
<path
   d="M31.934,15.946h0.002c0,0-0.004-0.013-0.008-0.02c-0.023-0.086-0.052-0.157-0.089-0.211  c-0.754-1.762-5.821-13.521-6.979-13.982c-0.51-0.204-3.752,0.192-7.487,0.795c-1.033-1.42-2.011-2.56-2.38-2.527  c-0.393,0.034-1.463,1.579-2.528,3.387c-3.857,0.726-7.22,1.485-7.64,1.854c-0.908,0.794-4.13,13.59-4.727,15.989  c-0.011,0.014-0.027,0.026-0.033,0.041c-0.036,0.079-0.054,0.191-0.06,0.331C0.001,21.608,0,21.614,0,21.614l0.003-0.002  c-0.064,1.812,2.253,8.084,3.065,8.549c0.876,0.501,25.045-0.251,25.922-1.253C29.803,27.98,32.454,17.904,31.934,15.946z   M22.455,16.168c-0.296,1.979-0.801,3.75-1.354,4.227c-0.875,0.752-11.146,2.755-12.021,2.188c-0.542-0.351-1.755-4.068-1.755-4.068  s-3.214,1.336-4.512,1.853C3.897,15.311,5.86,7.531,6.526,6.949C6.89,6.63,8.435,6.03,11.71,5.398  c-1.246,2.226-2.122,3.477-1.837,3.7c0.568,0.442,2.19,0.46,4.002,0.275l-0.996,8.25l5.197-0.729l-1.287-7.944  c1.979-0.368,3.621-0.831,3.725-1.071c0.131-0.304-0.935-1.594-2.334-3.611c3.217-0.504,4.656-0.779,5.104-0.603  c0.792,0.317,5.87,11.443,5.87,11.443S25.475,15.791,22.455,16.168z"
   id="path4888" />
<path
   style="stroke-width:0.13559322;fill:#668000"
   d="M 3.7992704,31.031395 C 3.0251837,30.963314 2.9254111,30.873261 2.3422176,29.716279 1.2737063,27.596488 0.13559322,23.999345 0.13559322,22.741977 0.13559322,21.824934 2.5858873,12.518871 3.8172374,8.759322 4.6102249,6.3381786 4.7412386,6.1152839 5.5220483,5.8589121 6.3548091,5.5854826 8.5435265,5.0742016 10.779661,4.6307422 11.749153,4.4384773 12.560689,4.2270255 12.583076,4.1608494 12.696894,3.8243955 14.266419,1.5879091 14.631917,1.2413635 L 15.05307,0.84204908 15.607407,1.3769567 c 0.304886,0.2941993 0.819097,0.8760113 1.142695,1.2929157 l 0.588358,0.758008 2.12546,-0.3113037 c 2.902099,-0.4250532 4.911881,-0.5996087 5.282283,-0.4587819 0.168668,0.064127 0.427489,0.2886281 0.575158,0.4988914 0.921427,1.3119923 2.874612,5.2862045 5.271428,10.7259518 1.227265,2.785367 1.271618,2.920723 1.271618,3.880742 0,1.703299 -0.757408,5.429093 -1.844326,9.072505 -0.605629,2.030106 -0.91425,2.747684 -1.26172,2.933643 -0.358385,0.191802 -2.564555,0.490721 -4.961751,0.672281 -6.063118,0.459208 -17.6091851,0.799623 -19.9973396,0.589586 z m 9.4036566,-7.830428 c 2.564055,-0.401889 5.911556,-1.144682 7.136056,-1.583456 0.828951,-0.297038 0.902106,-0.358368 1.230334,-1.03145 0.304961,-0.625372 0.583228,-1.615212 0.871591,-3.100386 0.08145,-0.419529 0.100113,-0.428653 1.193803,-0.583813 1.821191,-0.25837 5.446061,-0.852369 5.502184,-0.90163 0.08233,-0.07226 -0.199062,-0.705081 -1.953597,-4.393452 C 25.400744,7.8595113 24.003703,5.2085082 23.556921,4.7254237 23.358188,4.5105439 23.120134,4.420339 22.751788,4.420339 c -0.715311,0 -4.35193,0.5484638 -4.491685,0.6774221 -0.06203,0.057237 0.341071,0.736706 0.895775,1.5099322 1.286462,1.7932564 1.404373,2.0131611 1.163207,2.1693871 -0.26401,0.1710228 -1.323465,0.4795386 -2.557099,0.7446335 -1.034801,0.2223675 -1.066474,0.2407803 -0.999563,0.5810841 0.134399,0.683542 1.239745,7.538246 1.219531,7.56281 -0.05559,0.06755 -4.892713,0.70273 -4.94597,0.649473 -0.05722,-0.05722 0.722355,-7.035553 0.870587,-7.793047 l 0.06634,-0.338983 h -1.664419 c -0.915431,0 -1.838164,-0.04842 -2.050519,-0.107596 C 9.9252068,9.9827233 9.8840464,9.9193384 9.9600206,9.6166328 10.008504,9.4234584 10.437755,8.5883991 10.913911,7.7609455 11.390066,6.9334921 11.761125,6.2379615 11.738486,6.2153222 11.653407,6.1302431 8.9732849,6.7684229 7.8917557,7.1312899 7.2728991,7.3389242 6.6465188,7.6174446 6.4997992,7.750224 c -0.3748256,0.3392126 -1.3026399,3.311128 -2.351949,7.533612 -1.1134849,4.480732 -1.4350098,5.950062 -1.3020174,5.950062 0.057486,0 1.0676667,-0.396752 2.244846,-0.881673 1.1771792,-0.484919 2.1555095,-0.866275 2.1740672,-0.847458 0.018558,0.01882 0.2777364,0.684124 0.5759528,1.478457 0.948384,2.526128 0.9745523,2.555873 2.2481132,2.555408 0.529119,-1.36e-4 1.930471,-0.152143 3.114115,-0.337665 z"
   id="path8824"
   inkscape:connector-curvature="0"
   transform="translate(0,-0.84)" /><path
   style="fill:#445500;stroke-width:0.13559322"
   d="M 3.1304933,30.7727 C 2.4782001,30.315816 0.7736542,26.059051 0.35116877,23.831889 0.16342104,22.842163 0.16782701,22.680146 0.41478114,21.492729 1.0921273,18.235882 3.5918117,9.312861 4.3807443,7.3355932 4.7495538,6.4112618 4.8837406,6.2173535 5.2881356,6.0243559 5.7122395,5.8219523 6.6822587,5.5837929 11.254237,4.559557 l 1.288136,-0.2885742 0.802574,-1.2021466 c 0.894992,-1.3405779 1.496841,-2.0383277 1.758173,-2.0383277 0.142088,0 1.833943,1.8481958 2.131425,2.3283867 0.05187,0.083722 0.774416,0.031647 1.966102,-0.1417008 2.764546,-0.4021426 4.525228,-0.5859547 5.133771,-0.5359568 0.465102,0.038213 0.60709,0.13584 1.050293,0.7221522 0.80777,1.0686002 4.418916,8.5632352 6.010634,12.4745762 0.461372,1.133733 0.49523,2.318273 0.1279,4.474576 -0.541584,3.179214 -2.128681,8.755892 -2.617881,9.198612 -0.135439,0.122571 -0.568921,0.284047 -0.963295,0.358839 -2.851517,0.54078 -13.115537,1.082667 -20.5559665,1.08525 C 3.9451807,30.996464 3.4099664,30.96845 3.1304933,30.7727 Z M 12.15968,23.39736 c 2.822548,-0.376876 7.420654,-1.395761 8.555588,-1.895817 0.71876,-0.316689 1.109034,-1.076291 1.547982,-3.012888 0.202225,-0.892201 0.367799,-1.341002 0.509668,-1.381497 0.115573,-0.03299 1.06437,-0.188936 2.108438,-0.346546 3.39811,-0.51297 4.271186,-0.694699 4.271186,-0.889034 0,-0.534463 -4.76831,-10.1386564 -5.435558,-10.9481432 -0.381438,-0.4627511 -0.470988,-0.5029807 -1.116686,-0.5016596 -0.878782,0.0018 -4.176683,0.5037628 -4.332333,0.659413 -0.06358,0.063583 0.375845,0.8386774 0.977767,1.7246509 0.601288,0.8850417 1.093251,1.6817342 1.093251,1.7704277 0,0.1768875 -0.716621,0.433975 -2.35682,0.845508 -0.587778,0.1474758 -1.119537,0.3189883 -1.181687,0.381139 -0.06215,0.062151 0.158451,1.7900562 0.490229,3.8397892 0.331776,2.049734 0.604213,3.791546 0.605414,3.870695 0.0018,0.115692 -3.864836,0.739394 -4.574085,0.737825 -0.105604,-2.71e-4 -0.169048,-0.192037 -0.168316,-0.50885 0.001,-0.433425 0.493654,-4.945995 0.762362,-6.983051 l 0.08496,-0.644068 -1.678486,-0.0019 c -1.872111,-0.0021 -2.288655,-0.06981 -2.288655,-0.3722227 0,-0.1137685 0.400015,-0.9608893 0.888922,-1.8824907 0.767846,-1.4474088 0.852924,-1.6756388 0.624635,-1.6756388 -0.393322,0 -3.2307448,0.7417134 -4.1052825,1.0731369 C 6.4994443,7.6134533 6.3329531,7.7949102 5.9052187,8.9312959 5.3182968,10.490604 3.6385298,16.924014 2.7726595,20.928814 c -0.039178,0.181205 -0.00103,0.305084 0.093942,0.305084 0.087947,0 1.0654613,-0.366101 2.172254,-0.813559 1.1067925,-0.447458 2.0596427,-0.813559 2.1174446,-0.813559 0.057802,0 0.3748368,0.711311 0.7045221,1.580691 0.3296853,0.869381 0.7453634,1.754126 0.9237291,1.966102 0.3020895,0.359013 0.3924553,0.38541 1.3193857,0.38541 0.547296,0 1.472381,-0.06373 2.055743,-0.141623 z"
   id="path8826"
   inkscape:connector-curvature="0"
   transform="translate(0,-0.84)" /><path
   style="fill:#445500"
   id="path8828"
   d="m 12.972043,3.2707904 c -0.05194,0.03639 -0.09101,0.085742 -0.133299,0.1320183 -0.01287,0.023398 -0.0372,0.036911 -0.05402,0.056476 -0.01151,0.017454 -0.0053,0.00964 -0.01814,0.023721 -0.01094,0.011474 -0.0059,0.00552 -0.01526,0.017817 0,0 -0.671093,0.312136 -0.671093,0.312136 v 0 c 0.0041,-0.023327 0.0013,-0.011921 0.0081,-0.034233 0.02697,-0.050824 -0.01215,0.0199 0.01836,-0.025991 0.0038,-0.00564 0.0055,-0.012451 0.0091,-0.018192 0.01176,-0.018753 0.02986,-0.030644 0.04569,-0.045559 0.05318,-0.064336 -0.02064,0.023515 0.03939,-0.042887 0.02924,-0.032345 0.05242,-0.070402 0.08684,-0.097983 0,0 0.684334,-0.2773243 0.684334,-0.2773243 z"
   inkscape:connector-curvature="0" /><path
   style="fill:none;stroke:#000000;stroke-width:2.17191935px;stroke-linecap:butt;stroke-linejoin:miter;stroke-opacity:1"
   d="m 12.514192,6.1042913 c 2.113015,-5.12310006 0,0 0,0 z"
   id="path8832"
   inkscape:connector-curvature="0" /><path
   style="fill:none;stroke:#000000;stroke-width:2.52514958px;stroke-linecap:butt;stroke-linejoin:miter;stroke-opacity:1"
   d="m 17.527999,5.5532754 c -2.833658,-5.16386635 0,0 0,0 z"
   id="path8832-0"
   inkscape:connector-curvature="0" /><path
   style="fill:#222b00;stroke-width:0.01694915"
   d="m 13.244311,18.197139 c -0.08889,-0.113002 -0.104168,-0.380239 -0.05368,-0.938717 0.137845,-1.52475 0.498724,-4.738627 0.737484,-6.567797 0.04015,-0.307627 0.06974,-0.565042 0.06574,-0.572033 -0.004,-0.007 -0.592199,-0.01278 -1.307115,-0.01287 -0.714916,-8.4e-5 -1.444762,-0.0077 -1.621881,-0.01684 -0.768008,-0.0398 -1.025424,-0.1245602 -1.025424,-0.3376547 0,-0.1326091 0.350971,-0.8731269 1.008762,-2.1284015 0.278823,-0.5320825 0.397731,-0.7704615 0.484322,-0.9709337 0.02871,-0.066466 0.04552,-0.086968 0.06518,-0.079464 0.01457,0.00556 0.452357,0.1856784 0.972867,0.4002574 0.520511,0.2145788 0.948641,0.3876258 0.951401,0.3845485 0.01573,-0.017531 0.959181,-2.3263083 0.981584,-2.4020834 0.104786,-0.354429 -0.0076,-0.7822227 -0.275508,-1.048731 C 14.017435,3.696915 13.798459,3.5995938 13.50554,3.5853128 c -0.182354,-0.00889 -0.336116,0.016892 -0.479806,0.080452 -0.04195,0.018558 -0.07947,0.030552 -0.08337,0.026653 -0.0039,-0.0039 0.116745,-0.1927631 0.268098,-0.4196972 0.685379,-1.027634 1.090332,-1.567619 1.444409,-1.9260483 0.200886,-0.2033555 0.31992,-0.2907451 0.41304,-0.303235 0.06468,-0.00868 0.0721,-0.00407 0.243697,0.1511457 0.324715,0.2937289 1.146879,1.1867074 1.58024,1.7163503 0.06101,0.074561 0.108452,0.1380355 0.105434,0.1410541 -0.003,0.00302 -0.03481,-0.012972 -0.07065,-0.035535 -0.264557,-0.166558 -0.634428,-0.2238363 -0.952705,-0.1475361 -0.481178,0.1153522 -0.868741,0.5250454 -0.9525,1.0068898 -0.03113,0.1790698 -0.01275,0.4470508 0.04175,0.6086271 0.02914,0.086393 0.269758,0.542417 0.688627,1.3050848 0.354112,0.6447596 0.650022,1.1819418 0.657578,1.1937381 0.01006,0.015706 0.306094,-0.1391651 1.105797,-0.578502 1.084441,-0.595765 1.092256,-0.5997011 1.120394,-0.5642944 0.01559,0.01961 0.02467,0.041589 0.02019,0.048841 -0.0045,0.00725 -6.8e-5,0.013186 0.0098,0.013186 0.0099,0 0.01795,0.011441 0.01795,0.025424 0,0.013983 0.0076,0.025424 0.01695,0.025424 0.0093,0 0.01695,0.011441 0.01695,0.025424 0,0.013983 0.0081,0.025424 0.01795,0.025424 0.0099,0 0.0132,0.00768 0.0074,0.017069 -0.0058,0.00939 0.0013,0.021628 0.01585,0.0272 0.01452,0.00557 0.02264,0.016214 0.01805,0.023649 -0.0046,0.00744 0.1825,0.3008661 0.415767,0.6520687 0.826276,1.2440254 1.135156,1.7505511 1.135156,1.8615171 0,0.155539 -0.636615,0.3917354 -2.020948,0.7498112 -0.667112,0.1725573 -0.986366,0.2628742 -0.993212,0.28098 -0.0031,0.00827 -0.01235,0.010915 -0.0205,0.00588 -0.0081,-0.00503 -0.02847,-0.00173 -0.04516,0.00735 -0.01669,0.00908 -0.0864,0.032668 -0.154912,0.05242 -0.06851,0.019752 -0.165754,0.054754 -0.216101,0.077784 l -0.09154,0.041872 3.35e-4,0.1054354 c 3.77e-4,0.1187569 0.03932,0.5224799 0.06728,0.6974839 0.02833,0.17736 0.03665,0.25046 0.03532,0.310494 -6.69e-4,0.0303 0.0066,0.05508 0.01605,0.05508 0.0095,0 0.0129,0.01737 0.0076,0.03866 -0.01393,0.0555 0.195668,1.498117 0.43327,2.982126 0.386116,2.411588 0.541888,3.41625 0.541888,3.494945 0,0.03734 -0.01324,0.04632 -0.114407,0.07758 -0.565963,0.174896 -3.806665,0.677872 -4.367569,0.677872 -0.115412,0 -0.128596,-0.0036 -0.160607,-0.04433 z"
   id="path8849"
   inkscape:connector-curvature="0"
   transform="translate(0,-0.84)" /><path
   style="fill:#222b00;stroke-width:0.01694915"
   d="m 12.895699,18.383705 c 0.02184,-0.144417 0.98696,-8.167977 0.98303,-8.172432 -0.0023,-0.0026 -0.182572,0.01055 -0.400567,0.02928 -0.617453,0.05305 -0.960813,0.06872 -1.505941,0.06872 -0.710848,0 -1.129329,-0.03741 -1.517531,-0.135646 C 10.218087,10.113747 10.106335,10.071208 9.9701787,9.989191 9.831116,9.9054232 9.8104265,9.8564603 9.8447578,9.6923739 9.899539,9.4305476 10.091978,9.0558156 10.768281,7.8940153 c 0.579762,-0.9959568 0.778097,-1.3486785 0.770091,-1.3695416 -0.0046,-0.011986 0.01473,-0.0778 0.04296,-0.1462534 0.02823,-0.068453 0.05132,-0.1261584 0.05132,-0.1282337 0,-0.011253 -1.009166,0.1994153 -1.550847,0.3237468 C 9.0413988,6.8125378 7.9518737,7.1229866 7.4313307,7.3289595 7.3625507,7.3561749 7.2983716,7.3758073 7.2887104,7.372587 7.2488869,7.3593124 7.8622165,7.14222 8.3529955,6.9958756 9.356788,6.6965566 11.341417,6.2245237 11.59609,6.2245237 c 0.04471,0 0.05572,-0.023822 0.416965,-0.9025423 0.422532,-1.0277895 0.488738,-1.1769809 0.582769,-1.3132416 0.03711,-0.053776 0.172576,-0.2693856 0.301036,-0.4791313 1.009844,-1.6488511 1.817161,-2.67796613 2.100803,-2.67796613 0.02155,0 -0.06094,0.0915362 -0.248188,0.27542373 -0.303592,0.2981421 -0.490321,0.5287242 -0.977954,1.2076271 -0.495721,0.6901627 -1.054544,1.5228322 -0.999673,1.4895536 0.012,-0.00728 0.06614,-0.041759 0.120293,-0.07662 0.344918,-0.2220252 0.841564,-0.2043396 1.187164,0.042275 0.21547,0.1537562 0.369016,0.3868544 0.427251,0.6486108 0.03976,0.1787049 0.0265,0.4115549 -0.0327,0.5741466 -0.06945,0.1907576 -0.942018,2.3025175 -0.957979,2.3184787 -0.0081,0.00807 -0.436476,-0.1593688 -0.963475,-0.3765536 -0.521923,-0.2150927 -0.956667,-0.3910776 -0.966097,-0.3910776 -0.0094,0 -0.08783,0.1315678 -0.174224,0.2923729 -0.08639,0.160805 -0.280554,0.5097457 -0.431469,0.7754237 C 10.580493,8.3356825 10.401566,8.6670153 10.187031,9.10083 9.978627,9.5222458 9.9410489,9.6198887 9.9259614,9.7791905 9.916,9.88437 9.9161789,9.8849154 9.9823063,9.9510429 10.162531,10.131268 10.623122,10.172131 12.625754,10.18557 l 1.340555,0.009 -0.03828,0.188708 c -0.06303,0.310674 -0.146887,0.928606 -0.29473,2.171759 -0.219511,1.845783 -0.470844,4.149611 -0.558412,5.118644 -0.05917,0.654753 -0.05823,0.634417 -0.02971,0.645361 0.111548,0.0428 4.676711,-0.551594 4.90603,-0.638781 0.03538,-0.01345 0.03912,-0.0231 0.03049,-0.07875 -0.0054,-0.03488 -0.04413,-0.2901 -0.08604,-0.567152 -0.144025,-0.951959 -0.612345,-3.863213 -0.931536,-5.790782 -0.105929,-0.639696 -0.170184,-1.137243 -0.159043,-1.23153 0.0031,-0.025874 0.264007,1.550121 0.579889,3.502212 0.315881,1.95209 0.598534,3.698842 0.628117,3.88167 l 0.05379,0.332415 -0.255236,0.03581 c -2.789782,0.391454 -4.750074,0.665198 -4.827854,0.674186 l -0.09804,0.01133 z"
   id="path8851"
   inkscape:connector-curvature="0"
   transform="translate(0,-0.84)" /><path
   style="fill:#222b00;stroke-width:0.01694915"
   d="m 12.887022,18.432151 c 6.8e-5,-0.007 0.0072,-0.05848 0.01588,-0.114407 0.0087,-0.05593 0.02086,-0.151271 0.02709,-0.211864 0.0062,-0.06059 0.01349,-0.12161 0.01613,-0.135594 0.0026,-0.01398 0.01351,-0.09788 0.02416,-0.18644 0.0218,-0.181106 0.01825,-0.151936 0.08564,-0.70339 0.02734,-0.223729 0.05359,-0.441102 0.05833,-0.483051 0.0047,-0.04195 0.03143,-0.263135 0.05932,-0.491525 0.02789,-0.22839 0.05457,-0.449577 0.05928,-0.491526 0.0047,-0.04195 0.03135,-0.263135 0.0592,-0.491525 0.02784,-0.22839 0.05454,-0.449576 0.05932,-0.491526 0.0048,-0.04195 0.03137,-0.263135 0.05909,-0.491525 0.02772,-0.22839 0.05553,-0.464831 0.06182,-0.525424 0.0063,-0.06059 0.01354,-0.12161 0.01612,-0.135593 0.0055,-0.03001 0.02095,-0.157486 0.03484,-0.288136 0.0054,-0.05127 0.01289,-0.112288 0.01653,-0.135593 0.0073,-0.04649 0.03431,-0.272364 0.05176,-0.432203 0.0061,-0.05593 0.01315,-0.113136 0.01566,-0.127119 0.0025,-0.01398 0.0099,-0.075 0.01635,-0.135593 0.0065,-0.06059 0.0145,-0.129237 0.01783,-0.152542 0.0033,-0.02331 0.01032,-0.08051 0.01556,-0.127119 0.0052,-0.04661 0.05531,-0.466656 0.111266,-0.933436 0.05596,-0.466779 0.101747,-0.869489 0.101747,-0.894909 0,-0.04607 -3.16e-4,-0.04619 -0.09746,-0.03671 -1.062743,0.103709 -2.235421,0.120768 -2.851695,0.04148 -0.493899,-0.06354 -0.9635986,-0.222874 -1.0591452,-0.3592863 -0.088104,-0.1257855 0.047601,-0.484769 0.4626742,-1.2239224 0.08899,-0.1584746 0.271778,-0.4783036 0.406192,-0.7107312 0.134413,-0.2324276 0.257174,-0.445987 0.272801,-0.4745763 0.01563,-0.028589 0.05983,-0.1053705 0.09823,-0.1706247 0.207548,-0.3527097 0.429006,-0.7556751 0.43885,-0.7985316 0.01637,-0.071269 0.0567,-0.1921018 0.0764,-0.228912 0.01468,-0.027432 0.01087,-0.031878 -0.02731,-0.031878 -0.04764,0 -0.957021,0.1913578 -1.499193,0.3154694 -0.6410167,0.1467384 -1.3999739,0.3466466 -1.8898309,0.4977784 -0.2161715,0.066694 -0.2809934,0.08074 -0.2556497,0.055396 0.00699,-0.00699 0.019703,-0.013665 0.028249,-0.014831 0.00855,-0.00117 0.01935,-0.00403 0.024011,-0.00636 0.00466,-0.00233 0.016102,-0.00614 0.025424,-0.00847 0.00932,-0.00233 0.020763,-0.00614 0.025424,-0.00847 0.00466,-0.00233 0.016102,-0.00614 0.025424,-0.00847 0.00932,-0.00233 0.020763,-0.00614 0.025424,-0.00847 0.00466,-0.00233 0.016102,-0.00614 0.025424,-0.00847 0.00932,-0.00233 0.020763,-0.00614 0.025424,-0.00847 0.00466,-0.00233 0.014195,-0.00585 0.021187,-0.00782 0.00699,-0.00197 0.024152,-0.00856 0.038136,-0.014633 0.013983,-0.00608 0.044491,-0.014386 0.067797,-0.018463 0.023305,-0.00408 0.04428,-0.00893 0.04661,-0.01079 0.00233,-0.00186 0.00996,-0.00445 0.016949,-0.00576 0.00699,-0.00131 0.022246,-0.00843 0.033898,-0.015831 0.011653,-0.0074 0.028287,-0.00906 0.036964,-0.0037 0.00868,0.00536 0.020646,0.00188 0.026595,-0.00775 0.00595,-0.00963 0.01739,-0.01344 0.025424,-0.00847 0.00803,0.00497 0.019474,0.00115 0.025424,-0.00847 0.00595,-0.00963 0.018251,-0.012907 0.027337,-0.00729 0.00909,0.00562 0.027627,9.932e-4 0.041202,-0.010273 0.013575,-0.011266 0.024681,-0.014802 0.024681,-0.00786 0,0.00694 0.010236,0.00413 0.022746,-0.00625 0.01251,-0.010383 0.02758,-0.014043 0.033489,-0.00813 0.00591,0.00591 0.022368,0.00109 0.036576,-0.010697 0.014208,-0.011792 0.025833,-0.016424 0.025833,-0.010294 0,0.00613 0.014074,0.00361 0.031276,-0.00559 0.017202,-0.00921 0.053431,-0.021316 0.080509,-0.026911 0.079544,-0.016435 0.082164,-0.017215 0.104317,-0.031054 0.011653,-0.00728 0.028287,-0.00885 0.036964,-0.00348 0.00868,0.00536 0.020646,0.00188 0.026595,-0.00775 0.00595,-0.00963 0.017917,-0.013114 0.026595,-0.00775 0.00868,0.00536 0.025312,0.0038 0.036964,-0.00348 0.011653,-0.00728 0.03072,-0.015357 0.042373,-0.017949 0.045664,-0.01016 0.080892,-0.019245 0.088983,-0.022948 0.00466,-0.00213 0.016102,-0.00565 0.025424,-0.00782 0.00932,-0.00217 0.020763,-0.0054 0.025424,-0.00719 0.014235,-0.00546 0.074335,-0.018967 0.1101695,-0.024755 0.018644,-0.00301 0.033898,-0.00703 0.033898,-0.00894 0,-0.0019 0.011441,-0.00624 0.025424,-0.00965 0.027581,-0.00671 0.081923,-0.020175 0.1355933,-0.033592 l 0.067797,-0.016949 0.067797,-0.016949 C 9.075459,6.7875519 10.327566,6.4745251 9.802148,6.6058797 l 0.067797,-0.016949 0.067797,-0.016949 c 0.077319,-0.01933 0.095691,-0.024315 0.14703,-0.039894 0.02959,-0.00898 0.05801,-0.012126 0.06315,-0.00699 0.0051,0.00514 0.01906,0.00167 0.03094,-0.00771 0.01188,-0.00938 0.03304,-0.017481 0.04702,-0.018003 0.02371,-8.847e-4 0.03997,-0.00444 0.13983,-0.030614 0.02097,-0.0055 0.05339,-0.012488 0.07203,-0.015537 0.01864,-0.00305 0.0339,-0.00715 0.0339,-0.00912 0,-0.00197 0.01525,-0.00587 0.0339,-0.00868 0.01864,-0.00281 0.05297,-0.010065 0.07627,-0.016123 0.02331,-0.00606 0.05763,-0.013816 0.07627,-0.017239 0.01864,-0.00342 0.05297,-0.01105 0.07627,-0.016949 0.02331,-0.0059 0.05763,-0.013571 0.07627,-0.017049 0.06559,-0.012236 0.110225,-0.022338 0.262711,-0.059461 0.04195,-0.010212 0.182802,-0.036643 0.313007,-0.058733 0.146222,-0.024808 0.243524,-0.04945 0.254492,-0.064449 0.0098,-0.013356 0.169865,-0.3932853 0.355775,-0.8442873 0.18591,-0.4510019 0.344106,-0.8225615 0.351546,-0.8256883 0.0074,-0.00313 0.0092,-0.012661 0.0039,-0.021187 -0.0053,-0.00853 -0.0011,-0.015501 0.0094,-0.015501 0.01042,0 0.01456,-0.0071 0.0092,-0.015778 -0.0054,-0.00868 -0.0019,-0.020646 0.0077,-0.026595 0.0096,-0.00595 0.01311,-0.017917 0.0078,-0.026595 -0.0054,-0.00868 -0.0012,-0.015778 0.0092,-0.015778 0.01042,0 0.01456,-0.0071 0.0092,-0.015778 -0.0054,-0.00868 -0.0019,-0.020646 0.0077,-0.026595 0.0096,-0.00595 0.01312,-0.017917 0.0078,-0.026595 -0.0054,-0.00868 -0.0012,-0.015778 0.0092,-0.015778 0.01042,0 0.01424,-0.00763 0.0085,-0.016949 -0.0058,-0.00932 -0.0019,-0.016949 0.0085,-0.016949 0.01042,0 0.01424,-0.00763 0.0085,-0.016949 -0.0058,-0.00932 -0.0036,-0.016949 0.0049,-0.016949 0.0085,0 0.02914,-0.030533 0.04597,-0.067851 0.01683,-0.037318 0.08217,-0.1498182 0.145201,-0.25 0.06303,-0.1001821 0.231271,-0.3690134 0.373863,-0.5974033 0.899877,-1.4413349 1.624992,-2.36937237 1.925827,-2.4647677 0.02148,-0.006811 0.03814,-0.00498 0.03814,0.004194 0,0.008958 -0.116448,0.1372259 -0.258773,0.2850404 -0.280111,0.2909162 -0.369737,0.3971127 -0.641642,0.7602792 -0.299046,0.3994165 -0.935962,1.3039868 -1.085998,1.5423729 -0.02347,0.037288 -0.08604,0.1349805 -0.139038,0.2170941 -0.06436,0.099702 -0.08517,0.1433072 -0.06267,0.1312649 0.01853,-0.00992 0.03846,-0.025743 0.04428,-0.035167 0.0058,-0.00942 0.01689,-0.01324 0.02459,-0.00848 0.0077,0.00476 0.01856,-0.00323 0.02413,-0.017747 0.0056,-0.01452 0.01781,-0.021653 0.0272,-0.015852 0.0094,0.0058 0.01707,0.00202 0.01707,-0.0084 0,-0.010422 0.0089,-0.013435 0.01983,-0.00669 0.01334,0.00825 0.01628,0.00301 0.009,-0.016006 -0.01732,-0.045136 0.690165,-1.0968181 1.126132,-1.6740019 0.236076,-0.3125458 0.526385,-0.6473224 0.687369,-0.7926545 0.132962,-0.1200351 0.273505,-0.1972469 0.332213,-0.182512 0.102413,0.025704 0.831946,0.771553 1.436658,1.468789 0.303115,0.3494925 0.440243,0.5188825 0.429089,0.5300371 -0.0053,0.00532 -0.04517,-0.012118 -0.08854,-0.038759 -0.175849,-0.1080171 -0.5134,-0.1832017 -0.722924,-0.1610208 -0.16084,0.017027 -0.342613,0.07202 -0.490566,0.1484146 -0.103237,0.053305 -0.174122,0.1078894 -0.290539,0.2237288 -0.130235,0.1295878 -0.166179,0.1780573 -0.233033,0.3142383 -0.106762,0.2174729 -0.135966,0.3394278 -0.135966,0.5677966 0,0.3432925 -0.01067,0.3194541 0.819191,1.8305085 0.449082,0.817715 0.583503,1.04956 0.605905,1.0450439 0.03219,-0.00649 0.125028,-0.056393 1.175536,-0.6319014 0.406265,-0.2225673 0.747579,-0.404668 0.758475,-0.404668 0.01089,0 0.01981,-0.00808 0.01981,-0.01795 0,-0.00987 0.0076,-0.013236 0.01695,-0.00747 0.0093,0.00576 0.01695,0.00195 0.01695,-0.00847 0,-0.010422 0.0076,-0.014236 0.01695,-0.00847 0.0093,0.00576 0.01695,0.00195 0.01695,-0.00847 0,-0.010422 0.0076,-0.014236 0.01695,-0.00847 0.0093,0.00576 0.01695,0.00367 0.01695,-0.00465 0,-0.00832 0.0095,-0.016268 0.02119,-0.017666 0.01165,-0.0014 0.04597,-0.00735 0.07627,-0.013223 0.0471,-0.00913 0.05508,-0.00585 0.05508,0.022666 0,0.018341 0.01716,0.052499 0.03814,0.075908 0.02097,0.023409 0.03982,0.050538 0.04187,0.060288 0.0058,0.027338 0.196919,0.3254673 0.659933,1.0292197 0.611082,0.9288066 0.866535,1.3453466 0.9224,1.50406 0.02139,0.060773 0.02025,0.06558 -0.02764,0.1167615 -0.05799,0.061967 -0.282153,0.1721325 -0.524527,0.2577754 -0.366671,0.1295638 -0.703955,0.2264405 -1.779661,0.5111646 -0.534605,0.1415024 -0.652542,0.1772478 -0.652542,0.1977773 0,0.00904 -0.01525,0.011599 -0.0339,0.00568 -0.0202,-0.00641 -0.0339,-0.00305 -0.0339,0.00833 0,0.0105 -0.0073,0.01457 -0.01626,0.00904 -0.0089,-0.00553 -0.02992,-0.00291 -0.04661,0.00581 -0.01669,0.00872 -0.114249,0.045322 -0.216791,0.081328 l -0.186441,0.065464 0.0035,0.092976 c 0.0019,0.051136 0.09233,0.6268737 0.200857,1.2794167 0.108527,0.652542 0.200891,1.209322 0.205253,1.237288 0.03058,0.196078 0.07431,0.464502 0.08135,0.499321 0.0046,0.02293 0.01268,0.07251 0.01787,0.11017 0.0052,0.03766 0.02387,0.152373 0.04149,0.254916 0.03089,0.1797 0.04062,0.240222 0.06063,0.377118 0.0051,0.03496 0.02365,0.147458 0.0412,0.25 0.03025,0.176708 0.03842,0.227541 0.06065,0.377119 0.0052,0.03496 0.02027,0.12839 0.0335,0.207627 0.01323,0.07924 0.02867,0.173636 0.03432,0.209775 0.0056,0.03614 0.01332,0.0816 0.01706,0.101016 0.0037,0.01942 0.01112,0.06612 0.0164,0.103785 0.0053,0.03766 0.02106,0.137119 0.03507,0.221017 0.01401,0.0839 0.02864,0.17161 0.03252,0.194916 0.0039,0.02331 0.01157,0.07288 0.01709,0.110169 0.0055,0.03729 0.0252,0.159322 0.04373,0.271186 0.04342,0.262143 0.04756,0.287365 0.05631,0.343221 0.03542,0.226106 0.07894,0.494956 0.08563,0.528982 0.0045,0.02293 0.01263,0.07251 0.01805,0.11017 0.01091,0.07575 0.07192,0.455679 0.08176,0.509153 0.02712,0.14736 0.08222,0.535767 0.07678,0.541191 -0.0037,0.0037 -0.04113,0.01168 -0.08308,0.01767 -0.04195,0.006 -0.09534,0.01382 -0.118645,0.01741 -0.02331,0.0036 -0.07288,0.01051 -0.110169,0.0154 -0.03729,0.0049 -0.258475,0.03613 -0.491525,0.06943 -0.233051,0.0333 -0.450424,0.06384 -0.483051,0.06786 -0.132873,0.01637 -0.458587,0.06212 -0.601695,0.08452 -0.0839,0.01313 -0.194492,0.02858 -0.245763,0.03433 -0.05127,0.0058 -0.161864,0.02102 -0.245763,0.03394 -0.0839,0.01291 -0.198305,0.02817 -0.254237,0.03391 -0.05593,0.0057 -0.113328,0.01369 -0.127546,0.01766 -0.01422,0.004 -0.08286,0.01454 -0.152543,0.02347 -0.06968,0.0089 -0.157199,0.02061 -0.194487,0.02594 -0.196583,0.02811 -0.295713,0.04191 -0.365971,0.05092 -0.04281,0.0055 -0.0962,0.01284 -0.118644,0.01632 -0.02244,0.0035 -0.07773,0.0114 -0.12285,0.01758 -0.04512,0.0062 -0.0947,0.01364 -0.11017,0.01657 -0.03206,0.0061 -0.144895,0.02129 -0.256941,0.03466 -0.04195,0.005 -0.21356,0.02859 -0.381356,0.05241 -0.167797,0.02382 -0.335594,0.04688 -0.372882,0.05125 -0.03729,0.0044 -0.113559,0.01516 -0.169491,0.02398 -0.123373,0.01945 -0.161058,0.02029 -0.160889,0.0036 z m 0.822477,-0.174443 c 0.529545,-0.05974 1.440493,-0.173903 2.16892,-0.271815 0.279661,-0.03759 0.538983,-0.07204 0.576271,-0.07655 0.0885,-0.01071 0.154005,-0.01923 0.237289,-0.03086 0.03729,-0.0052 0.09313,-0.01289 0.124089,-0.01707 0.03096,-0.0042 0.07672,-0.01169 0.101695,-0.01668 0.02497,-0.005 0.07972,-0.01283 0.121673,-0.01742 0.04195,-0.0046 0.114407,-0.01532 0.161017,-0.02385 0.04661,-0.0085 0.09619,-0.01567 0.11017,-0.01586 0.04515,-6.27e-4 0.628087,-0.104033 0.644824,-0.114376 0.0089,-0.0055 0.01619,-0.03314 0.01619,-0.06142 0,-0.09561 -0.351708,-2.322366 -0.797357,-5.048283 -0.131828,-0.806356 -0.243009,-1.492797 -0.247069,-1.525424 -0.0041,-0.03263 -0.0098,-0.08034 -0.01266,-0.106039 -0.0055,-0.04891 -0.02766,-0.08586 -0.02766,-0.04616 0,0.04467 0.121487,0.930489 0.196376,1.431862 0.09127,0.611039 0.192376,1.257666 0.4068,2.601695 0.242415,1.51948 0.377674,2.40468 0.383298,2.508475 l 0.0051,0.09322 -0.111742,0.03736 c -0.57469,0.192157 -4.282394,0.748552 -4.480814,0.672411 -0.08204,-0.03148 -0.137687,-0.315764 -0.119021,-0.608079 0.05552,-0.869408 0.427783,-4.264916 0.734925,-6.70339 0.0546,-0.433475 0.09456,-0.793042 0.08881,-0.79904 -0.0058,-0.006 -0.666394,-0.01499 -1.468089,-0.01998 -0.833062,-0.0052 -1.552038,-0.0171 -1.677966,-0.02781 -0.437119,-0.03716 -0.654703,-0.092 -0.746876,-0.1882507 -0.0763,-0.079677 -0.06776,-0.1631709 0.04321,-0.4225434 0.127029,-0.2968985 0.410461,-0.8780697 0.686075,-1.4067797 0.359233,-0.6891159 0.653184,-1.2642985 0.653184,-1.2781051 0,-0.026307 -0.0444,0.035559 -0.07491,0.1043763 -0.01756,0.039619 -0.037,0.072034 -0.04319,0.072034 -0.0062,0 -0.02864,0.041949 -0.04989,0.09322 -0.02125,0.051271 -0.0445,0.09322 -0.05166,0.09322 -0.0072,0 -0.02613,0.034322 -0.04215,0.076271 -0.01602,0.041949 -0.03612,0.076271 -0.04468,0.076271 -0.0086,0 -0.01555,0.00827 -0.01555,0.018388 0,0.010114 -0.119494,0.2293933 -0.265543,0.4872882 -0.482632,0.8522359 -0.829995,1.5268295 -0.9120224,1.7711859 -0.053949,0.16071 -0.065407,0.2919261 -0.030186,0.3456797 0.034273,0.052308 0.1425344,0.1133568 0.2585994,0.1458248 0.286342,0.0801 0.845342,0.107255 2.53784,0.123277 l 1.224281,0.01159 -0.0081,0.03567 c -0.03598,0.158162 -0.104347,0.588715 -0.160078,1.008163 -0.236174,1.7775 -0.763057,6.590068 -0.763345,6.972424 l -7.4e-5,0.09746 h 0.106504 c 0.05858,0 0.312178,-0.0232 0.563559,-0.05156 z m 3.179464,-7.468354 c -0.01477,-0.0254 -0.01808,-0.02614 -0.0185,-0.0041 -5.47e-4,0.02854 0.01727,0.05424 0.02929,0.04223 0.004,-0.004 -8.92e-4,-0.02112 -0.01078,-0.03814 z m -0.0074,-0.09343 c -0.0054,-0.01352 -0.0094,-0.0095 -0.01024,0.01024 -7.36e-4,0.01787 0.0033,0.02788 0.0089,0.02225 0.0056,-0.0056 0.0062,-0.02025 0.0013,-0.03249 z m -0.0173,-0.119703 c -0.0047,-0.01165 -0.0085,-0.0021 -0.0085,0.02119 0,0.02331 0.0038,0.03284 0.0085,0.02119 0.0047,-0.01165 0.0047,-0.03072 0,-0.04237 z m -0.0166,-0.117585 c -0.0054,-0.01352 -0.0094,-0.0095 -0.01024,0.01024 -7.35e-4,0.01787 0.0033,0.02788 0.0089,0.02225 0.0056,-0.0056 0.0062,-0.02025 0.0013,-0.03249 z M 13.530962,7.3298507 c 0,-0.00732 -0.01335,-0.013563 -0.02966,-0.013862 -0.01631,-3e-4 -0.04873,-0.00567 -0.07203,-0.011938 -0.03397,-0.00913 -0.03229,-0.00653 0.0085,0.013098 0.05728,0.027589 0.09322,0.032487 0.09322,0.012703 z M 13.36147,7.2753712 c -0.01398,-0.00904 -0.03305,-0.01643 -0.04237,-0.01643 -0.0093,0 -0.0055,0.00739 0.0085,0.01643 0.01398,0.00904 0.03305,0.01643 0.04237,0.01643 0.0093,0 0.0055,-0.00739 -0.0085,-0.01643 z m 1.163768,-2.4957627 c -0.0047,-0.011653 -0.0085,-0.00212 -0.0085,0.021186 0,0.023305 0.0038,0.032839 0.0085,0.021187 0.0047,-0.011653 0.0047,-0.03072 0,-0.042373 z m 3.52e-4,-0.253178 c -0.0054,-0.013521 -0.0094,-0.0095 -0.01024,0.01024 -7.36e-4,0.017867 0.0033,0.027878 0.0089,0.022246 0.0056,-0.00563 0.0062,-0.020251 0.0013,-0.032486 z M 14.293673,3.9808363 c 0,-0.00352 -0.01335,-0.016867 -0.02966,-0.029661 -0.02688,-0.021083 -0.02748,-0.020483 -0.0064,0.0064 0.02214,0.028233 0.03606,0.037211 0.03606,0.023262 z m -1.00459,-0.3767222 c -0.0056,-0.00563 -0.02025,-0.00623 -0.03249,-0.00134 -0.01352,0.00541 -0.0095,0.00943 0.01024,0.01024 0.01787,7.356e-4 0.02788,-0.00327 0.02225,-0.0089 z m 0.355932,0 c -0.0056,-0.00563 -0.02025,-0.00623 -0.03249,-0.00134 -0.01352,0.00541 -0.0095,0.00943 0.01024,0.01024 0.01787,7.356e-4 0.02788,-0.00327 0.02225,-0.0089 z m -0.160341,-0.017827 c -0.01148,-0.00464 -0.03436,-0.00493 -0.05085,-6.289e-4 -0.01649,0.0043 -0.0071,0.0081 0.02086,0.00844 0.02797,3.458e-4 0.04146,-0.00317 0.02998,-0.00781 z"
   id="path8853"
   inkscape:connector-curvature="0"
   transform="translate(0,-0.84)" /><path
   style="fill:#222b00;stroke-width:0.01694915"
   d="m 12.893689,18.372829 c 0.0096,-0.0649 0.612532,-5.054851 0.877457,-7.261836 0.05841,-0.486594 0.102213,-0.888705 0.09734,-0.893578 -0.0049,-0.0049 -0.122853,0.0017 -0.262175,0.01464 -1.033335,0.09586 -2.19681,0.102978 -2.761789,0.01689 C 10.373318,10.177145 9.9720039,10.036234 9.8691663,9.9064744 9.8379019,9.8670253 9.8336926,9.844962 9.8409195,9.758422 9.8606522,9.5221297 10.026198,9.1822576 10.654102,8.0889305 10.81739,7.8046085 11.076404,7.3539229 11.22969,7.0874068 11.448495,6.7069739 11.519966,6.567079 11.562244,6.4364714 11.591863,6.3449727 11.612903,6.266917 11.609,6.2630137 11.599532,6.2535464 10.997229,6.3734573 10.47164,6.4894473 9.6433316,6.6722432 8.935902,6.8532203 8.2580965,7.0557239 8.1033598,7.1019537 7.966453,7.139778 7.9538593,7.139778 c -0.1004624,0 0.2559359,-0.1165529 0.8752908,-0.2862461 0.7989923,-0.2189112 2.0013889,-0.5047629 2.5328379,-0.6021444 0.27755,-0.050858 0.275962,-0.050285 0.299041,-0.1078253 0.223065,-0.5561334 0.787327,-1.8860515 0.832195,-1.9614114 0.0333,-0.055932 0.08884,-0.1474576 0.123412,-0.2033898 0.582499,-0.9422974 0.597147,-0.9653524 0.936897,-1.4745763 0.451626,-0.676907 0.856066,-1.1983316 1.123585,-1.4485824 0.162606,-0.15211086 0.311471,-0.24186012 0.311471,-0.18778391 0,0.008897 -0.113472,0.13362401 -0.25216,0.27717151 -0.358605,0.3711702 -0.616224,0.701944 -1.256599,1.6134321 -0.211046,0.3003963 -0.642587,0.9434646 -0.680883,1.0146282 -0.01658,0.030804 -0.01567,0.030804 0.03708,0 0.08432,-0.049243 0.108223,-0.0797 0.311848,-0.3973824 0.823793,-1.28523 1.597089,-2.2344117 1.892469,-2.3229098 0.06145,-0.01841 0.07119,-0.01633 0.137605,0.029366 0.09758,0.06714 0.537128,0.5076987 0.890224,0.8922699 0.472685,0.5148206 0.934604,1.0551506 0.917044,1.0727111 -0.0044,0.00441 -0.0493,-0.014891 -0.09978,-0.042881 -0.21353,-0.1184167 -0.526412,-0.1812459 -0.757257,-0.1520634 -0.43456,0.054936 -0.796725,0.3127848 -0.987225,0.7028714 -0.08847,0.1811612 -0.117917,0.3164234 -0.11822,0.5430492 -3.17e-4,0.2363711 0.02469,0.3352025 0.14996,0.592544 0.158875,0.3263885 1.164804,2.1558248 1.231142,2.2390204 l 0.03554,0.044577 0.109348,-0.055117 c 0.08825,-0.04448 0.759182,-0.4095644 1.83886,-1.0006013 0.124478,-0.068141 0.260297,-0.1036365 0.264132,-0.069029 0.0012,0.010514 0.0031,0.026495 0.0042,0.035515 0.0012,0.00902 0.01724,0.033808 0.03571,0.055085 0.01848,0.021277 0.03175,0.044618 0.0295,0.051869 -0.0023,0.00725 0.0074,0.017584 0.02139,0.022962 0.01402,0.00538 0.02123,0.016661 0.01603,0.025072 -0.0052,0.00841 0.0024,0.019852 0.01695,0.025424 0.01452,0.00557 0.02281,0.015942 0.01842,0.023044 -0.0044,0.0071 0.101066,0.1798198 0.234345,0.3838173 0.13328,0.2039972 0.371923,0.5692093 0.530318,0.8115822 0.533768,0.8167586 0.768936,1.2136023 0.768936,1.2975718 0,0.1078033 -0.351783,0.274597 -0.974577,0.4620836 -0.329784,0.099279 -0.632854,0.1830905 -1.237288,0.3421629 -0.585478,0.1540837 -0.766631,0.2076074 -0.780924,0.2307335 -0.0059,0.00947 -0.02261,0.012625 -0.03723,0.00701 -0.01462,-0.00561 -0.03102,-0.00423 -0.03642,0.00308 -0.0054,0.00731 -0.112796,0.048127 -0.238643,0.090711 l -0.228814,0.077425 0.0054,0.083592 c 0.003,0.045976 0.09227,0.6098634 0.198407,1.2530834 0.334885,2.029573 1.058866,6.512038 1.058866,6.555878 0,0.05071 0.06816,0.0369 -0.728813,0.147707 -0.340254,0.04731 -1.266949,0.176907 -2.059322,0.287997 -2.251604,0.315674 -2.297463,0.321978 -2.342584,0.321978 -0.04051,0 -0.04209,-0.0036 -0.03198,-0.07203 z m 0.640547,-0.09802 c 0.943615,-0.09936 3.331135,-0.414246 4.056048,-0.534951 0.382128,-0.06363 0.372091,-0.06067 0.378032,-0.111207 0.0081,-0.0691 -0.315398,-2.127357 -0.826487,-5.258141 -0.12157,-0.744704 -0.221037,-1.361865 -0.221037,-1.371469 0,-0.0096 -0.0043,-0.01313 -0.0096,-0.0078 -0.02363,0.02363 0.155712,1.241589 0.543468,3.690941 0.258667,1.633933 0.397316,2.530069 0.423956,2.740177 0.01515,0.119491 0.01774,0.118191 -0.432376,0.217092 -0.906412,0.19916 -3.286128,0.558173 -3.94766,0.59556 l -0.201942,0.01141 -0.04236,-0.04571 c -0.131047,-0.141401 -0.122975,-0.415664 0.06589,-2.238869 0.152337,-1.470548 0.365494,-3.325996 0.585526,-5.096767 0.04947,-0.398138 0.08392,-0.729917 0.07656,-0.737289 -0.0074,-0.0074 -0.666786,-0.01829 -1.46538,-0.02426 -1.494003,-0.01117 -1.791499,-0.02312 -2.094232,-0.08411 -0.2419,-0.048737 -0.355195,-0.1171135 -0.37577,-0.2267864 -0.02488,-0.132641 0.230261,-0.6857917 0.993169,-2.153177 0.357064,-0.686782 0.432439,-0.8386327 0.416275,-0.8386327 -0.004,0 -0.04348,0.066737 -0.08766,0.1483051 -0.04418,0.081568 -0.230449,0.4152542 -0.413923,0.7415254 -0.44215,0.7862729 -0.547311,0.9816905 -0.765749,1.4229692 -0.2048307,0.4137902 -0.2512148,0.5413129 -0.2512148,0.6906602 0,0.09167 0.00511,0.1063577 0.052363,0.1504983 0.065565,0.061246 0.2602818,0.1240299 0.4645858,0.1497989 0.324029,0.04087 0.658144,0.05231 2.059322,0.07049 0.797034,0.01034 1.451133,0.0207 1.453554,0.02301 0.0024,0.0023 -0.0105,0.07661 -0.02871,0.165109 -0.04011,0.194935 -0.11784,0.726303 -0.186748,1.276621 -0.266942,2.131856 -0.712676,6.246783 -0.712676,6.579276 v 0.09022 h 0.08378 c 0.04608,0 0.231039,-0.01551 0.411017,-0.03446 z m 3.364403,-7.384713 c -0.0043,-0.01649 -0.0081,-0.0071 -0.0084,0.02086 -3.46e-4,0.02797 0.0032,0.04146 0.0078,0.02998 0.0046,-0.01148 0.0049,-0.03436 6.29e-4,-0.05085 z M 13.505538,7.3262186 c -0.04659,-0.020022 -0.07336,-0.020022 -0.04237,0 0.01398,0.00904 0.03686,0.016011 0.05085,0.015498 0.01676,-6.136e-4 0.01388,-0.00589 -0.0085,-0.015498 z"
   id="path8855"
   inkscape:connector-curvature="0"
   transform="translate(0,-0.84)" /><path
   style="fill:#222b00;stroke-width:0.04793944"
   d="M 15.775312,5.773272 C 15.417577,5.1206963 15.099579,4.4912273 15.068649,4.3744519 14.927375,3.8410802 15.239035,3.212514 15.762724,2.974619 c 0.265763,-0.1207277 0.750948,-0.1171249 1.025871,0.00762 0.185194,0.084029 0.551843,0.3589541 0.524433,0.3932359 -0.0099,0.01238 0.735928,1.3936204 1.117525,2.0696098 0.102761,0.1820378 0.181173,0.3347954 0.17425,0.3394612 -0.03657,0.024648 -2.15962,1.1752294 -2.168526,1.1752294 -0.0058,0 -0.303231,-0.5339255 -0.660965,-1.1865012 z"
   id="path8857"
   inkscape:connector-curvature="0"
   transform="translate(0,-0.84)" /><path
   style="fill:#222b00"
   id="path8859"
   d="m 15.142611,2.3677876 c 0.03589,0.073431 0.08376,0.140402 0.131337,0.2066127 0.0548,0.079786 0.106902,0.1612858 0.155988,0.2447039 0.04251,0.079013 0.08033,0.1603055 0.124375,0.2384901 0.0289,0.061348 0.07236,0.1132208 0.108945,0.1696757 0.01676,0.032735 0.03866,0.062308 0.05708,0.094081 0.02012,0.02222 0.02742,0.052787 0.04771,0.074594 0.02111,0.02752 0.04381,0.053692 0.06494,0.08112 0.01032,0.010711 0.03041,0.060782 0.04998,0.040521 -0.0058,-0.2962566 0.0038,-0.036546 -0.739595,0.3916626 -0.0054,0.00312 0.01003,0.011009 0.0161,0.00956 0.0063,-0.00151 0.0089,-0.00992 0.0111,-0.016047 0.006,-0.016794 0.0079,-0.05392 0.0093,-0.07029 0.0042,-0.0866 0.0038,-0.1733457 0.0042,-0.2600265 0.0057,-0.1084663 -0.01017,-0.2155556 -0.03047,-0.3216864 -0.02275,-0.1202259 -0.05339,-0.2387222 -0.0776,-0.3586723 -0.01745,-0.094631 -0.02455,-0.1907235 -0.02866,-0.2867316 -0.0017,-0.05845 -0.0037,-0.1168886 -0.0047,-0.1753531 3.3e-4,-0.043952 5.96e-4,-0.087894 2.43e-4,-0.1318474 -0.0035,-0.3531441 -0.09473,-0.027141 0.761698,-0.4567981 0.0098,0.047894 0.02642,0.093966 0.0437,0.1395791 0.01544,0.052729 0.03784,0.1022969 0.06307,0.1509155 0.01795,0.03438 0.03012,0.07593 0.06416,0.097869 0.003,-9.01e-5 0.0068,0.00171 0.009,-2.703e-4 2.04e-4,-1.775e-4 0.01165,-0.029514 0.0078,-0.027462 -0.245296,0.1320285 -0.487818,0.2691827 -0.729885,0.4070425 -0.0041,0.00236 0.0097,0.0019 0.01429,4.935e-4 0.0047,-0.00144 0.0079,-0.00571 0.01185,-0.00856 0.02997,-0.024455 0.03599,-0.064381 0.04918,-0.098931 0.01361,-0.030599 0.0206,-0.06289 0.02416,-0.096 -0.0062,-0.325759 0.460279,-0.5392835 0.776414,-0.5026231 0.02253,0.00354 0.03914,0.00269 0.05909,-0.00843 0.04041,-0.022519 -0.02151,0.00395 0.02476,-0.014576 0.233297,-0.1385984 -0.900999,0.5573895 -0.693601,0.3958444 0.234907,-0.1829729 0.483516,-0.4004818 0.77901,-0.4371369 0.02322,-0.0219 0.05715,-0.017729 0.08681,-0.017445 0.05066,-0.00205 0.0655,0.0019 0.106003,0.033554 0.03294,0.027733 0.05607,0.05916 0.07141,0.099381 0.0084,0.026363 0.0098,0.055543 0.02532,0.079176 0.02202,0.023337 0.03259,0.053934 0.04688,0.081989 0.0082,0.018551 0.02042,0.025376 0.03805,0.031893 0.0039,0.00144 0.0072,0.00542 0.01138,0.00515 0.0024,-1.551e-4 0.0025,-0.00409 0.0037,-0.00613 -0.107549,-0.2839488 -4.4e-4,-0.023747 -0.737025,0.3911017 -0.0042,0.00235 0.0067,-0.00699 0.01069,-0.00958 0.01594,-0.010285 0.01799,-0.00174 0.03033,-0.019526 0.136344,-0.2686017 0.483366,-0.2999286 0.765347,-0.4525762 1.8e-4,-9.74e-5 0.04355,0.014055 0.05531,0.016442 0.04038,0.018296 0.07732,0.045472 0.11103,0.074076 0.03389,0.028916 0.06078,0.063067 0.08416,0.1006941 0.01862,0.032114 0.02931,0.068077 0.0496,0.099263 0.218901,0.2799903 -0.03621,0.1105123 -0.710887,0.4794877 -0.01931,-0.027167 -0.02618,-0.061072 -0.04501,-0.088312 -0.02377,-0.019062 -0.04129,-0.04459 -0.06566,-0.063054 -0.02409,-0.023472 -0.0543,-0.037087 -0.08075,-0.058165 -0.03292,-0.029107 -0.06477,-0.058847 -0.0993,-0.085997 -0.03024,-0.024906 -0.05575,-0.054174 -0.08168,-0.083431 -0.0256,-0.028529 -0.04687,-0.059207 -0.06457,-0.093235 -0.01819,-0.024009 -0.0346,-0.050464 -0.05629,-0.071483 -0.0034,-0.00193 -0.0068,-0.00386 -0.01014,-0.00579 -0.0035,-9.35e-4 -0.0073,-0.00119 -0.01064,-0.0028 -0.02127,-0.010398 -0.02256,-0.015486 -0.04753,-0.016844 -0.0291,2.506e-4 -0.0582,0.0011 -0.0873,0.00155 -0.03693,5.078e-4 -0.07385,1.694e-4 -0.110781,3.309e-4 -0.04189,3.933e-4 -0.08377,-4.879e-4 -0.125667,-3.701e-4 -0.0073,4.12e-5 -0.01471,-0.00105 -0.02193,1.235e-4 -0.01124,0.00183 -0.02131,0.0082 -0.03233,0.011073 -0.01052,0.00275 -0.02209,0.00133 -0.03217,0.00541 -0.0043,0.00172 -0.0071,0.00587 -0.01059,0.00881 -0.0041,0.00187 -0.009,0.00256 -0.01228,0.0056 -0.0034,0.0031 -0.0037,0.00859 -0.0068,0.011946 -0.0028,0.00305 -0.01412,0.00881 -0.01051,0.00672 1.164693,-1.3569762 0.942379,-0.5304484 0.696166,-0.4014829 -0.04063,0.024785 -0.08106,0.050542 -0.12085,0.076888 -0.0413,0.02781 -0.07834,0.061137 -0.114542,0.09515 -0.03912,0.035588 -0.07394,0.076328 -0.105201,0.1189631 -0.03316,0.047165 -0.05272,0.101459 -0.07175,0.1553791 -0.0156,0.048248 -0.02249,0.098451 -0.02628,0.1488186 -0.0021,0.05723 -0.0029,0.1145082 -0.0023,0.1717717 3.72e-4,0.065853 -4.14e-4,0.1317024 -0.0013,0.197548 -4.13e-4,0.085872 0.01526,0.1708502 0.03387,0.2543587 0.02242,0.092543 0.05659,0.1816 0.08569,0.2721589 0.02613,0.083603 0.05065,0.1681837 0.08979,0.2468021 0.03478,0.061238 0.06752,0.123117 0.09333,0.188696 0.02154,0.048138 0.04235,0.09661 0.05789,0.1470463 0.0076,0.052068 0.02713,0.1002506 0.04559,0.1491328 0.02899,0.080004 0.06057,0.1590252 0.09025,0.2387676 0.03742,0.1030418 0.08005,0.2040638 0.117376,0.3071485 0.03944,0.1091316 0.06822,0.2216329 0.103685,0.3319953 0.02565,0.091534 0.05562,0.1815836 0.08692,0.2712928 0.0175,0.066341 0.05224,0.1252744 0.07983,0.1873486 0.01866,0.043753 0.04173,0.085415 0.06305,0.1278879 0.01723,0.025668 0.03118,0.055939 0.0546,0.076742 0.02714,0.024639 0.04922,0.054437 0.07064,0.084044 0.02803,0.037161 0.05168,0.077354 0.0768,0.1164958 0.03713,0.050018 0.07601,0.098676 0.11281,0.1489511 0.03691,0.063734 0.07417,0.1271895 0.112517,0.190108 0.03236,0.052227 0.0672,0.1027768 0.103094,0.1526238 0.0074,0.010892 0.01879,0.029153 0.02877,0.039273 0.0023,0.00236 0.0051,0.00681 0.0082,0.00562 0.0028,-0.00106 0.003,-0.010345 4.07e-4,-0.00892 C 16.367321,6.8070946 16.34335,7.0972075 16.37074,6.8033844 16.35676,6.7370024 16.33229,6.6734378 16.30998,6.609547 16.28173,6.521284 16.25508,6.4326122 16.23106,6.343119 16.20294,6.2398563 16.17298,6.137128 16.14222,6.0346256 16.10983,5.9330881 16.07657,5.8318097 16.04805,5.7291046 16.03245,5.6713606 16.01402,5.6144168 16.0015,5.555893 15.93638,5.1885031 16.23756,5.2998636 16.742565,5.0054247 c 0.0088,0.00117 0.01747,0.00272 0.02627,0.00351 0.04257,0.00383 0.01896,-0.00172 0.06461,0.00613 0.03856,0.00663 0.07512,0.018422 0.112071,0.030934 0.07641,0.03251 0.145648,0.076916 0.211153,0.1274578 0.05832,0.041347 0.116089,0.082787 0.171193,0.1283353 0.04021,0.027293 0.06817,0.069701 0.10857,0.096166 0.03281,0.019078 0.05416,0.050189 0.07927,0.077563 0.02099,0.028839 0.04291,0.057223 0.0602,0.088459 0.01368,0.028903 0.03657,0.051402 0.05451,0.077659 0.0077,0.020912 0.02518,0.031605 0.03966,0.047048 0.0129,0.01375 0.01959,0.02346 0.03104,0.038602 0.02199,0.042707 0.05428,0.076779 0.08515,0.1127153 0.0059,0.00649 0.0415,0.068704 0.04762,0.066739 0.0022,-7.07e-4 9.77e-4,-0.00453 0.0015,-0.00679 -0.144949,-0.2900318 -0.0076,-0.046514 -0.743547,0.3993448 -0.0024,0.00145 0.006,-8.49e-4 0.0079,-0.00288 0.0091,-0.00966 0.0085,-0.032437 0.0096,-0.044158 0.0029,-0.047586 0.0028,-0.095339 0.0025,-0.1430021 -5.53e-4,-0.041205 -0.0013,-0.082408 -0.0016,-0.1236153 -2.72e-4,-0.034337 -2.93e-4,-0.068676 -3.1e-4,-0.1030144 -6.08e-4,-0.040484 -0.0013,-0.080556 0.008,-0.1201589 0.008,-0.03514 0.01966,-0.068915 0.02926,-0.1035276 0.0096,-0.034405 0.02759,-0.064147 0.04468,-0.095072 0.01025,-0.026887 0.01681,-0.061388 0.03609,-0.083119 0.0021,-0.00451 0.0034,-0.0095 0.0063,-0.013522 0.02153,-0.029497 -0.0038,0.013301 0.01767,-0.012153 0.0045,-0.0053 0.0087,-0.022324 0.01175,-0.027628 0.0025,-0.0043 0.0064,-0.00761 0.0096,-0.011412 0.0035,-0.00414 0.0062,-0.00907 0.01039,-0.012432 0.0036,-0.00284 0.0085,-0.0034 0.01245,-0.00569 0.335978,-0.1949516 0.488923,-0.4241215 0.802283,-0.4397989 0.03626,-0.001 0.07254,-1.044e-4 0.108796,3.552e-4 0.04119,-0.00245 0.07821,0.010255 0.111645,0.03373 0.03252,0.02304 0.06685,0.042718 0.101093,0.063138 0.04257,0.022563 0.07931,0.051713 0.114221,0.084715 0.035,0.02285 0.06284,0.054002 0.09378,0.081468 0.02476,0.021108 0.03917,0.061111 0.07178,0.071025 0.0015,-0.00234 0.0046,-0.00423 0.0046,-0.00703 1.17e-4,-0.00672 0.0018,-0.022914 -0.0041,-0.019731 -0.248227,0.1334684 -0.491896,0.2753079 -0.735327,0.4173349 -0.0035,0.00205 0.007,0.00512 0.01106,0.00523 0.0069,1.877e-4 0.0095,-0.011471 0.01088,-0.0149 0.0083,-0.020312 -0.0127,-0.047146 -0.02084,-0.065677 -0.01222,-0.031386 -0.01871,-0.064485 -0.028,-0.096795 -0.0072,-0.029834 -0.01487,-0.059552 -0.02269,-0.089239 -0.0083,-0.028606 -0.0095,-0.0179 -0.03261,-0.014059 -0.04098,0.0045 -0.06429,0.00582 -0.102275,-0.013273 -0.03613,-0.022712 -0.06835,-0.051307 -0.104547,-0.073811 -0.01988,-0.011855 -0.03455,-0.032536 -0.05484,-0.043562 -0.003,-0.00161 -0.0063,-0.00227 -0.0095,-0.00341 -0.0041,-0.00249 -0.0082,-0.00498 -0.01233,-0.00747 -0.01954,-0.014184 -0.03191,-0.036563 -0.05235,-0.049554 -0.0325,-0.020658 0.01289,0.01384 -0.02583,-0.016998 -0.0039,-0.00217 -0.0081,-0.00386 -0.01164,-0.00651 -0.01211,-0.00898 -0.01111,-0.012636 -0.02349,-0.018464 -0.01334,-0.00628 -0.02358,-0.011434 -0.03595,-0.020457 -0.01239,-0.00813 -0.02611,-0.010965 -0.04038,-0.013542 0,0 0.710175,-0.4791603 0.710175,-0.4791603 v 0 c 0.0175,0.00876 0.03474,0.017893 0.05092,0.028982 0.02704,0.014324 0.05078,0.032559 0.07486,0.051361 0.02593,0.018394 0.04676,0.042983 0.07411,0.059184 0.02761,0.0171 0.04986,0.041124 0.07695,0.059078 0.02741,0.020082 0.05657,0.044691 0.09066,0.050629 0.03449,-0.00198 0.06935,-0.00282 0.102103,0.010365 0.03696,0.018467 0.06608,0.047279 0.07765,0.088006 0.01053,0.030155 0.0156,0.062394 0.02498,0.092884 0.0069,0.029043 0.01566,0.057295 0.02115,0.086616 0.01418,0.035168 0.0373,0.066987 0.04313,0.1052172 1.62e-4,0.00588 0.0053,0.060416 0.0042,0.061103 -0.63269,0.3848457 -0.537522,0.6154916 -0.784018,0.3979551 -0.02703,-0.026204 -0.05148,-0.054666 -0.07687,-0.082419 -0.02867,-0.029016 -0.06101,-0.053405 -0.09174,-0.080141 -0.03188,-0.027326 -0.06672,-0.050166 -0.103757,-0.070015 -0.03368,-0.018856 -0.06599,-0.040081 -0.100739,-0.056899 -0.02976,-0.00345 -0.05867,-0.00175 -0.08853,-7.516e-4 -0.03309,0.00109 -0.06668,0.00248 -0.09814,0.013842 -0.0127,0.00557 -0.01729,0.00683 -0.02873,0.014847 -0.0044,0.00311 -0.01727,0.012939 -0.01259,0.010228 0.239968,-0.1390298 0.479086,-0.2795214 0.718629,-0.4192821 -0.01373,0.014272 -0.0055,0.0099 -0.02427,0.013669 -0.0038,0.00184 -0.0075,0.00368 -0.01128,0.00552 -0.0039,4.21e-4 -0.008,-1.766e-4 -0.01167,0.00126 -0.01773,0.00702 -0.0072,0.036772 -0.0303,0.037897 -0.02258,0.035899 0.0087,-0.00925 -0.01737,0.015952 -0.0033,0.00318 -0.0039,0.00842 -0.0069,0.011875 -0.0026,0.00304 -0.0073,0.00396 -0.0097,0.00722 -0.0059,0.00816 -0.005,0.020321 -0.01442,0.026584 -0.0046,0.019058 -0.0091,0.038418 -0.0197,0.05527 -0.01108,0.017581 -0.0094,0.00689 -0.01801,0.025571 -0.0023,0.00505 -0.0036,0.010526 -0.0054,0.015789 -0.0128,0.022856 -0.0021,0.00135 -0.01129,0.028786 -0.0017,0.00506 -0.0041,0.00987 -0.0061,0.014803 -0.0026,0.00435 -0.0061,0.00828 -0.0079,0.013064 -0.0047,0.012934 -0.0032,0.027577 -0.0095,0.040139 -0.0021,0.00609 -0.0042,0.012185 -0.0063,0.018278 -0.0024,0.00482 -0.0052,0.00943 -0.0071,0.014463 -0.0077,0.020865 -0.002,0.043696 -0.0036,0.065316 -1.7e-5,0.034407 -4e-5,0.068815 -2.63e-4,0.1032213 -3.06e-4,0.041632 -8.76e-4,0.083261 -0.0012,0.1248931 -3.8e-5,0.048365 5.46e-4,0.096733 0.0014,0.1450889 1.93e-4,0.020197 0.004,0.079021 0.0033,0.079516 -0.732729,0.4747514 -0.536941,0.6617438 -0.763469,0.4210122 -0.02283,-0.027068 -0.04101,-0.05657 -0.05893,-0.086889 -0.03093,-0.037016 -0.06028,-0.074839 -0.08643,-0.1154682 -0.02489,-0.029768 -0.05799,-0.053091 -0.0753,-0.088772 -0.02038,-0.028375 -0.04478,-0.054098 -0.06025,-0.085793 -0.01307,-0.0256 -0.03137,-0.048508 -0.04916,-0.070937 -0.0222,-0.024878 -0.04333,-0.049263 -0.07174,-0.067658 -0.03467,-0.033466 -0.06683,-0.06953 -0.105017,-0.099286 -0.05253,-0.045091 -0.108162,-0.085871 -0.164453,-0.1261617 -0.06018,-0.042338 -0.122884,-0.082366 -0.19489,-0.1012894 -0.04957,-0.010636 -0.109752,-0.022034 -0.158415,1.771e-4 -0.0064,0.00294 -0.01135,0.00844 -0.01703,0.012658 0.23921,-0.1407853 0.480576,-0.2779704 0.71763,-0.4223559 0.0049,-0.00296 -0.01084,-0.00345 -0.01636,-0.00477 -0.0046,-0.0011 -0.0096,-0.00441 -0.01397,-0.0025 -0.0073,0.00319 -0.0039,0.026479 -0.0038,0.028283 3.54e-4,0.00628 9.12e-4,0.012552 0.0014,0.018828 0.0067,0.058092 0.02267,0.1140293 0.03517,0.1710199 0.02437,0.1027089 0.04761,0.2058889 0.08449,0.305098 0.03498,0.1018884 0.06462,0.2055078 0.09568,0.3086456 0.02487,0.086766 0.04838,0.173902 0.07702,0.2595418 0.02537,0.065355 0.05239,0.1301586 0.07455,0.1967002 0.114967,0.2957653 0.02695,0.042437 -0.732065,0.4713404 -0.0035,0.00196 -0.03307,-0.048273 -0.03482,-0.051097 -0.0045,-0.00726 -0.0091,-0.014437 -0.01372,-0.021655 -0.03632,-0.052064 -0.07189,-0.1046264 -0.103981,-0.1594429 -0.03619,-0.060878 -0.07188,-0.1220097 -0.108629,-0.1825063 -0.0387,-0.050527 -0.07944,-0.099463 -0.11649,-0.151255 -0.02658,-0.036921 -0.05234,-0.074404 -0.07925,-0.1110474 -0.02054,-0.027064 -0.04309,-0.052266 -0.06758,-0.075849 -0.0249,-0.030626 -0.04571,-0.063975 -0.0636,-0.099176 -0.02148,-0.044406 -0.04646,-0.087201 -0.06381,-0.1335721 C 15.713785,5.8167147 15.679455,5.754642 15.661795,5.6860844 15.633226,5.5944852 15.601501,5.503834 15.579595,5.41026 15.547007,5.3001008 15.514669,5.1898449 15.478948,5.0806474 15.443137,4.97784 15.395383,4.8799957 15.357365,4.7780185 c -0.03069,-0.078617 -0.06238,-0.1568431 -0.09455,-0.2348658 -0.02134,-0.050687 -0.04977,-0.099847 -0.05562,-0.1553653 -0.01047,-0.049226 -0.03108,-0.095029 -0.04862,-0.1420263 -0.02345,-0.064473 -0.05725,-0.1235695 -0.08857,-0.1844178 -0.0365,-0.083871 -0.06498,-0.1707674 -0.09202,-0.2580952 -0.02858,-0.092852 -0.0625,-0.1839267 -0.08752,-0.2778676 -0.02259,-0.088511 -0.04128,-0.1781908 -0.04758,-0.2695198 -9.56e-4,-0.065259 -0.0019,-0.1305199 -0.0019,-0.1957875 2.81e-4,-0.058206 -0.0014,-0.1164103 -2.65e-4,-0.1746129 5.61e-4,-0.05677 0.0034,-0.1132935 0.01851,-0.1684279 0.01484,-0.060142 0.03514,-0.1191587 0.06136,-0.1752238 0.02609,-0.050209 0.05928,-0.094183 0.09519,-0.1377427 0.03616,-0.036265 0.07224,-0.072717 0.111178,-0.1060413 0.03637,-0.029938 0.07606,-0.054044 0.113639,-0.081879 0.04174,-0.030003 -0.01456,0.00892 0.02587,-0.014455 0.248752,-0.1438058 0.496688,-0.2890167 0.745254,-0.4331438 0.0036,-0.00211 0.0072,-0.00469 0.01135,-0.00556 0.0051,-0.00107 0.01036,-9.13e-5 0.01554,-1.37e-4 0.0046,-0.00106 0.0092,-0.00212 0.01385,-0.00318 0.0172,6.204e-4 0.03133,-0.00326 0.04832,-0.00475 0.02403,-0.00211 0.01329,8.19e-5 0.03896,0.00141 0.0072,3.73e-4 0.01439,7.67e-5 0.02158,1.15e-4 0.04224,9.3e-5 0.08447,-8.107e-4 0.126717,-6.444e-4 0.03757,-3.82e-5 0.07515,-8.379e-4 0.112712,1.106e-4 0.03481,0.00152 0.07,0.004 0.102355,0.018218 0.03353,0.016533 0.06587,0.036746 0.09151,0.064239 0.02433,0.028963 0.04901,0.058313 0.06838,0.090845 0.01365,0.027373 0.03168,0.051441 0.05203,0.07426 0.02357,0.025282 0.04711,0.050669 0.07374,0.072822 0.0328,0.027078 0.06282,0.057597 0.09809,0.081613 0.03002,0.019427 0.06045,0.037678 0.08479,0.064512 0.02764,0.026399 0.05557,0.052902 0.07875,0.083417 0.01508,0.024286 0.0257,0.051081 0.04115,0.074807 -0.248285,0.1427206 -0.499819,0.2799317 -0.744854,0.4281617 -0.0055,0.00332 0.0072,0.010642 0.01142,0.015518 8.46e-4,9.87e-4 -5.98e-4,-0.00258 -0.0013,-0.00369 -0.0094,-0.015316 -0.02109,-0.029173 -0.03091,-0.044186 -0.01849,-0.031772 -0.03355,-0.065138 -0.04838,-0.09866 -0.01847,-0.029232 -0.04035,-0.054794 -0.06876,-0.075123 -0.02591,-0.017834 -0.05133,-0.038422 -0.08472,-0.032023 -0.0077,4.408e-4 -0.01881,-4.194e-4 -0.02553,0.0053 -0.0032,0.00274 -0.01031,0.012888 -0.0066,0.010816 0.259547,-0.1459779 1.010986,-0.4557141 0.699877,-0.4127415 -0.01493,0.013942 -0.0099,0.02588 -0.02303,0.038618 -0.0033,0.00316 -0.0079,0.00441 -0.01187,0.00667 -0.758665,0.4355256 -0.540806,0.6291024 -0.770827,0.4117367 -0.03114,-0.027296 -0.06579,-0.05075 -0.08496,-0.089166 -0.01503,-0.026695 -0.02556,-0.05532 -0.04659,-0.078327 -0.01676,-0.029544 -0.03002,-0.062113 -0.0342,-0.095976 -0.0041,-0.020375 -0.01781,-0.036024 -0.03754,-0.043729 -0.01246,-0.00153 -0.01761,0.0025 -0.02957,0.0046 -0.01508,0.00265 -0.03096,0.00142 -0.04571,0.00643 -0.02684,0.0083 -0.04798,0.026895 -0.07536,0.032503 -0.216962,0.156445 0.944754,-0.4981934 0.696625,-0.3982954 -0.227254,0.091494 -0.499461,0.3503699 -0.782203,0.4391305 -0.03033,0.00997 -0.06194,0.00124 -0.09117,0.014418 -0.227371,0.1808827 -0.08127,0.063816 0.715357,-0.4080858 0.0045,-0.00266 -0.0099,-0.00349 -0.01492,-0.00476 -0.0044,-0.00109 -0.0088,-0.00258 -0.01326,-0.00232 -0.01144,6.605e-4 -0.01071,0.00563 -0.015,0.014582 -0.0011,0.039912 -0.0031,0.080137 -0.01486,0.1185931 -0.009,0.02602 -0.02111,0.051197 -0.02747,0.078107 -0.0018,0.00776 -0.0017,0.015887 -0.0035,0.023668 -0.0015,0.00656 -0.0041,0.012807 -0.0061,0.01921 -0.0025,0.00571 -0.0054,0.011231 -0.0074,0.017135 -0.0023,0.00697 0.001,0.017663 -0.0053,0.021359 -0.204029,0.1190049 -0.57102,0.6086458 -0.815036,0.3799941 -0.03403,-0.036952 -0.05954,-0.079477 -0.07694,-0.1267301 -0.02486,-0.05161 -0.05188,-0.1024019 -0.06772,-0.1578005 -0.01877,-0.048297 -0.03435,-0.097711 -0.05232,-0.1462936 0.897803,-0.4930051 0.755356,-0.6897678 0.753535,-0.3391395 -4.37e-4,0.044091 -3.09e-4,0.088174 -3.97e-4,0.1322652 -0.0016,0.059021 -0.0041,0.1180349 -0.0038,0.1770895 2.81e-4,0.093072 0.002,0.1863789 0.01595,0.2786061 0.0191,0.1205576 0.05081,0.2382833 0.07479,0.3578655 0.02408,0.1097218 0.04675,0.2205674 0.04429,0.3335444 6.89e-4,0.087302 0.0013,0.1746081 5.21e-4,0.2619115 -1.33e-4,0.036871 -6.47e-4,0.07328 0.0038,0.1099588 0.0014,0.011573 0.015,0.028591 0.005,0.034607 -0.732576,0.4414706 -0.523102,0.5858451 -0.773235,0.4028591 -0.02979,-0.024008 -0.05391,-0.051375 -0.07478,-0.083425 -0.02089,-0.026979 -0.04263,-0.053203 -0.06394,-0.079841 -0.02038,-0.027429 -0.03545,-0.057524 -0.05425,-0.08596 -0.01792,-0.031278 -0.04006,-0.06032 -0.05305,-0.094246 -0.03324,-0.059491 -0.07388,-0.1147574 -0.103687,-0.1763151 -0.04313,-0.078196 -0.07963,-0.1594761 -0.121303,-0.2384288 -0.04697,-0.081567 -0.09886,-0.1600689 -0.152746,-0.2372213 -0.04886,-0.067946 -0.09505,-0.1377593 -0.14458,-0.2052187 0,0 0.739524,-0.4304226 0.739524,-0.4304226 z"
   inkscape:connector-curvature="0" /></svg>